Orbitron Black.ufo
<glyph name="exclam" format="1">
  <advance width="220"/>
  <unicode hex="0021"/>
  <outline>
    <contour>
      <point x="211" y="0" type="line"/>
      <point x="211" y="153" type="line"/>
      <point x="58" y="153" type="line"/>
      <point x="58" y="0" type="line"/>
    </contour>
    <contour>
      <point x="58" y="201" type="line"/>
      <point x="211" y="201" type="line"/>
      <point x="211" y="720" type="line"/>
      <point x="58" y="720" type="line"/>
    </contour>
  </outline>
</glyph>
<glyph name="quotedbl" format="1">
  <advance width="396"/>
  <unicode hex="0022"/>
  <outline>
    <contour>
      <point x="188" y="706" type="line"/>
      <point x="36" y="706" type="line"/>
      <point x="36" y="505" type="line"/>
      <point x="188" y="505" type="line"/>
    </contour>
    <contour>
      <point x="369" y="706" type="line"/>
      <point x="217" y="706" type="line"/>
      <point x="217" y="505" type="line"/>
      <point x="369" y="505" type="line"/>
    </contour>
  </outline>
</glyph>
<glyph name="numbersign" format="1">
  <advance width="797"/>
  <unicode hex="0023"/>
  <outline>
    <contour>
      <point x="750" y="570" type="line"/>
      <point x="683" y="570" type="line"/>
      <point x="734" y="720" type="line"/>
      <point x="577" y="720" type="line"/>
      <point x="529" y="570" type="line"/>
      <point x="391" y="570" type="line"/>
      <point x="442" y="720" type="line"/>
      <point x="284" y="720" type="line"/>
      <point x="270" y="675"/>
      <point x="252" y="616"/>
      <point x="236" y="570" type="curve"/>
      <point x="60" y="570" type="line"/>
      <point x="60" y="417" type="line"/>
      <point x="187" y="417" type="line"/>
      <point x="153" y="311" type="line"/>
      <point x="32" y="311" type="line"/>
      <point x="32" y="158" type="line"/>
      <point x="107" y="158" type="line"/>
      <point x="60" y="0" type="line"/>
      <point x="215" y="0" type="line"/>
      <point x="229" y="48"/>
      <point x="244" y="110"/>
      <point x="259" y="158" type="curve"/>
      <point x="399" y="158" type="line"/>
      <point x="351" y="0" type="line"/>
      <point x="506" y="0" type="line"/>
      <point x="521" y="48"/>
      <point x="536" y="110"/>
      <point x="551" y="158" type="curve"/>
      <point x="722" y="158" type="line"/>
      <point x="722" y="311" type="line"/>
      <point x="601" y="311" type="line"/>
      <point x="635" y="417" type="line"/>
      <point x="750" y="417" type="line"/>
    </contour>
    <contour>
      <point x="309" y="311" type="line"/>
      <point x="343" y="417" type="line"/>
      <point x="479" y="417" type="line"/>
      <point x="445" y="311" type="line"/>
    </contour>
  </outline>
</glyph>
<glyph name="dollar" format="1">
  <advance width="788"/>
  <unicode hex="0024"/>
  <outline>
    <contour>
      <point x="740" y="575" type="line" smooth="yes"/>
      <point x="740" y="655"/>
      <point x="675" y="720"/>
      <point x="595" y="720" type="curve" smooth="yes"/>
      <point x="464" y="720" type="line"/>
      <point x="464" y="818" type="line"/>
      <point x="310" y="818" type="line"/>
      <point x="310" y="720" type="line"/>
      <point x="179" y="720" type="line" smooth="yes"/>
      <point x="99" y="720"/>
      <point x="34" y="655"/>
      <point x="34" y="575" type="curve" smooth="yes"/>
      <point x="34" y="425" type="line" smooth="yes"/>
      <point x="34" y="345"/>
      <point x="99" y="280"/>
      <point x="179" y="280" type="curve" smooth="yes"/>
      <point x="310" y="280" type="line"/>
      <point x="310" y="153" type="line"/>
      <point x="187" y="153" type="line"/>
      <point x="187" y="211" type="line"/>
      <point x="34" y="211" type="line"/>
      <point x="34" y="145" type="line" smooth="yes"/>
      <point x="34" y="66"/>
      <point x="99" y="0"/>
      <point x="179" y="0" type="curve" smooth="yes"/>
      <point x="310" y="0" type="line"/>
      <point x="310" y="-98" type="line"/>
      <point x="464" y="-98" type="line"/>
      <point x="464" y="0" type="line"/>
      <point x="595" y="0" type="line" smooth="yes"/>
      <point x="675" y="0"/>
      <point x="740" y="66"/>
      <point x="740" y="145" type="curve" smooth="yes"/>
      <point x="740" y="287" type="line" smooth="yes"/>
      <point x="740" y="367"/>
      <point x="675" y="433"/>
      <point x="595" y="433" type="curve" smooth="yes"/>
      <point x="464" y="433" type="line"/>
      <point x="464" y="567" type="line"/>
      <point x="587" y="567" type="line"/>
      <point x="587" y="509" type="line"/>
      <point x="740" y="509" type="line"/>
    </contour>
    <contour>
      <point x="310" y="433" type="line"/>
      <point x="187" y="433" type="line"/>
      <point x="187" y="567" type="line"/>
      <point x="310" y="567" type="line"/>
    </contour>
    <contour>
      <point x="464" y="280" type="line"/>
      <point x="587" y="280" type="line"/>
      <point x="587" y="153" type="line"/>
      <point x="464" y="153" type="line"/>
    </contour>
  </outline>
</glyph>
<glyph name="percent" format="1">
  <advance width="966"/>
  <unicode hex="0025"/>
  <outline>
    <contour>
      <point x="790" y="719" type="line"/>
      <point x="134" y="157" type="line"/>
      <point x="134" y="0" type="line"/>
      <point x="185" y="0" type="line"/>
      <point x="841" y="563" type="line"/>
      <point x="841" y="719" type="line"/>
    </contour>
    <contour>
      <point x="184" y="712" type="line" smooth="yes"/>
      <point x="104" y="712"/>
      <point x="48" y="657"/>
      <point x="48" y="577" type="curve" smooth="yes"/>
      <point x="48" y="505" type="line" smooth="yes"/>
      <point x="48" y="425"/>
      <point x="104" y="369"/>
      <point x="184" y="369" type="curve" smooth="yes"/>
      <point x="265" y="369" type="line" smooth="yes"/>
      <point x="345" y="369"/>
      <point x="401" y="425"/>
      <point x="401" y="505" type="curve" smooth="yes"/>
      <point x="401" y="577" type="line" smooth="yes"/>
      <point x="401" y="657"/>
      <point x="345" y="712"/>
      <point x="265" y="712" type="curve" smooth="yes"/>
    </contour>
    <contour>
      <point x="692" y="352" type="line" smooth="yes"/>
      <point x="613" y="352"/>
      <point x="557" y="297"/>
      <point x="557" y="217" type="curve" smooth="yes"/>
      <point x="557" y="145" type="line" smooth="yes"/>
      <point x="557" y="65"/>
      <point x="613" y="9"/>
      <point x="692" y="9" type="curve" smooth="yes"/>
      <point x="773" y="9" type="line" smooth="yes"/>
      <point x="853" y="9"/>
      <point x="909" y="65"/>
      <point x="909" y="145" type="curve" smooth="yes"/>
      <point x="909" y="217" type="line" smooth="yes"/>
      <point x="909" y="297"/>
      <point x="853" y="352"/>
      <point x="773" y="352" type="curve" smooth="yes"/>
    </contour>
    <contour>
      <point x="682" y="227" type="line"/>
      <point x="784" y="227" type="line"/>
      <point x="784" y="134" type="line"/>
      <point x="682" y="134" type="line"/>
    </contour>
    <contour>
      <point x="173" y="587" type="line"/>
      <point x="275" y="587" type="line"/>
      <point x="275" y="495" type="line"/>
      <point x="173" y="495" type="line"/>
    </contour>
  </outline>
</glyph>
<glyph name="ampersand" format="1">
  <advance width="938"/>
  <unicode hex="0026"/>
  <outline>
    <contour>
      <point x="759" y="208" type="line"/>
      <point x="759" y="369" type="line"/>
      <point x="606" y="369" type="line"/>
      <point x="606" y="274" type="line"/>
      <point x="242" y="457" type="line"/>
      <point x="242" y="565" type="line"/>
      <point x="579" y="565" type="line"/>
      <point x="579" y="512" type="line"/>
      <point x="732" y="512" type="line"/>
      <point x="732" y="600" type="line"/>
      <point x="720" y="668"/>
      <point x="658" y="719"/>
      <point x="587" y="719" type="curve" smooth="yes"/>
      <point x="234" y="719" type="line" smooth="yes"/>
      <point x="155" y="719"/>
      <point x="89" y="654"/>
      <point x="89" y="574" type="curve" smooth="yes"/>
      <point x="89" y="467" type="line" smooth="yes"/>
      <point x="89" y="448"/>
      <point x="89" y="431"/>
      <point x="96" y="414" type="curve"/>
      <point x="66" y="394"/>
      <point x="53" y="356"/>
      <point x="53" y="330" type="curve" smooth="yes"/>
      <point x="53" y="145" type="line" smooth="yes"/>
      <point x="53" y="66"/>
      <point x="118" y="0"/>
      <point x="198" y="0" type="curve" smooth="yes"/>
      <point x="614" y="0" type="line" smooth="yes"/>
      <point x="662" y="0"/>
      <point x="707" y="25"/>
      <point x="734" y="62" type="curve"/>
      <point x="874" y="-18" type="line"/>
      <point x="874" y="140" type="line"/>
    </contour>
    <contour>
      <point x="466" y="187"/>
      <point x="501" y="171"/>
      <point x="536" y="153" type="curve"/>
      <point x="206" y="153" type="line"/>
      <point x="206" y="319" type="line"/>
      <point x="279" y="283"/>
      <point x="361" y="241"/>
      <point x="432" y="205" type="curve" smooth="yes"/>
    </contour>
  </outline>
</glyph>
<glyph name="quotesingle" format="1">
  <advance width="251"/>
  <unicode hex="0027"/>
  <outline>
    <contour>
      <point x="212" y="706" type="line"/>
      <point x="59" y="706" type="line"/>
      <point x="59" y="504" type="line"/>
      <point x="212" y="504" type="line"/>
    </contour>
  </outline>
</glyph>
<glyph name="parenleft" format="1">
  <advance width="294"/>
  <unicode hex="0028"/>
  <outline>
    <contour>
      <point x="263" y="567" type="line"/>
      <point x="263" y="720" type="line"/>
      <point x="197" y="720" type="line" smooth="yes"/>
      <point x="117" y="720"/>
      <point x="52" y="655"/>
      <point x="52" y="575" type="curve" smooth="yes"/>
      <point x="52" y="145" type="line" smooth="yes"/>
      <point x="52" y="66"/>
      <point x="117" y="0"/>
      <point x="197" y="0" type="curve" smooth="yes"/>
      <point x="263" y="0" type="line"/>
      <point x="263" y="153" type="line"/>
      <point x="205" y="153" type="line"/>
      <point x="205" y="567" type="line"/>
    </contour>
  </outline>
</glyph>
<glyph name="parenright" format="1">
  <advance width="297"/>
  <unicode hex="0029"/>
  <outline>
    <contour>
      <point x="56" y="0" type="line"/>
      <point x="123" y="0" type="line" smooth="yes"/>
      <point x="202" y="0"/>
      <point x="268" y="66"/>
      <point x="268" y="145" type="curve" smooth="yes"/>
      <point x="268" y="575" type="line" smooth="yes"/>
      <point x="268" y="655"/>
      <point x="202" y="720"/>
      <point x="123" y="720" type="curve" smooth="yes"/>
      <point x="56" y="720" type="line"/>
      <point x="56" y="567" type="line"/>
      <point x="114" y="567" type="line"/>
      <point x="114" y="153" type="line"/>
      <point x="56" y="153" type="line"/>
    </contour>
  </outline>
</glyph>
<glyph name="asterisk" format="1">
  <advance width="516"/>
  <unicode hex="002A"/>
  <outline>
    <contour>
      <point x="445" y="627" type="line"/>
      <point x="363" y="599"/>
      <point x="349" y="594"/>
      <point x="335" y="590" type="curve"/>
      <point x="335" y="706" type="line"/>
      <point x="181" y="706" type="line"/>
      <point x="181" y="590" type="line"/>
      <point x="72" y="627" type="line"/>
      <point x="25" y="479" type="line"/>
      <point x="135" y="444" type="line"/>
      <point x="66" y="351" type="line"/>
      <point x="191" y="261" type="line"/>
      <point x="257" y="354" type="line"/>
      <point x="328" y="261" type="line"/>
      <point x="451" y="351" type="line"/>
      <point x="382" y="444" type="line"/>
      <point x="492" y="479" type="line"/>
    </contour>
  </outline>
</glyph>
<glyph name="plus" format="1">
  <advance width="455"/>
  <unicode hex="002B"/>
  <outline>
    <contour>
      <point x="147" y="503" type="line"/>
      <point x="147" y="372" type="line"/>
      <point x="17" y="372" type="line"/>
      <point x="17" y="219" type="line"/>
      <point x="147" y="219" type="line"/>
      <point x="147" y="86" type="line"/>
      <point x="300" y="86" type="line"/>
      <point x="300" y="219" type="line"/>
      <point x="434" y="219" type="line"/>
      <point x="434" y="372" type="line"/>
      <point x="300" y="372" type="line"/>
      <point x="300" y="503" type="line"/>
    </contour>
  </outline>
</glyph>
<glyph name="comma" format="1">
  <advance width="243"/>
  <unicode hex="002C"/>
  <outline>
    <contour>
      <point x="54" y="142" type="line"/>
      <point x="54" y="-133" type="line"/>
      <point x="141" y="-118"/>
      <point x="207" y="-57"/>
      <point x="207" y="16" type="curve" smooth="yes"/>
      <point x="207" y="142" type="line"/>
    </contour>
  </outline>
</glyph>
<glyph name="hyphen" format="1">
  <advance width="517"/>
  <unicode hex="002D"/>
  <outline>
    <contour>
      <point x="476" y="372" type="line"/>
      <point x="59" y="372" type="line"/>
      <point x="59" y="219" type="line"/>
      <point x="476" y="219" type="line"/>
    </contour>
  </outline>
</glyph>
<glyph name="period" format="1">
  <advance width="233"/>
  <unicode hex="002E"/>
  <outline>
    <contour>
      <point x="207" y="153" type="line"/>
      <point x="54" y="153" type="line"/>
      <point x="54" y="0" type="line"/>
      <point x="207" y="0" type="line"/>
    </contour>
  </outline>
</glyph>
<glyph name="slash" format="1">
  <advance width="521"/>
  <unicode hex="002F"/>
  <outline>
    <contour>
      <point x="6" y="155" type="line"/>
      <point x="6" y="0" type="line"/>
      <point x="61" y="0" type="line"/>
      <point x="522" y="566" type="line"/>
      <point x="522" y="720" type="line"/>
      <point x="467" y="720" type="line"/>
    </contour>
  </outline>
</glyph>
<glyph name="zero" format="1">
  <advance width="834"/>
  <unicode hex="0030"/>
  <outline>
    <contour>
      <point x="203" y="720" type="line" smooth="yes"/>
      <point x="123" y="720"/>
      <point x="57" y="651"/>
      <point x="57" y="571" type="curve" smooth="yes"/>
      <point x="57" y="155" type="line" smooth="yes"/>
      <point x="57" y="76"/>
      <point x="123" y="0"/>
      <point x="203" y="0" type="curve" smooth="yes"/>
      <point x="618" y="0" type="line" smooth="yes"/>
      <point x="698" y="0"/>
      <point x="764" y="76"/>
      <point x="764" y="155" type="curve" smooth="yes"/>
      <point x="764" y="571" type="line" smooth="yes"/>
      <point x="764" y="651"/>
      <point x="698" y="720"/>
      <point x="618" y="720" type="curve" smooth="yes"/>
    </contour>
    <contour>
      <point x="292" y="163" type="line"/>
      <point x="611" y="431" type="line"/>
      <point x="611" y="163" type="line"/>
    </contour>
    <contour>
      <point x="529" y="563" type="line"/>
      <point x="210" y="295" type="line"/>
      <point x="210" y="563" type="line"/>
    </contour>
  </outline>
</glyph>
<glyph name="one" format="1">
  <advance width="391"/>
  <unicode hex="0031"/>
  <outline>
    <contour>
      <point x="1" y="446" type="line"/>
      <point x="204" y="446" type="line"/>
      <point x="236" y="485" type="line"/>
      <point x="235" y="485" type="line"/>
      <point x="237" y="487" type="line"/>
      <point x="237" y="0" type="line"/>
      <point x="390" y="0" type="line"/>
      <point x="390" y="720" type="line"/>
      <point x="231" y="720" type="line"/>
    </contour>
  </outline>
</glyph>
<glyph name="two" format="1">
  <advance width="830"/>
  <unicode hex="0032"/>
  <outline>
    <contour>
      <point x="203" y="720" type="line" smooth="yes"/>
      <point x="123" y="720"/>
      <point x="57" y="655"/>
      <point x="57" y="575" type="curve" smooth="yes"/>
      <point x="57" y="509" type="line"/>
      <point x="210" y="509" type="line"/>
      <point x="210" y="567" type="line"/>
      <point x="611" y="567" type="line"/>
      <point x="611" y="424" type="line"/>
      <point x="203" y="424" type="line" smooth="yes"/>
      <point x="123" y="424"/>
      <point x="57" y="359"/>
      <point x="57" y="279" type="curve" smooth="yes"/>
      <point x="57" y="0" type="line"/>
      <point x="764" y="0" type="line"/>
      <point x="764" y="153" type="line"/>
      <point x="210" y="153" type="line"/>
      <point x="210" y="270" type="line"/>
      <point x="618" y="270" type="line" smooth="yes"/>
      <point x="698" y="270"/>
      <point x="764" y="336"/>
      <point x="764" y="416" type="curve" smooth="yes"/>
      <point x="764" y="575" type="line" smooth="yes"/>
      <point x="764" y="655"/>
      <point x="698" y="720"/>
      <point x="618" y="720" type="curve" smooth="yes"/>
    </contour>
  </outline>
</glyph>
<glyph name="three" format="1">
  <advance width="826"/>
  <unicode hex="0033"/>
  <outline>
    <contour>
      <point x="733" y="575" type="line" smooth="yes"/>
      <point x="733" y="655"/>
      <point x="668" y="720"/>
      <point x="588" y="720" type="curve" smooth="yes"/>
      <point x="199" y="720" type="line" smooth="yes"/>
      <point x="119" y="720"/>
      <point x="53" y="655"/>
      <point x="53" y="575" type="curve" smooth="yes"/>
      <point x="53" y="511" type="line"/>
      <point x="206" y="511" type="line"/>
      <point x="206" y="567" type="line"/>
      <point x="580" y="567" type="line"/>
      <point x="580" y="439" type="line"/>
      <point x="171" y="439" type="line"/>
      <point x="171" y="286" type="line"/>
      <point x="607" y="286" type="line"/>
      <point x="607" y="153" type="line"/>
      <point x="206" y="153" type="line"/>
      <point x="206" y="201" type="line"/>
      <point x="53" y="201" type="line"/>
      <point x="53" y="145" type="line" smooth="yes"/>
      <point x="53" y="66"/>
      <point x="119" y="0"/>
      <point x="199" y="0" type="curve" smooth="yes"/>
      <point x="615" y="0" type="line" smooth="yes"/>
      <point x="695" y="0"/>
      <point x="760" y="66"/>
      <point x="760" y="145" type="curve" smooth="yes"/>
      <point x="760" y="294" type="line" smooth="yes"/>
      <point x="760" y="329"/>
      <point x="747" y="361"/>
      <point x="727" y="385" type="curve"/>
      <point x="731" y="399"/>
      <point x="733" y="416"/>
      <point x="733" y="431" type="curve" smooth="yes"/>
    </contour>
  </outline>
</glyph>
<glyph name="four" format="1">
  <advance width="730"/>
  <unicode hex="0034"/>
  <outline>
    <contour>
      <point x="590" y="333" type="line"/>
      <point x="590" y="720" type="line"/>
      <point x="453" y="720" type="line"/>
      <point x="6" y="316" type="line"/>
      <point x="6" y="179" type="line"/>
      <point x="437" y="179" type="line"/>
      <point x="437" y="0" type="line"/>
      <point x="590" y="0" type="line"/>
      <point x="590" y="179" type="line"/>
      <point x="686" y="179" type="line"/>
      <point x="686" y="333" type="line"/>
    </contour>
    <contour>
      <point x="437" y="481" type="line"/>
      <point x="437" y="333" type="line"/>
      <point x="255" y="333" type="line"/>
    </contour>
  </outline>
</glyph>
<glyph name="five" format="1">
  <advance width="830"/>
  <unicode hex="0035"/>
  <outline>
    <contour>
      <point x="764" y="567" type="line"/>
      <point x="764" y="720" type="line"/>
      <point x="57" y="720" type="line"/>
      <point x="57" y="288" type="line"/>
      <point x="611" y="288" type="line"/>
      <point x="611" y="153" type="line"/>
      <point x="210" y="153" type="line"/>
      <point x="210" y="201" type="line"/>
      <point x="57" y="201" type="line"/>
      <point x="57" y="145" type="line" smooth="yes"/>
      <point x="57" y="66"/>
      <point x="123" y="0"/>
      <point x="203" y="0" type="curve" smooth="yes"/>
      <point x="618" y="0" type="line" smooth="yes"/>
      <point x="698" y="0"/>
      <point x="764" y="66"/>
      <point x="764" y="145" type="curve" smooth="yes"/>
      <point x="764" y="297" type="line" smooth="yes"/>
      <point x="764" y="377"/>
      <point x="698" y="442"/>
      <point x="618" y="442" type="curve" smooth="yes"/>
      <point x="210" y="442" type="line"/>
      <point x="210" y="567" type="line"/>
    </contour>
  </outline>
</glyph>
<glyph name="six" format="1">
  <advance width="820"/>
  <unicode hex="0036"/>
  <outline>
    <contour>
      <point x="655" y="567" type="line"/>
      <point x="655" y="720" type="line"/>
      <point x="203" y="720" type="line" smooth="yes"/>
      <point x="123" y="720"/>
      <point x="57" y="655"/>
      <point x="57" y="575" type="curve" smooth="yes"/>
      <point x="57" y="145" type="line" smooth="yes"/>
      <point x="57" y="66"/>
      <point x="123" y="0"/>
      <point x="203" y="0" type="curve" smooth="yes"/>
      <point x="618" y="0" type="line" smooth="yes"/>
      <point x="698" y="0"/>
      <point x="764" y="66"/>
      <point x="764" y="145" type="curve" smooth="yes"/>
      <point x="764" y="297" type="line" smooth="yes"/>
      <point x="764" y="377"/>
      <point x="698" y="442"/>
      <point x="618" y="442" type="curve" smooth="yes"/>
      <point x="210" y="442" type="line"/>
      <point x="210" y="567" type="line"/>
    </contour>
    <contour>
      <point x="210" y="288" type="line"/>
      <point x="611" y="288" type="line"/>
      <point x="611" y="153" type="line"/>
      <point x="210" y="153" type="line"/>
    </contour>
  </outline>
</glyph>
<glyph name="seven" format="1">
  <advance width="660"/>
  <unicode hex="0037"/>
  <outline>
    <contour>
      <point x="3" y="721" type="line"/>
      <point x="3" y="568" type="line"/>
      <point x="448" y="568" type="line"/>
      <point x="448" y="0" type="line"/>
      <point x="601" y="0" type="line"/>
      <point x="601" y="576" type="line" smooth="yes"/>
      <point x="601" y="656"/>
      <point x="536" y="721"/>
      <point x="456" y="721" type="curve" smooth="yes"/>
    </contour>
  </outline>
</glyph>
<glyph name="eight" format="1">
  <advance width="834"/>
  <unicode hex="0038"/>
  <outline>
    <contour>
      <point x="764" y="601" type="line"/>
      <point x="752" y="669"/>
      <point x="690" y="720"/>
      <point x="618" y="720" type="curve" smooth="yes"/>
      <point x="203" y="720" type="line" smooth="yes"/>
      <point x="123" y="720"/>
      <point x="57" y="655"/>
      <point x="57" y="575" type="curve" smooth="yes"/>
      <point x="57" y="434" type="line" smooth="yes"/>
      <point x="57" y="410"/>
      <point x="64" y="386"/>
      <point x="74" y="365" type="curve"/>
      <point x="64" y="344"/>
      <point x="57" y="320"/>
      <point x="57" y="297" type="curve" smooth="yes"/>
      <point x="57" y="145" type="line" smooth="yes"/>
      <point x="57" y="66"/>
      <point x="123" y="0"/>
      <point x="203" y="0" type="curve" smooth="yes"/>
      <point x="618" y="0" type="line" smooth="yes"/>
      <point x="698" y="0"/>
      <point x="764" y="66"/>
      <point x="764" y="145" type="curve" smooth="yes"/>
      <point x="764" y="297" type="line" smooth="yes"/>
      <point x="764" y="321"/>
      <point x="759" y="343"/>
      <point x="747" y="365" type="curve"/>
      <point x="758" y="386"/>
      <point x="764" y="412"/>
      <point x="764" y="434" type="curve" smooth="yes"/>
    </contour>
    <contour>
      <point x="210" y="288" type="line"/>
      <point x="611" y="288" type="line"/>
      <point x="611" y="153" type="line"/>
      <point x="210" y="153" type="line"/>
    </contour>
    <contour>
      <point x="210" y="566" type="line"/>
      <point x="611" y="566" type="line"/>
      <point x="611" y="432" type="line"/>
      <point x="210" y="432" type="line"/>
    </contour>
  </outline>
</glyph>
<glyph name="nine" format="1">
  <advance width="828"/>
  <unicode hex="0039"/>
  <outline>
    <contour>
      <point x="616" y="0" type="line" smooth="yes"/>
      <point x="696" y="0"/>
      <point x="761" y="66"/>
      <point x="761" y="145" type="curve" smooth="yes"/>
      <point x="761" y="575" type="line" smooth="yes"/>
      <point x="761" y="655"/>
      <point x="696" y="720"/>
      <point x="616" y="720" type="curve" smooth="yes"/>
      <point x="200" y="720" type="line" smooth="yes"/>
      <point x="120" y="720"/>
      <point x="54" y="655"/>
      <point x="54" y="575" type="curve" smooth="yes"/>
      <point x="54" y="427" type="line" smooth="yes"/>
      <point x="54" y="347"/>
      <point x="120" y="281"/>
      <point x="200" y="281" type="curve" smooth="yes"/>
      <point x="608" y="281" type="line"/>
      <point x="608" y="153" type="line"/>
      <point x="51" y="153" type="line"/>
      <point x="66" y="67"/>
      <point x="128" y="0"/>
      <point x="200" y="0" type="curve" smooth="yes"/>
    </contour>
    <contour>
      <point x="208" y="435" type="line"/>
      <point x="208" y="567" type="line"/>
      <point x="608" y="567" type="line"/>
      <point x="608" y="435" type="line"/>
    </contour>
  </outline>
</glyph>
<glyph name="colon" format="1">
  <advance width="247"/>
  <unicode hex="003A"/>
  <outline>
    <contour>
      <point x="54" y="153" type="line"/>
      <point x="54" y="0" type="line"/>
      <point x="207" y="0" type="line"/>
      <point x="207" y="153" type="line"/>
    </contour>
    <contour>
      <point x="207" y="580" type="line"/>
      <point x="54" y="580" type="line"/>
      <point x="54" y="426" type="line"/>
      <point x="207" y="426" type="line"/>
    </contour>
  </outline>
</glyph>
<glyph name="semicolon" format="1">
  <advance width="266"/>
  <unicode hex="003B"/>
  <outline>
    <contour>
      <point x="205" y="580" type="line"/>
      <point x="51" y="580" type="line"/>
      <point x="51" y="426" type="line"/>
      <point x="205" y="426" type="line"/>
    </contour>
    <contour>
      <point x="52" y="142" type="line"/>
      <point x="52" y="-133" type="line"/>
      <point x="139" y="-118"/>
      <point x="205" y="-57"/>
      <point x="205" y="16" type="curve" smooth="yes"/>
      <point x="205" y="142" type="line"/>
    </contour>
  </outline>
</glyph>
<glyph name="less" format="1">
  <advance width="473"/>
  <unicode hex="003C"/>
  <outline>
    <contour>
      <point x="198" y="296" type="line"/>
      <point x="432" y="431" type="line"/>
      <point x="432" y="607" type="line"/>
      <point x="5" y="359" type="line"/>
      <point x="5" y="231" type="line"/>
      <point x="432" y="-17" type="line"/>
      <point x="432" y="160" type="line"/>
    </contour>
  </outline>
</glyph>
<glyph name="equal" format="1">
  <advance width="638"/>
  <unicode hex="003D"/>
  <outline>
    <contour>
      <point x="585" y="282" type="line"/>
      <point x="59" y="282" type="line"/>
      <point x="59" y="129" type="line"/>
      <point x="585" y="129" type="line"/>
    </contour>
    <contour>
      <point x="585" y="484" type="line"/>
      <point x="59" y="484" type="line"/>
      <point x="59" y="331" type="line"/>
      <point x="585" y="331" type="line"/>
    </contour>
  </outline>
</glyph>
<glyph name="greater" format="1">
  <advance width="475"/>
  <unicode hex="003E"/>
  <outline>
    <contour>
      <point x="59" y="-19" type="line"/>
      <point x="487" y="229" type="line"/>
      <point x="487" y="358" type="line"/>
      <point x="59" y="605" type="line"/>
      <point x="59" y="428" type="line"/>
      <point x="91" y="411"/>
      <point x="130" y="385"/>
      <point x="164" y="366" type="curve" smooth="yes"/>
      <point x="292" y="294" type="line"/>
      <point x="59" y="159" type="line"/>
    </contour>
  </outline>
</glyph>
<glyph name="question" format="1">
  <advance width="678"/>
  <unicode hex="003F"/>
  <outline>
    <contour>
      <point x="31" y="720" type="line"/>
      <point x="31" y="567" type="line"/>
      <point x="500" y="567" type="line"/>
      <point x="500" y="417" type="line"/>
      <point x="273" y="417" type="line" smooth="yes"/>
      <point x="193" y="417"/>
      <point x="128" y="352"/>
      <point x="128" y="272" type="curve" smooth="yes"/>
      <point x="128" y="194" type="line"/>
      <point x="282" y="194" type="line"/>
      <point x="282" y="263" type="line"/>
      <point x="507" y="263" type="line" smooth="yes"/>
      <point x="588" y="263"/>
      <point x="653" y="329"/>
      <point x="653" y="409" type="curve" smooth="yes"/>
      <point x="653" y="575" type="line" smooth="yes"/>
      <point x="653" y="655"/>
      <point x="588" y="720"/>
      <point x="507" y="720" type="curve" smooth="yes"/>
    </contour>
    <contour>
      <point x="282" y="0" type="line"/>
      <point x="282" y="153" type="line"/>
      <point x="128" y="153" type="line"/>
      <point x="128" y="0" type="line"/>
    </contour>
  </outline>
</glyph>
<glyph name="at" format="1">
  <advance width="831"/>
  <unicode hex="0040"/>
  <outline>
    <contour>
      <point x="380" y="519" type="line" smooth="yes"/>
      <point x="300" y="519"/>
      <point x="254" y="474"/>
      <point x="254" y="394" type="curve" smooth="yes"/>
      <point x="254" y="341" type="line" smooth="yes"/>
      <point x="254" y="260"/>
      <point x="300" y="216"/>
      <point x="380" y="216" type="curve" smooth="yes"/>
      <point x="764" y="216" type="line"/>
      <point x="764" y="575" type="line" smooth="yes"/>
      <point x="764" y="655"/>
      <point x="698" y="720"/>
      <point x="618" y="720" type="curve" smooth="yes"/>
      <point x="203" y="720" type="line" smooth="yes"/>
      <point x="123" y="720"/>
      <point x="57" y="655"/>
      <point x="57" y="575" type="curve" smooth="yes"/>
      <point x="57" y="145" type="line" smooth="yes"/>
      <point x="57" y="66"/>
      <point x="123" y="0"/>
      <point x="203" y="0" type="curve" smooth="yes"/>
      <point x="764" y="0" type="line"/>
      <point x="764" y="153" type="line"/>
      <point x="210" y="153" type="line"/>
      <point x="210" y="567" type="line"/>
      <point x="611" y="567" type="line"/>
      <point x="611" y="331" type="line"/>
      <point x="567" y="331" type="line"/>
      <point x="567" y="394" type="line" smooth="yes"/>
      <point x="567" y="474"/>
      <point x="522" y="519"/>
      <point x="442" y="519" type="curve" smooth="yes"/>
    </contour>
    <contour>
      <point x="360" y="331" type="line"/>
      <point x="360" y="413" type="line"/>
      <point x="461" y="413" type="line"/>
      <point x="461" y="331" type="line"/>
    </contour>
  </outline>
</glyph>
<glyph name="B" format="1">
  <advance width="832"/>
  <unicode hex="0042"/>
  <outline>
    <contour>
      <point x="751" y="572" type="line" smooth="yes"/>
      <point x="751" y="654"/>
      <point x="684" y="720"/>
      <point x="603" y="720" type="curve" smooth="yes"/>
      <point x="59" y="720" type="line"/>
      <point x="59" y="0" type="line"/>
      <point x="630" y="0" type="line" smooth="yes"/>
      <point x="712" y="0"/>
      <point x="779" y="66"/>
      <point x="779" y="148" type="curve" smooth="yes"/>
      <point x="779" y="297" type="line" smooth="yes"/>
      <point x="779" y="331"/>
      <point x="764" y="366"/>
      <point x="744" y="391" type="curve"/>
      <point x="749" y="404"/>
      <point x="751" y="420"/>
      <point x="751" y="437" type="curve" smooth="yes"/>
    </contour>
    <contour>
      <point x="214" y="288" type="line"/>
      <point x="622" y="288" type="line"/>
      <point x="622" y="156" type="line"/>
      <point x="214" y="156" type="line"/>
    </contour>
    <contour>
      <point x="214" y="564" type="line"/>
      <point x="594" y="564" type="line"/>
      <point x="594" y="444" type="line"/>
      <point x="214" y="444" type="line"/>
    </contour>
  </outline>
</glyph>
<glyph name="C" format="1">
  <advance width="822"/>
  <unicode hex="0043"/>
  <outline>
    <contour>
      <point x="774" y="564" type="line"/>
      <point x="774" y="720" type="line"/>
      <point x="204" y="720" type="line" smooth="yes"/>
      <point x="122" y="720"/>
      <point x="56" y="654"/>
      <point x="56" y="572" type="curve" smooth="yes"/>
      <point x="56" y="148" type="line" smooth="yes"/>
      <point x="56" y="66"/>
      <point x="122" y="0"/>
      <point x="204" y="0" type="curve" smooth="yes"/>
      <point x="774" y="0" type="line"/>
      <point x="774" y="156" type="line"/>
      <point x="211" y="156" type="line"/>
      <point x="211" y="564" type="line"/>
    </contour>
  </outline>
</glyph>
<glyph name="D" format="1">
  <advance width="834"/>
  <unicode hex="0044"/>
  <outline>
    <contour>
      <point x="58" y="720" type="line"/>
      <point x="58" y="0" type="line"/>
      <point x="629" y="0" type="line" smooth="yes"/>
      <point x="711" y="0"/>
      <point x="778" y="66"/>
      <point x="778" y="148" type="curve" smooth="yes"/>
      <point x="778" y="572" type="line" smooth="yes"/>
      <point x="778" y="654"/>
      <point x="711" y="720"/>
      <point x="629" y="720" type="curve" smooth="yes"/>
    </contour>
    <contour>
      <point x="213" y="564" type="line"/>
      <point x="621" y="564" type="line"/>
      <point x="621" y="156" type="line"/>
      <point x="213" y="156" type="line"/>
    </contour>
  </outline>
</glyph>
<glyph name="E" format="1">
  <advance width="766"/>
  <unicode hex="0045"/>
  <outline>
    <contour>
      <point x="723" y="720" type="line"/>
      <point x="58" y="720" type="line"/>
      <point x="58" y="0" type="line"/>
      <point x="723" y="0" type="line"/>
      <point x="723" y="156" type="line"/>
      <point x="215" y="156" type="line"/>
      <point x="215" y="282" type="line"/>
      <point x="624" y="282" type="line"/>
      <point x="624" y="438" type="line"/>
      <point x="215" y="438" type="line"/>
      <point x="215" y="564" type="line"/>
      <point x="723" y="564" type="line"/>
    </contour>
  </outline>
</glyph>
<glyph name="F" format="1">
  <advance width="723"/>
  <unicode hex="0046"/>
  <outline>
    <contour>
      <point x="58" y="720" type="line"/>
      <point x="58" y="0" type="line"/>
      <point x="215" y="0" type="line"/>
      <point x="215" y="282" type="line"/>
      <point x="624" y="282" type="line"/>
      <point x="624" y="438" type="line"/>
      <point x="215" y="438" type="line"/>
      <point x="215" y="564" type="line"/>
      <point x="723" y="564" type="line"/>
      <point x="723" y="720" type="line"/>
    </contour>
  </outline>
</glyph>
<glyph name="G" format="1">
  <advance width="830"/>
  <unicode hex="0047"/>
  <outline>
    <contour>
      <point x="776" y="572" type="line" smooth="yes"/>
      <point x="776" y="654"/>
      <point x="709" y="720"/>
      <point x="627" y="720" type="curve" smooth="yes"/>
      <point x="204" y="720" type="line" smooth="yes"/>
      <point x="122" y="720"/>
      <point x="56" y="654"/>
      <point x="56" y="572" type="curve" smooth="yes"/>
      <point x="56" y="148" type="line" smooth="yes"/>
      <point x="56" y="66"/>
      <point x="122" y="0"/>
      <point x="204" y="0" type="curve" smooth="yes"/>
      <point x="627" y="0" type="line" smooth="yes"/>
      <point x="709" y="0"/>
      <point x="776" y="66"/>
      <point x="776" y="148" type="curve" smooth="yes"/>
      <point x="776" y="420" type="line"/>
      <point x="463" y="420" type="line"/>
      <point x="463" y="264" type="line"/>
      <point x="619" y="264" type="line"/>
      <point x="619" y="156" type="line"/>
      <point x="211" y="156" type="line"/>
      <point x="211" y="564" type="line"/>
      <point x="619" y="564" type="line"/>
      <point x="619" y="504" type="line"/>
      <point x="776" y="504" type="line"/>
    </contour>
  </outline>
</glyph>
<glyph name="H" format="1">
  <advance width="851"/>
  <unicode hex="0048"/>
  <outline>
    <contour>
      <point x="637" y="720" type="line"/>
      <point x="637" y="438" type="line"/>
      <point x="212" y="438" type="line"/>
      <point x="212" y="720" type="line"/>
      <point x="57" y="720" type="line"/>
      <point x="57" y="0" type="line"/>
      <point x="212" y="0" type="line"/>
      <point x="212" y="282" type="line"/>
      <point x="637" y="282" type="line"/>
      <point x="637" y="0" type="line"/>
      <point x="792" y="0" type="line"/>
      <point x="792" y="720" type="line"/>
    </contour>
  </outline>
</glyph>
<glyph name="J" format="1">
  <advance width="780"/>
  <unicode hex="004A"/>
  <outline>
    <contour>
      <point x="159" y="241" type="line"/>
      <point x="4" y="241" type="line"/>
      <point x="4" y="148" type="line" smooth="yes"/>
      <point x="4" y="66"/>
      <point x="70" y="0"/>
      <point x="152" y="0" type="curve" smooth="yes"/>
      <point x="576" y="0" type="line" smooth="yes"/>
      <point x="657" y="0"/>
      <point x="724" y="66"/>
      <point x="724" y="148" type="curve" smooth="yes"/>
      <point x="724" y="720" type="line"/>
      <point x="567" y="720" type="line"/>
      <point x="567" y="156" type="line"/>
      <point x="159" y="156" type="line"/>
    </contour>
  </outline>
</glyph>
<glyph name="K" format="1">
  <advance width="797"/>
  <unicode hex="004B"/>
  <outline>
    <contour>
      <point x="590" y="720" type="line"/>
      <point x="444" y="545" type="line" smooth="yes"/>
      <point x="414" y="509"/>
      <point x="384" y="473"/>
      <point x="354" y="438" type="curve"/>
      <point x="213" y="438" type="line"/>
      <point x="213" y="720" type="line"/>
      <point x="57" y="720" type="line"/>
      <point x="57" y="0" type="line"/>
      <point x="213" y="0" type="line"/>
      <point x="213" y="282" type="line"/>
      <point x="354" y="282" type="line"/>
      <point x="590" y="0" type="line"/>
      <point x="752" y="0" type="line"/>
      <point x="752" y="54" type="line"/>
      <point x="668" y="154"/>
      <point x="579" y="259"/>
      <point x="495" y="360" type="curve"/>
      <point x="752" y="666" type="line"/>
      <point x="752" y="720" type="line"/>
    </contour>
  </outline>
</glyph>
<glyph name="L" format="1">
  <advance width="779"/>
  <unicode hex="004C"/>
  <outline>
    <contour>
      <point x="57" y="0" type="line"/>
      <point x="777" y="0" type="line"/>
      <point x="777" y="156" type="line"/>
      <point x="212" y="156" type="line"/>
      <point x="212" y="721" type="line"/>
      <point x="57" y="721" type="line"/>
    </contour>
  </outline>
</glyph>
<glyph name="M" format="1">
  <advance width="928"/>
  <unicode hex="004D"/>
  <outline>
    <contour>
      <point x="460" y="429" type="line"/>
      <point x="216" y="720" type="line"/>
      <point x="56" y="720" type="line"/>
      <point x="56" y="0" type="line"/>
      <point x="211" y="0" type="line"/>
      <point x="211" y="482" type="line"/>
      <point x="460" y="187" type="line"/>
      <point x="540" y="281"/>
      <point x="627" y="387"/>
      <point x="708" y="483" type="curve"/>
      <point x="708" y="0" type="line"/>
      <point x="864" y="0" type="line"/>
      <point x="864" y="720" type="line"/>
      <point x="703" y="720" type="line"/>
    </contour>
  </outline>
</glyph>
<glyph name="N" format="1">
  <advance width="832"/>
  <unicode hex="004E"/>
  <outline>
    <contour>
      <point x="619" y="240" type="line"/>
      <point x="216" y="720" type="line"/>
      <point x="56" y="720" type="line"/>
      <point x="56" y="0" type="line"/>
      <point x="211" y="0" type="line"/>
      <point x="211" y="482" type="line"/>
      <point x="616" y="0" type="line"/>
      <point x="776" y="0" type="line"/>
      <point x="776" y="720" type="line"/>
      <point x="619" y="720" type="line"/>
    </contour>
  </outline>
</glyph>
<glyph name="P" format="1">
  <advance width="791"/>
  <unicode hex="0050"/>
  <outline>
    <contour>
      <point x="56" y="719" type="line"/>
      <point x="56" y="0" type="line"/>
      <point x="211" y="0" type="line"/>
      <point x="211" y="231" type="line"/>
      <point x="212" y="230"/>
      <point x="214" y="230"/>
      <point x="214" y="230" type="curve"/>
      <point x="214" y="234"/>
      <point x="213" y="236"/>
      <point x="211" y="236" type="curve"/>
      <point x="627" y="237" type="line" smooth="yes"/>
      <point x="709" y="237"/>
      <point x="776" y="304"/>
      <point x="776" y="385" type="curve" smooth="yes"/>
      <point x="776" y="571" type="line" smooth="yes"/>
      <point x="776" y="652"/>
      <point x="709" y="719"/>
      <point x="627" y="719" type="curve" smooth="yes"/>
    </contour>
    <contour>
      <point x="211" y="564" type="line"/>
      <point x="619" y="564" type="line"/>
      <point x="619" y="393" type="line"/>
      <point x="211" y="393" type="line"/>
    </contour>
  </outline>
</glyph>
<glyph name="Q" format="1">
  <advance width="884"/>
  <unicode hex="0051"/>
  <outline>
    <contour>
      <point x="774" y="572" type="line" smooth="yes"/>
      <point x="774" y="654"/>
      <point x="707" y="720"/>
      <point x="625" y="720" type="curve" smooth="yes"/>
      <point x="202" y="720" type="line" smooth="yes"/>
      <point x="120" y="720"/>
      <point x="54" y="654"/>
      <point x="54" y="572" type="curve" smooth="yes"/>
      <point x="54" y="148" type="line" smooth="yes"/>
      <point x="54" y="66"/>
      <point x="120" y="0"/>
      <point x="202" y="0" type="curve" smooth="yes"/>
      <point x="856" y="0" type="line"/>
      <point x="856" y="156" type="line"/>
      <point x="774" y="156" type="line"/>
    </contour>
    <contour>
      <point x="209" y="564" type="line"/>
      <point x="617" y="564" type="line"/>
      <point x="617" y="156" type="line"/>
      <point x="209" y="156" type="line"/>
    </contour>
  </outline>
</glyph>
<glyph name="R" format="1">
  <advance width="825"/>
  <unicode hex="0052"/>
  <outline>
    <contour>
      <point x="775" y="571" type="line" smooth="yes"/>
      <point x="775" y="652"/>
      <point x="708" y="719"/>
      <point x="626" y="719" type="curve" smooth="yes"/>
      <point x="55" y="719" type="line"/>
      <point x="55" y="0" type="line"/>
      <point x="210" y="0" type="line"/>
      <point x="210" y="231" type="line"/>
      <point x="211" y="230"/>
      <point x="213" y="230"/>
      <point x="213" y="230" type="curve"/>
      <point x="213" y="234"/>
      <point x="212" y="236"/>
      <point x="210" y="236" type="curve"/>
      <point x="416" y="237" type="line"/>
      <point x="615" y="0" type="line"/>
      <point x="775" y="0" type="line"/>
      <point x="775" y="53" type="line"/>
      <point x="725" y="113"/>
      <point x="670" y="177"/>
      <point x="619" y="237" type="curve"/>
      <point x="626" y="237" type="line" smooth="yes"/>
      <point x="708" y="237"/>
      <point x="775" y="304"/>
      <point x="775" y="385" type="curve" smooth="yes"/>
    </contour>
    <contour>
      <point x="210" y="564" type="line"/>
      <point x="618" y="564" type="line"/>
      <point x="618" y="393" type="line"/>
      <point x="210" y="393" type="line"/>
    </contour>
  </outline>
</glyph>
<glyph name="S" format="1">
  <advance width="822"/>
  <unicode hex="0053"/>
  <outline>
    <contour>
      <point x="771" y="572" type="line" smooth="yes"/>
      <point x="771" y="654"/>
      <point x="704" y="720"/>
      <point x="623" y="720" type="curve" smooth="yes"/>
      <point x="199" y="720" type="line" smooth="yes"/>
      <point x="117" y="720"/>
      <point x="51" y="654"/>
      <point x="51" y="572" type="curve" smooth="yes"/>
      <point x="51" y="430" type="line" smooth="yes"/>
      <point x="51" y="348"/>
      <point x="117" y="282"/>
      <point x="199" y="282" type="curve" smooth="yes"/>
      <point x="614" y="282" type="line"/>
      <point x="614" y="156" type="line"/>
      <point x="206" y="156" type="line"/>
      <point x="206" y="215" type="line"/>
      <point x="51" y="215" type="line"/>
      <point x="51" y="148" type="line" smooth="yes"/>
      <point x="51" y="66"/>
      <point x="117" y="0"/>
      <point x="199" y="0" type="curve" smooth="yes"/>
      <point x="623" y="0" type="line" smooth="yes"/>
      <point x="704" y="0"/>
      <point x="771" y="66"/>
      <point x="771" y="148" type="curve" smooth="yes"/>
      <point x="771" y="290" type="line" smooth="yes"/>
      <point x="771" y="372"/>
      <point x="704" y="438"/>
      <point x="623" y="438" type="curve" smooth="yes"/>
      <point x="206" y="438" type="line"/>
      <point x="206" y="564" type="line"/>
      <point x="614" y="564" type="line"/>
      <point x="614" y="505" type="line"/>
      <point x="771" y="505" type="line"/>
    </contour>
  </outline>
</glyph>
<glyph name="T" format="1">
  <advance width="759"/>
  <unicode hex="0054"/>
  <outline>
    <contour>
      <point x="20" y="720" type="line"/>
      <point x="20" y="564" type="line"/>
      <point x="302" y="564" type="line"/>
      <point x="302" y="0" type="line"/>
      <point x="458" y="0" type="line"/>
      <point x="458" y="564" type="line"/>
      <point x="740" y="564" type="line"/>
      <point x="740" y="720" type="line"/>
    </contour>
  </outline>
</glyph>
<glyph name="V" format="1">
  <advance width="1003"/>
  <unicode hex="0056"/>
  <outline>
    <contour>
      <point x="517" y="197" type="line"/>
      <point x="215" y="720" type="line"/>
      <point x="35" y="720" type="line"/>
      <point x="452" y="0" type="line"/>
      <point x="581" y="0" type="line"/>
      <point x="998" y="720" type="line"/>
      <point x="819" y="720" type="line"/>
    </contour>
  </outline>
</glyph>
<glyph name="W" format="1">
  <advance width="1179"/>
  <unicode hex="0057"/>
  <outline>
    <contour>
      <point x="972" y="720" type="line"/>
      <point x="929" y="603"/>
      <point x="883" y="474"/>
      <point x="840" y="358" type="curve" smooth="yes"/>
      <point x="815" y="291" type="line"/>
      <point x="657" y="720" type="line"/>
      <point x="514" y="720" type="line"/>
      <point x="471" y="603"/>
      <point x="425" y="474"/>
      <point x="382" y="358" type="curve" smooth="yes"/>
      <point x="357" y="291" type="line"/>
      <point x="200" y="720" type="line"/>
      <point x="35" y="720" type="line"/>
      <point x="297" y="0" type="line"/>
      <point x="416" y="0" type="line"/>
      <point x="448" y="91"/>
      <point x="487" y="194"/>
      <point x="521" y="287" type="curve" smooth="yes"/>
      <point x="585" y="463" type="line"/>
      <point x="755" y="0" type="line"/>
      <point x="874" y="0" type="line"/>
      <point x="1136" y="720" type="line"/>
    </contour>
  </outline>
</glyph>
<glyph name="X" format="1">
  <advance width="812"/>
  <unicode hex="0058"/>
  <outline>
    <contour>
      <point x="605" y="720" type="line"/>
      <point x="543" y="644"/>
      <point x="461" y="551"/>
      <point x="407" y="483" type="curve"/>
      <point x="207" y="720" type="line"/>
      <point x="46" y="720" type="line"/>
      <point x="46" y="667" type="line"/>
      <point x="131" y="567"/>
      <point x="219" y="461"/>
      <point x="303" y="360" type="curve"/>
      <point x="46" y="53" type="line"/>
      <point x="46" y="0" type="line"/>
      <point x="207" y="0" type="line"/>
      <point x="268" y="75"/>
      <point x="350" y="169"/>
      <point x="405" y="236" type="curve"/>
      <point x="605" y="0" type="line"/>
      <point x="766" y="0" type="line"/>
      <point x="766" y="54" type="line"/>
      <point x="508" y="360" type="line"/>
      <point x="766" y="667" type="line"/>
      <point x="766" y="720" type="line"/>
    </contour>
  </outline>
</glyph>
<glyph name="Z" format="1">
  <advance width="821"/>
  <unicode hex="005A"/>
  <outline>
    <contour>
      <point x="51" y="564" type="line"/>
      <point x="533" y="564" type="line"/>
      <point x="51" y="159" type="line"/>
      <point x="51" y="0" type="line"/>
      <point x="771" y="0" type="line"/>
      <point x="771" y="156" type="line"/>
      <point x="289" y="156" type="line"/>
      <point x="771" y="561" type="line"/>
      <point x="771" y="720" type="line"/>
      <point x="51" y="720" type="line"/>
    </contour>
  </outline>
</glyph>
<glyph name="backslash" format="1">
  <advance width="520"/>
  <unicode hex="005C"/>
  <outline>
    <contour>
      <point x="5" y="720" type="line"/>
      <point x="5" y="566" type="line"/>
      <point x="466" y="0" type="line"/>
      <point x="521" y="0" type="line"/>
      <point x="521" y="154" type="line"/>
      <point x="60" y="720" type="line"/>
    </contour>
  </outline>
</glyph>
<glyph name="bracketright" format="1">
  <advance width="276"/>
  <unicode hex="005D"/>
  <outline>
    <contour>
      <point x="51" y="567" type="line"/>
      <point x="108" y="567" type="line"/>
      <point x="108" y="153" type="line"/>
      <point x="51" y="153" type="line"/>
      <point x="51" y="0" type="line"/>
      <point x="262" y="0" type="line"/>
      <point x="262" y="720" type="line"/>
      <point x="51" y="720" type="line"/>
    </contour>
  </outline>
</glyph>
<glyph name="underscore" format="1">
  <advance width="828"/>
  <unicode hex="005F"/>
  <outline>
    <contour>
      <point x="761" y="-2" type="line"/>
      <point x="54" y="-2" type="line"/>
      <point x="54" y="-155" type="line"/>
      <point x="761" y="-155" type="line"/>
    </contour>
  </outline>
</glyph>
<glyph name="grave" format="1">
  <advance width="272"/>
  <unicode hex="0060"/>
  <outline>
    <contour>
      <point x="189" y="950" type="line"/>
      <point x="32" y="950" type="line"/>
      <point x="83" y="747" type="line"/>
      <point x="240" y="747" type="line"/>
    </contour>
  </outline>
</glyph>
<glyph name="b" format="1">
  <advance width="667"/>
  <unicode hex="0062"/>
  <outline>
    <contour>
      <point x="207" y="580" type="line"/>
      <point x="207" y="770" type="line"/>
      <point x="54" y="770" type="line"/>
      <point x="54" y="0" type="line"/>
      <point x="497" y="0" type="line" smooth="yes"/>
      <point x="577" y="0"/>
      <point x="642" y="66"/>
      <point x="642" y="145" type="curve" smooth="yes"/>
      <point x="642" y="435" type="line" smooth="yes"/>
      <point x="642" y="514"/>
      <point x="577" y="580"/>
      <point x="497" y="580" type="curve" smooth="yes"/>
    </contour>
    <contour>
      <point x="207" y="427" type="line"/>
      <point x="489" y="427" type="line"/>
      <point x="489" y="153" type="line"/>
      <point x="207" y="153" type="line"/>
    </contour>
  </outline>
</glyph>
<glyph name="c" format="1">
  <advance width="695"/>
  <unicode hex="0063"/>
  <outline>
    <contour>
      <point x="638" y="427" type="line"/>
      <point x="638" y="580" type="line"/>
      <point x="196" y="580" type="line" smooth="yes"/>
      <point x="117" y="580"/>
      <point x="51" y="514"/>
      <point x="51" y="435" type="curve" smooth="yes"/>
      <point x="51" y="145" type="line" smooth="yes"/>
      <point x="51" y="66"/>
      <point x="117" y="0"/>
      <point x="196" y="0" type="curve" smooth="yes"/>
      <point x="639" y="0" type="line"/>
      <point x="639" y="153" type="line"/>
      <point x="204" y="153" type="line"/>
      <point x="204" y="427" type="line"/>
    </contour>
  </outline>
</glyph>
<glyph name="d" format="1">
  <advance width="667"/>
  <unicode hex="0064"/>
  <outline>
    <contour>
      <point x="459" y="770" type="line"/>
      <point x="459" y="580" type="line"/>
      <point x="168" y="580" type="line" smooth="yes"/>
      <point x="88" y="580"/>
      <point x="23" y="514"/>
      <point x="23" y="435" type="curve" smooth="yes"/>
      <point x="23" y="145" type="line" smooth="yes"/>
      <point x="23" y="66"/>
      <point x="88" y="0"/>
      <point x="168" y="0" type="curve" smooth="yes"/>
      <point x="612" y="0" type="line"/>
      <point x="612" y="770" type="line"/>
    </contour>
    <contour>
      <point x="177" y="427" type="line"/>
      <point x="459" y="427" type="line"/>
      <point x="459" y="153" type="line"/>
      <point x="177" y="153" type="line"/>
    </contour>
  </outline>
</glyph>
<glyph name="e" format="1">
  <advance width="692"/>
  <unicode hex="0065"/>
  <outline>
    <contour>
      <point x="196" y="580" type="line" smooth="yes"/>
      <point x="117" y="580"/>
      <point x="51" y="514"/>
      <point x="51" y="435" type="curve" smooth="yes"/>
      <point x="51" y="145" type="line" smooth="yes"/>
      <point x="51" y="66"/>
      <point x="117" y="0"/>
      <point x="196" y="0" type="curve" smooth="yes"/>
      <point x="639" y="0" type="line"/>
      <point x="639" y="153" type="line"/>
      <point x="204" y="153" type="line"/>
      <point x="204" y="213" type="line"/>
      <point x="639" y="213" type="line"/>
      <point x="639" y="435" type="line" smooth="yes"/>
      <point x="639" y="514"/>
      <point x="574" y="580"/>
      <point x="494" y="580" type="curve" smooth="yes"/>
    </contour>
    <contour>
      <point x="204" y="347" type="line"/>
      <point x="204" y="427" type="line"/>
      <point x="486" y="427" type="line"/>
      <point x="486" y="347" type="line"/>
    </contour>
  </outline>
</glyph>
<glyph name="f" format="1">
  <advance width="440"/>
  <unicode hex="0066"/>
  <outline>
    <contour>
      <point x="421" y="616" type="line"/>
      <point x="421" y="770" type="line"/>
      <point x="199" y="770" type="line" smooth="yes"/>
      <point x="118" y="770"/>
      <point x="53" y="704"/>
      <point x="53" y="625" type="curve" smooth="yes"/>
      <point x="53" y="0" type="line"/>
      <point x="206" y="0" type="line"/>
      <point x="206" y="427" type="line"/>
      <point x="421" y="427" type="line"/>
      <point x="421" y="580" type="line"/>
      <point x="206" y="580" type="line"/>
      <point x="206" y="616" type="line"/>
    </contour>
  </outline>
</glyph>
<glyph name="g" format="1">
  <advance width="683"/>
  <unicode hex="0067"/>
  <outline>
    <contour>
      <point x="630" y="435" type="line" smooth="yes"/>
      <point x="630" y="514"/>
      <point x="565" y="580"/>
      <point x="485" y="580" type="curve" smooth="yes"/>
      <point x="187" y="580" type="line" smooth="yes"/>
      <point x="107" y="580"/>
      <point x="41" y="514"/>
      <point x="41" y="435" type="curve" smooth="yes"/>
      <point x="41" y="145" type="line" smooth="yes"/>
      <point x="41" y="66"/>
      <point x="107" y="0"/>
      <point x="187" y="0" type="curve" smooth="yes"/>
      <point x="477" y="0" type="line"/>
      <point x="477" y="-75" type="line"/>
      <point x="133" y="-75" type="line"/>
      <point x="133" y="-229" type="line"/>
      <point x="485" y="-229" type="line" smooth="yes"/>
      <point x="565" y="-229"/>
      <point x="630" y="-164"/>
      <point x="630" y="-84" type="curve" smooth="yes"/>
    </contour>
    <contour>
      <point x="194" y="427" type="line"/>
      <point x="477" y="427" type="line"/>
      <point x="477" y="153" type="line"/>
      <point x="194" y="153" type="line"/>
    </contour>
  </outline>
</glyph>
<glyph name="h" format="1">
  <advance width="668"/>
  <unicode hex="0068"/>
  <outline>
    <contour>
      <point x="207" y="580" type="line"/>
      <point x="207" y="770" type="line"/>
      <point x="54" y="770" type="line"/>
      <point x="54" y="0" type="line"/>
      <point x="207" y="0" type="line"/>
      <point x="207" y="427" type="line"/>
      <point x="489" y="427" type="line"/>
      <point x="489" y="0" type="line"/>
      <point x="642" y="0" type="line"/>
      <point x="642" y="435" type="line" smooth="yes"/>
      <point x="642" y="514"/>
      <point x="576" y="580"/>
      <point x="497" y="580" type="curve" smooth="yes"/>
    </contour>
  </outline>
</glyph>
<glyph name="i" format="1">
  <advance width="229"/>
  <unicode hex="0069"/>
  <outline>
    <contour>
      <point x="52" y="0" type="line"/>
      <point x="205" y="0" type="line"/>
      <point x="205" y="580" type="line"/>
      <point x="52" y="580" type="line"/>
    </contour>
    <contour>
      <point x="52" y="770" type="line"/>
      <point x="52" y="616" type="line"/>
      <point x="205" y="616" type="line"/>
      <point x="205" y="770" type="line"/>
    </contour>
  </outline>
</glyph>
<glyph name="j" format="1">
  <advance width="239"/>
  <unicode hex="006A"/>
  <outline>
    <contour>
      <point x="58" y="770" type="line"/>
      <point x="58" y="616" type="line"/>
      <point x="211" y="616" type="line"/>
      <point x="211" y="770" type="line"/>
    </contour>
    <contour>
      <point x="211" y="580" type="line"/>
      <point x="58" y="580" type="line"/>
      <point x="58" y="-54" type="line"/>
      <point x="-187" y="-54" type="line"/>
      <point x="-187" y="-208" type="line"/>
      <point x="65" y="-208" type="line" smooth="yes"/>
      <point x="145" y="-208"/>
      <point x="211" y="-143"/>
      <point x="211" y="-63" type="curve" smooth="yes"/>
    </contour>
  </outline>
</glyph>
<glyph name="l" format="1">
  <advance width="337"/>
  <unicode hex="006C"/>
  <outline>
    <contour>
      <point x="52" y="771" type="line"/>
      <point x="52" y="145" type="line" smooth="yes"/>
      <point x="52" y="66"/>
      <point x="118" y="0"/>
      <point x="197" y="0" type="curve" smooth="yes"/>
      <point x="323" y="0" type="line"/>
      <point x="323" y="153" type="line"/>
      <point x="206" y="153" type="line"/>
      <point x="206" y="771" type="line"/>
    </contour>
  </outline>
</glyph>
<glyph name="m" format="1">
  <advance width="978"/>
  <unicode hex="006D"/>
  <outline>
    <contour>
      <point x="54" y="580" type="line"/>
      <point x="54" y="0" type="line"/>
      <point x="207" y="0" type="line"/>
      <point x="207" y="427" type="line"/>
      <point x="399" y="427" type="line"/>
      <point x="399" y="0" type="line"/>
      <point x="553" y="0" type="line"/>
      <point x="553" y="427" type="line"/>
      <point x="745" y="427" type="line"/>
      <point x="745" y="0" type="line"/>
      <point x="897" y="0" type="line"/>
      <point x="897" y="435" type="line" smooth="yes"/>
      <point x="897" y="514"/>
      <point x="832" y="580"/>
      <point x="752" y="580" type="curve" smooth="yes"/>
    </contour>
  </outline>
</glyph>
<glyph name="n" format="1">
  <advance width="696"/>
  <unicode hex="006E"/>
  <outline>
    <contour>
      <point x="54" y="580" type="line"/>
      <point x="54" y="0" type="line"/>
      <point x="207" y="0" type="line"/>
      <point x="207" y="427" type="line"/>
      <point x="489" y="427" type="line"/>
      <point x="489" y="0" type="line"/>
      <point x="642" y="0" type="line"/>
      <point x="642" y="435" type="line" smooth="yes"/>
      <point x="642" y="514"/>
      <point x="577" y="580"/>
      <point x="497" y="580" type="curve" smooth="yes"/>
    </contour>
  </outline>
</glyph>
<glyph name="p" format="1">
  <advance width="664"/>
  <unicode hex="0070"/>
  <outline>
    <contour>
      <point x="54" y="580" type="line"/>
      <point x="54" y="-230" type="line"/>
      <point x="207" y="-230" type="line"/>
      <point x="207" y="0" type="line"/>
      <point x="497" y="0" type="line" smooth="yes"/>
      <point x="577" y="0"/>
      <point x="642" y="66"/>
      <point x="642" y="145" type="curve" smooth="yes"/>
      <point x="642" y="435" type="line" smooth="yes"/>
      <point x="642" y="514"/>
      <point x="577" y="580"/>
      <point x="497" y="580" type="curve" smooth="yes"/>
    </contour>
    <contour>
      <point x="207" y="427" type="line"/>
      <point x="489" y="427" type="line"/>
      <point x="489" y="153" type="line"/>
      <point x="207" y="153" type="line"/>
    </contour>
  </outline>
</glyph>
<glyph name="q" format="1">
  <advance width="664"/>
  <unicode hex="0071"/>
  <outline>
    <contour>
      <point x="20" y="145" type="line" smooth="yes"/>
      <point x="20" y="66"/>
      <point x="85" y="0"/>
      <point x="165" y="0" type="curve" smooth="yes"/>
      <point x="456" y="0" type="line"/>
      <point x="456" y="-230" type="line"/>
      <point x="609" y="-230" type="line"/>
      <point x="609" y="580" type="line"/>
      <point x="165" y="580" type="line" smooth="yes"/>
      <point x="85" y="580"/>
      <point x="20" y="514"/>
      <point x="20" y="435" type="curve" smooth="yes"/>
    </contour>
    <contour>
      <point x="174" y="427" type="line"/>
      <point x="456" y="427" type="line"/>
      <point x="456" y="153" type="line"/>
      <point x="174" y="153" type="line"/>
    </contour>
  </outline>
</glyph>
<glyph name="r" format="1">
  <advance width="526"/>
  <unicode hex="0072"/>
  <outline>
    <contour>
      <point x="198" y="580" type="line" smooth="yes"/>
      <point x="118" y="580"/>
      <point x="52" y="514"/>
      <point x="52" y="435" type="curve" smooth="yes"/>
      <point x="52" y="0" type="line"/>
      <point x="205" y="0" type="line"/>
      <point x="205" y="427" type="line"/>
      <point x="518" y="427" type="line"/>
      <point x="518" y="580" type="line"/>
    </contour>
  </outline>
</glyph>
<glyph name="s" format="1">
  <advance width="686"/>
  <unicode hex="0073"/>
  <outline>
    <contour>
      <point x="637" y="435" type="line" smooth="yes"/>
      <point x="637" y="514"/>
      <point x="572" y="580"/>
      <point x="491" y="580" type="curve" smooth="yes"/>
      <point x="193" y="580" type="line" smooth="yes"/>
      <point x="114" y="580"/>
      <point x="48" y="514"/>
      <point x="48" y="435" type="curve" smooth="yes"/>
      <point x="48" y="358" type="line" smooth="yes"/>
      <point x="48" y="279"/>
      <point x="114" y="213"/>
      <point x="193" y="213" type="curve" smooth="yes"/>
      <point x="483" y="213" type="line"/>
      <point x="483" y="153" type="line"/>
      <point x="201" y="153" type="line"/>
      <point x="201" y="174" type="line"/>
      <point x="48" y="174" type="line"/>
      <point x="48" y="145" type="line" smooth="yes"/>
      <point x="48" y="66"/>
      <point x="114" y="0"/>
      <point x="193" y="0" type="curve" smooth="yes"/>
      <point x="491" y="0" type="line" smooth="yes"/>
      <point x="572" y="0"/>
      <point x="637" y="66"/>
      <point x="637" y="145" type="curve" smooth="yes"/>
      <point x="637" y="222" type="line" smooth="yes"/>
      <point x="637" y="301"/>
      <point x="572" y="367"/>
      <point x="491" y="367" type="curve" smooth="yes"/>
      <point x="201" y="367" type="line"/>
      <point x="201" y="427" type="line"/>
      <point x="483" y="427" type="line"/>
      <point x="483" y="406" type="line"/>
      <point x="637" y="406" type="line"/>
    </contour>
  </outline>
</glyph>
<glyph name="t" format="1">
  <advance width="451"/>
  <unicode hex="0074"/>
  <outline>
    <contour>
      <point x="421" y="427" type="line"/>
      <point x="421" y="580" type="line"/>
      <point x="206" y="580" type="line"/>
      <point x="206" y="752" type="line"/>
      <point x="53" y="752" type="line"/>
      <point x="53" y="145" type="line" smooth="yes"/>
      <point x="53" y="66"/>
      <point x="118" y="0"/>
      <point x="199" y="0" type="curve" smooth="yes"/>
      <point x="421" y="0" type="line"/>
      <point x="421" y="153" type="line"/>
      <point x="206" y="153" type="line"/>
      <point x="206" y="427" type="line"/>
    </contour>
  </outline>
</glyph>
<glyph name="v" format="1">
  <advance width="790"/>
  <unicode hex="0076"/>
  <outline>
    <contour>
      <point x="615" y="580" type="line"/>
      <point x="406" y="195" type="line"/>
      <point x="197" y="580" type="line"/>
      <point x="21" y="580" type="line"/>
      <point x="340" y="0" type="line"/>
      <point x="471" y="0" type="line"/>
      <point x="791" y="580" type="line"/>
    </contour>
  </outline>
</glyph>
<glyph name="w" format="1">
  <advance width="1053"/>
  <unicode hex="0077"/>
  <outline>
    <contour>
      <point x="857" y="580" type="line"/>
      <point x="821" y="483"/>
      <point x="780" y="375"/>
      <point x="741" y="275" type="curve"/>
      <point x="601" y="580" type="line"/>
      <point x="453" y="580" type="line"/>
      <point x="427" y="517"/>
      <point x="393" y="444"/>
      <point x="365" y="379" type="curve" smooth="yes"/>
      <point x="322" y="279" type="line"/>
      <point x="197" y="580" type="line"/>
      <point x="35" y="580" type="line"/>
      <point x="263" y="0" type="line"/>
      <point x="378" y="0" type="line"/>
      <point x="528" y="346" type="line"/>
      <point x="685" y="0" type="line"/>
      <point x="801" y="0" type="line"/>
      <point x="1019" y="580" type="line"/>
    </contour>
  </outline>
</glyph>
<glyph name="x" format="1">
  <advance width="692"/>
  <unicode hex="0078"/>
  <outline>
    <contour>
      <point x="486" y="580" type="line"/>
      <point x="442" y="527"/>
      <point x="391" y="466"/>
      <point x="345" y="412" type="curve"/>
      <point x="203" y="580" type="line"/>
      <point x="46" y="580" type="line"/>
      <point x="46" y="530" type="line"/>
      <point x="246" y="295" type="line"/>
      <point x="46" y="50" type="line"/>
      <point x="46" y="0" type="line"/>
      <point x="203" y="0" type="line"/>
      <point x="345" y="174" type="line"/>
      <point x="487" y="0" type="line"/>
      <point x="644" y="0" type="line"/>
      <point x="644" y="50" type="line"/>
      <point x="554" y="161" type="line" smooth="yes"/>
      <point x="518" y="205"/>
      <point x="480" y="250"/>
      <point x="444" y="295" type="curve"/>
      <point x="644" y="530" type="line"/>
      <point x="644" y="580" type="line"/>
    </contour>
  </outline>
</glyph>
<glyph name="y" format="1">
  <advance width="685"/>
  <unicode hex="0079"/>
  <outline>
    <contour>
      <point x="631" y="578" type="line"/>
      <point x="478" y="578" type="line"/>
      <point x="478" y="153" type="line"/>
      <point x="195" y="153" type="line"/>
      <point x="195" y="578" type="line"/>
      <point x="42" y="578" type="line"/>
      <point x="42" y="145" type="line" smooth="yes"/>
      <point x="42" y="66"/>
      <point x="108" y="0"/>
      <point x="188" y="0" type="curve" smooth="yes"/>
      <point x="478" y="0" type="line"/>
      <point x="478" y="-54" type="line"/>
      <point x="134" y="-54" type="line"/>
      <point x="134" y="-208" type="line"/>
      <point x="486" y="-208" type="line" smooth="yes"/>
      <point x="566" y="-208"/>
      <point x="631" y="-143"/>
      <point x="631" y="-63" type="curve" smooth="yes"/>
    </contour>
  </outline>
</glyph>
<glyph name="braceleft" format="1">
  <advance width="289"/>
  <unicode hex="007B"/>
  <outline>
    <contour>
      <point x="216" y="331" type="line"/>
      <point x="194" y="349" type="line"/>
      <point x="194" y="348" type="line"/>
      <point x="171" y="368" type="line"/>
      <point x="216" y="406" type="line"/>
      <point x="216" y="567" type="line"/>
      <point x="274" y="567" type="line"/>
      <point x="274" y="720" type="line"/>
      <point x="209" y="720" type="line" smooth="yes"/>
      <point x="128" y="720"/>
      <point x="63" y="655"/>
      <point x="63" y="575" type="curve" smooth="yes"/>
      <point x="63" y="456" type="line"/>
      <point x="23" y="434" type="line"/>
      <point x="23" y="303" type="line"/>
      <point x="29" y="301"/>
      <point x="41" y="293"/>
      <point x="48" y="290" type="curve"/>
      <point x="47" y="290" type="line"/>
      <point x="63" y="280" type="line"/>
      <point x="63" y="145" type="line" smooth="yes"/>
      <point x="63" y="66"/>
      <point x="128" y="0"/>
      <point x="209" y="0" type="curve" smooth="yes"/>
      <point x="274" y="0" type="line"/>
      <point x="274" y="153" type="line"/>
      <point x="216" y="153" type="line"/>
    </contour>
  </outline>
</glyph>
<glyph name="bar" format="1">
  <advance width="214"/>
  <unicode hex="007C"/>
  <outline>
    <contour>
      <point x="54" y="-99" type="line"/>
      <point x="207" y="-99" type="line"/>
      <point x="207" y="804" type="line"/>
      <point x="54" y="804" type="line"/>
    </contour>
  </outline>
</glyph>
<glyph name="braceright" format="1">
  <advance width="289"/>
  <unicode hex="007D"/>
  <outline>
    <contour>
      <point x="51" y="0" type="line"/>
      <point x="116" y="0" type="line" smooth="yes"/>
      <point x="196" y="0"/>
      <point x="262" y="66"/>
      <point x="262" y="145" type="curve" smooth="yes"/>
      <point x="262" y="280" type="line"/>
      <point x="302" y="305" type="line"/>
      <point x="302" y="433" type="line"/>
      <point x="262" y="457" type="line"/>
      <point x="262" y="575" type="line" smooth="yes"/>
      <point x="262" y="655"/>
      <point x="196" y="720"/>
      <point x="116" y="720" type="curve" smooth="yes"/>
      <point x="51" y="720" type="line"/>
      <point x="51" y="567" type="line"/>
      <point x="109" y="567" type="line"/>
      <point x="109" y="406" type="line"/>
      <point x="154" y="368" type="line"/>
      <point x="109" y="330" type="line"/>
      <point x="109" y="153" type="line"/>
      <point x="51" y="153" type="line"/>
    </contour>
  </outline>
</glyph>
<glyph name="asciitilde" format="1">
  <advance width="404"/>
  <unicode hex="007E"/>
  <outline>
    <contour>
      <point x="236" y="336"/>
      <point x="188" y="387"/>
      <point x="119" y="387" type="curve" smooth="yes"/>
      <point x="89" y="387"/>
      <point x="54" y="377"/>
      <point x="24" y="364" type="curve"/>
      <point x="24" y="232" type="line"/>
      <point x="71" y="268"/>
      <point x="97" y="271"/>
      <point x="113" y="271" type="curve" smooth="yes"/>
      <point x="181" y="271"/>
      <point x="229" y="210"/>
      <point x="300" y="210" type="curve" smooth="yes"/>
      <point x="334" y="210"/>
      <point x="368" y="222"/>
      <point x="399" y="235" type="curve"/>
      <point x="399" y="361" type="line"/>
      <point x="354" y="332"/>
      <point x="325" y="325"/>
      <point x="303" y="325" type="curve"/>
    </contour>
  </outline>
</glyph>
<glyph name="exclamdown" format="1">
  <advance width="210"/>
  <unicode hex="00A1"/>
  <outline>
    <contour>
      <point x="206" y="706" type="line"/>
      <point x="53" y="706" type="line"/>
      <point x="53" y="553" type="line"/>
      <point x="206" y="553" type="line"/>
    </contour>
    <contour>
      <point x="206" y="0" type="line"/>
      <point x="206" y="526" type="line"/>
      <point x="53" y="526" type="line"/>
      <point x="53" y="0" type="line"/>
    </contour>
  </outline>
</glyph>
<glyph name="cent" format="1">
  <advance width="636"/>
  <unicode hex="00A2"/>
  <outline>
    <contour>
      <point x="621" y="435" type="line"/>
      <point x="621" y="590" type="line"/>
      <point x="445" y="590" type="line"/>
      <point x="445" y="705" type="line"/>
      <point x="291" y="705" type="line"/>
      <point x="291" y="590" type="line"/>
      <point x="179" y="590" type="line" smooth="yes"/>
      <point x="99" y="590"/>
      <point x="33" y="524"/>
      <point x="33" y="444" type="curve" smooth="yes"/>
      <point x="33" y="145" type="line" smooth="yes"/>
      <point x="33" y="66"/>
      <point x="99" y="0"/>
      <point x="179" y="0" type="curve" smooth="yes"/>
      <point x="291" y="0" type="line"/>
      <point x="291" y="-99" type="line"/>
      <point x="445" y="-99" type="line"/>
      <point x="445" y="0" type="line"/>
      <point x="621" y="0" type="line"/>
      <point x="621" y="153" type="line"/>
      <point x="445" y="153" type="line"/>
      <point x="445" y="435" type="line"/>
    </contour>
    <contour>
      <point x="291" y="153" type="line"/>
      <point x="186" y="153" type="line"/>
      <point x="186" y="435" type="line"/>
      <point x="291" y="435" type="line"/>
    </contour>
  </outline>
</glyph>
<glyph name="sterling" format="1">
  <advance width="734"/>
  <unicode hex="00A3"/>
  <outline>
    <contour>
      <point x="680" y="519" type="line"/>
      <point x="680" y="575" type="line" smooth="yes"/>
      <point x="680" y="655"/>
      <point x="615" y="720"/>
      <point x="535" y="720" type="curve" smooth="yes"/>
      <point x="274" y="720" type="line" smooth="yes"/>
      <point x="195" y="720"/>
      <point x="129" y="655"/>
      <point x="129" y="575" type="curve" smooth="yes"/>
      <point x="129" y="430" type="line"/>
      <point x="39" y="430" type="line"/>
      <point x="39" y="277" type="line"/>
      <point x="129" y="277" type="line"/>
      <point x="129" y="153" type="line"/>
      <point x="39" y="153" type="line"/>
      <point x="39" y="0" type="line"/>
      <point x="680" y="0" type="line"/>
      <point x="680" y="153" type="line"/>
      <point x="282" y="153" type="line"/>
      <point x="282" y="277" type="line"/>
      <point x="584" y="277" type="line"/>
      <point x="584" y="430" type="line"/>
      <point x="282" y="430" type="line"/>
      <point x="282" y="567" type="line"/>
      <point x="526" y="567" type="line"/>
      <point x="526" y="519" type="line"/>
    </contour>
  </outline>
</glyph>
<glyph name="dieresis" format="1">
  <advance width="385"/>
  <unicode hex="00A8"/>
  <outline>
    <contour>
      <point x="421" y="901" type="line"/>
      <point x="267" y="901" type="line"/>
      <point x="267" y="747" type="line"/>
      <point x="421" y="747" type="line"/>
    </contour>
    <contour>
      <point x="207" y="901" type="line"/>
      <point x="54" y="901" type="line"/>
      <point x="54" y="747" type="line"/>
      <point x="207" y="747" type="line"/>
    </contour>
  </outline>
</glyph>
<glyph name="degree" format="1">
  <advance width="439"/>
  <unicode hex="00B0"/>
  <outline>
    <contour>
      <point x="191" y="706" type="line" smooth="yes"/>
      <point x="111" y="706"/>
      <point x="45" y="641"/>
      <point x="45" y="561" type="curve" smooth="yes"/>
      <point x="45" y="489" type="line" smooth="yes"/>
      <point x="45" y="409"/>
      <point x="111" y="343"/>
      <point x="191" y="343" type="curve" smooth="yes"/>
      <point x="272" y="343" type="line" smooth="yes"/>
      <point x="351" y="343"/>
      <point x="417" y="409"/>
      <point x="417" y="489" type="curve" smooth="yes"/>
      <point x="417" y="561" type="line" smooth="yes"/>
      <point x="417" y="641"/>
      <point x="351" y="706"/>
      <point x="272" y="706" type="curve" smooth="yes"/>
    </contour>
    <contour>
      <point x="180" y="571" type="line"/>
      <point x="282" y="571" type="line"/>
      <point x="282" y="479" type="line"/>
      <point x="180" y="479" type="line"/>
    </contour>
  </outline>
</glyph>
<glyph name="acute" format="1">
  <advance width="213"/>
  <unicode hex="00B4"/>
  <outline>
    <contour>
      <point x="33" y="747" type="line"/>
      <point x="190" y="747" type="line"/>
      <point x="241" y="950" type="line"/>
      <point x="84" y="950" type="line"/>
    </contour>
  </outline>
</glyph>
<glyph name="paragraph" format="1">
  <advance width="833"/>
  <unicode hex="00B6"/>
  <outline>
    <contour>
      <point x="56" y="377" type="line" smooth="yes"/>
      <point x="56" y="299"/>
      <point x="122" y="232"/>
      <point x="202" y="232" type="curve" smooth="yes"/>
      <point x="410" y="232" type="line"/>
      <point x="410" y="0" type="line"/>
      <point x="564" y="0" type="line"/>
      <point x="564" y="232" type="line"/>
      <point x="630" y="232" type="line"/>
      <point x="630" y="0" type="line"/>
      <point x="783" y="0" type="line"/>
      <point x="783" y="706" type="line"/>
      <point x="202" y="706" type="line" smooth="yes"/>
      <point x="122" y="706"/>
      <point x="56" y="639"/>
      <point x="56" y="560" type="curve" smooth="yes"/>
    </contour>
    <contour>
      <point x="410" y="552" type="line"/>
      <point x="410" y="386" type="line"/>
      <point x="209" y="386" type="line"/>
      <point x="209" y="552" type="line"/>
    </contour>
    <contour>
      <point x="564" y="552" type="line"/>
      <point x="630" y="552" type="line"/>
      <point x="630" y="386" type="line"/>
      <point x="564" y="386" type="line"/>
    </contour>
  </outline>
</glyph>
<glyph name="cedilla" format="1">
  <advance width="213"/>
  <unicode hex="00B8"/>
  <outline>
    <contour>
      <point x="33" y="-146" type="line"/>
      <point x="190" y="-146" type="line"/>
      <point x="241" y="56" type="line"/>
      <point x="84" y="56" type="line"/>
    </contour>
  </outline>
</glyph>
<glyph name="questiondown" format="1">
  <advance width="675"/>
  <unicode hex="00BF"/>
  <outline>
    <contour>
      <point x="642" y="0" type="line"/>
      <point x="642" y="153" type="line"/>
      <point x="172" y="153" type="line"/>
      <point x="172" y="303" type="line"/>
      <point x="398" y="303" type="line" smooth="yes"/>
      <point x="478" y="303"/>
      <point x="544" y="369"/>
      <point x="544" y="449" type="curve" smooth="yes"/>
      <point x="544" y="532" type="line"/>
      <point x="391" y="532" type="line"/>
      <point x="391" y="457" type="line"/>
      <point x="165" y="457" type="line" smooth="yes"/>
      <point x="85" y="457"/>
      <point x="19" y="392"/>
      <point x="19" y="312" type="curve" smooth="yes"/>
      <point x="19" y="145" type="line" smooth="yes"/>
      <point x="19" y="66"/>
      <point x="85" y="0"/>
      <point x="165" y="0" type="curve" smooth="yes"/>
    </contour>
    <contour>
      <point x="544" y="706" type="line"/>
      <point x="391" y="706" type="line"/>
      <point x="391" y="553" type="line"/>
      <point x="544" y="553" type="line"/>
    </contour>
  </outline>
</glyph>
<glyph name="Agrave" format="1">
  <advance width="836"/>
  <unicode hex="00C0"/>
  <outline>
    <contour>
      <point x="206" y="720" type="line" smooth="yes"/>
      <point x="124" y="720"/>
      <point x="58" y="654"/>
      <point x="58" y="572" type="curve" smooth="yes"/>
      <point x="58" y="0" type="line"/>
      <point x="213" y="0" type="line"/>
      <point x="213" y="232" type="line"/>
      <point x="621" y="232" type="line"/>
      <point x="621" y="0" type="line"/>
      <point x="778" y="0" type="line"/>
      <point x="778" y="572" type="line" smooth="yes"/>
      <point x="778" y="654"/>
      <point x="711" y="720"/>
      <point x="629" y="720" type="curve" smooth="yes"/>
    </contour>
    <contour>
      <point x="213" y="388" type="line"/>
      <point x="213" y="564" type="line"/>
      <point x="621" y="564" type="line"/>
      <point x="621" y="388" type="line"/>
    </contour>
    <contour>
      <point x="451" y="973" type="line"/>
      <point x="294" y="973" type="line"/>
      <point x="345" y="770" type="line"/>
      <point x="502" y="770" type="line"/>
    </contour>
  </outline>
</glyph>
<glyph name="Aacute" format="1">
  <advance width="836"/>
  <unicode hex="00C1"/>
  <outline>
    <contour>
      <point x="206" y="720" type="line" smooth="yes"/>
      <point x="124" y="720"/>
      <point x="58" y="654"/>
      <point x="58" y="572" type="curve" smooth="yes"/>
      <point x="58" y="0" type="line"/>
      <point x="213" y="0" type="line"/>
      <point x="213" y="232" type="line"/>
      <point x="621" y="232" type="line"/>
      <point x="621" y="0" type="line"/>
      <point x="778" y="0" type="line"/>
      <point x="778" y="572" type="line" smooth="yes"/>
      <point x="778" y="654"/>
      <point x="711" y="720"/>
      <point x="629" y="720" type="curve" smooth="yes"/>
    </contour>
    <contour>
      <point x="213" y="388" type="line"/>
      <point x="213" y="564" type="line"/>
      <point x="621" y="564" type="line"/>
      <point x="621" y="388" type="line"/>
    </contour>
    <contour>
      <point x="334" y="769" type="line"/>
      <point x="491" y="769" type="line"/>
      <point x="542" y="972" type="line"/>
      <point x="385" y="972" type="line"/>
    </contour>
  </outline>
</glyph>
<glyph name="Atilde" format="1">
  <advance width="836"/>
  <unicode hex="00C3"/>
  <outline>
    <contour>
      <point x="206" y="720" type="line" smooth="yes"/>
      <point x="124" y="720"/>
      <point x="58" y="654"/>
      <point x="58" y="572" type="curve" smooth="yes"/>
      <point x="58" y="0" type="line"/>
      <point x="213" y="0" type="line"/>
      <point x="213" y="232" type="line"/>
      <point x="621" y="232" type="line"/>
      <point x="621" y="0" type="line"/>
      <point x="778" y="0" type="line"/>
      <point x="778" y="572" type="line" smooth="yes"/>
      <point x="778" y="654"/>
      <point x="711" y="720"/>
      <point x="629" y="720" type="curve" smooth="yes"/>
    </contour>
    <contour>
      <point x="213" y="388" type="line"/>
      <point x="213" y="564" type="line"/>
      <point x="621" y="564" type="line"/>
      <point x="621" y="388" type="line"/>
    </contour>
    <contour>
      <point x="413" y="898"/>
      <point x="367" y="951"/>
      <point x="297" y="951" type="curve" smooth="yes"/>
      <point x="267" y="951"/>
      <point x="232" y="936"/>
      <point x="202" y="924" type="curve"/>
      <point x="202" y="800" type="line"/>
      <point x="248" y="839"/>
      <point x="270" y="836"/>
      <point x="286" y="836" type="curve" smooth="yes"/>
      <point x="297" y="836" type="line" smooth="yes"/>
      <point x="358" y="836"/>
      <point x="407" y="774"/>
      <point x="478" y="774" type="curve" smooth="yes"/>
      <point x="512" y="774"/>
      <point x="546" y="787"/>
      <point x="577" y="800" type="curve"/>
      <point x="577" y="926" type="line"/>
      <point x="532" y="897"/>
      <point x="503" y="889"/>
      <point x="481" y="889" type="curve"/>
    </contour>
  </outline>
</glyph>
<glyph name="Adieresis" format="1">
  <advance width="836"/>
  <unicode hex="00C4"/>
  <outline>
    <contour>
      <point x="206" y="720" type="line" smooth="yes"/>
      <point x="124" y="720"/>
      <point x="58" y="654"/>
      <point x="58" y="572" type="curve" smooth="yes"/>
      <point x="58" y="0" type="line"/>
      <point x="213" y="0" type="line"/>
      <point x="213" y="232" type="line"/>
      <point x="621" y="232" type="line"/>
      <point x="621" y="0" type="line"/>
      <point x="778" y="0" type="line"/>
      <point x="778" y="572" type="line" smooth="yes"/>
      <point x="778" y="654"/>
      <point x="711" y="720"/>
      <point x="629" y="720" type="curve" smooth="yes"/>
    </contour>
    <contour>
      <point x="213" y="388" type="line"/>
      <point x="213" y="564" type="line"/>
      <point x="621" y="564" type="line"/>
      <point x="621" y="388" type="line"/>
    </contour>
    <contour>
      <point x="606" y="924" type="line"/>
      <point x="452" y="924" type="line"/>
      <point x="452" y="770" type="line"/>
      <point x="606" y="770" type="line"/>
    </contour>
    <contour>
      <point x="392" y="924" type="line"/>
      <point x="239" y="924" type="line"/>
      <point x="239" y="770" type="line"/>
      <point x="392" y="770" type="line"/>
    </contour>
  </outline>
</glyph>
<glyph name="Aring" format="1">
  <advance width="836"/>
  <unicode hex="00C5"/>
  <outline>
    <contour>
      <point x="206" y="720" type="line" smooth="yes"/>
      <point x="124" y="720"/>
      <point x="58" y="654"/>
      <point x="58" y="572" type="curve" smooth="yes"/>
      <point x="58" y="0" type="line"/>
      <point x="213" y="0" type="line"/>
      <point x="213" y="232" type="line"/>
      <point x="621" y="232" type="line"/>
      <point x="621" y="0" type="line"/>
      <point x="778" y="0" type="line"/>
      <point x="778" y="572" type="line" smooth="yes"/>
      <point x="778" y="654"/>
      <point x="711" y="720"/>
      <point x="629" y="720" type="curve" smooth="yes"/>
    </contour>
    <contour>
      <point x="213" y="388" type="line"/>
      <point x="213" y="564" type="line"/>
      <point x="621" y="564" type="line"/>
      <point x="621" y="388" type="line"/>
    </contour>
    <contour>
      <point x="377" y="972" type="line" smooth="yes"/>
      <point x="335" y="972"/>
      <point x="300" y="937"/>
      <point x="300" y="896" type="curve" smooth="yes"/>
      <point x="300" y="847" type="line" smooth="yes"/>
      <point x="300" y="806"/>
      <point x="335" y="771"/>
      <point x="377" y="771" type="curve" smooth="yes"/>
      <point x="428" y="771" type="line" smooth="yes"/>
      <point x="470" y="771"/>
      <point x="504" y="806"/>
      <point x="504" y="847" type="curve" smooth="yes"/>
      <point x="504" y="896" type="line" smooth="yes"/>
      <point x="504" y="937"/>
      <point x="470" y="972"/>
      <point x="428" y="972" type="curve" smooth="yes"/>
    </contour>
    <contour>
      <point x="377" y="894" type="line"/>
      <point x="428" y="894" type="line"/>
      <point x="428" y="840" type="line"/>
      <point x="377" y="840" type="line"/>
    </contour>
  </outline>
</glyph>
<glyph name="AE" format="1">
  <advance width="1375"/>
  <unicode hex="00C6"/>
  <outline>
    <contour>
      <point x="774" y="564" type="line"/>
      <point x="1283" y="564" type="line"/>
      <point x="1283" y="720" type="line"/>
      <point x="202" y="720" type="line" smooth="yes"/>
      <point x="121" y="720"/>
      <point x="54" y="654"/>
      <point x="54" y="572" type="curve" smooth="yes"/>
      <point x="54" y="0" type="line"/>
      <point x="211" y="0" type="line"/>
      <point x="211" y="232" type="line"/>
      <point x="619" y="232" type="line"/>
      <point x="619" y="0" type="line"/>
      <point x="1283" y="0" type="line"/>
      <point x="1283" y="156" type="line"/>
      <point x="774" y="156" type="line"/>
      <point x="774" y="282" type="line"/>
      <point x="1183" y="282" type="line"/>
      <point x="1183" y="438" type="line"/>
      <point x="774" y="438" type="line"/>
    </contour>
    <contour>
      <point x="619" y="388" type="line"/>
      <point x="211" y="388" type="line"/>
      <point x="211" y="564" type="line"/>
      <point x="619" y="564" type="line"/>
    </contour>
  </outline>
</glyph>
<glyph name="Egrave" format="1">
  <advance width="766"/>
  <unicode hex="00C8"/>
  <outline>
    <contour>
      <point x="723" y="720" type="line"/>
      <point x="58" y="720" type="line"/>
      <point x="58" y="0" type="line"/>
      <point x="723" y="0" type="line"/>
      <point x="723" y="156" type="line"/>
      <point x="215" y="156" type="line"/>
      <point x="215" y="282" type="line"/>
      <point x="624" y="282" type="line"/>
      <point x="624" y="438" type="line"/>
      <point x="215" y="438" type="line"/>
      <point x="215" y="564" type="line"/>
      <point x="723" y="564" type="line"/>
    </contour>
    <contour>
      <point x="436" y="973" type="line"/>
      <point x="279" y="973" type="line"/>
      <point x="330" y="770" type="line"/>
      <point x="487" y="770" type="line"/>
    </contour>
  </outline>
</glyph>
<glyph name="Eacute" format="1">
  <advance width="766"/>
  <unicode hex="00C9"/>
  <outline>
    <contour>
      <point x="723" y="720" type="line"/>
      <point x="58" y="720" type="line"/>
      <point x="58" y="0" type="line"/>
      <point x="723" y="0" type="line"/>
      <point x="723" y="156" type="line"/>
      <point x="215" y="156" type="line"/>
      <point x="215" y="282" type="line"/>
      <point x="624" y="282" type="line"/>
      <point x="624" y="438" type="line"/>
      <point x="215" y="438" type="line"/>
      <point x="215" y="564" type="line"/>
      <point x="723" y="564" type="line"/>
    </contour>
    <contour>
      <point x="309" y="770" type="line"/>
      <point x="466" y="770" type="line"/>
      <point x="517" y="973" type="line"/>
      <point x="360" y="973" type="line"/>
    </contour>
  </outline>
</glyph>
<glyph name="Ecircumflex" format="1">
  <advance width="766"/>
  <unicode hex="00CA"/>
  <outline>
    <contour>
      <point x="723" y="720" type="line"/>
      <point x="58" y="720" type="line"/>
      <point x="58" y="0" type="line"/>
      <point x="723" y="0" type="line"/>
      <point x="723" y="156" type="line"/>
      <point x="215" y="156" type="line"/>
      <point x="215" y="282" type="line"/>
      <point x="624" y="282" type="line"/>
      <point x="624" y="438" type="line"/>
      <point x="215" y="438" type="line"/>
      <point x="215" y="564" type="line"/>
      <point x="723" y="564" type="line"/>
    </contour>
    <contour>
      <point x="364" y="769" type="line"/>
      <point x="389" y="813" type="line"/>
      <point x="417" y="769" type="line"/>
      <point x="551" y="769" type="line"/>
      <point x="441" y="953" type="line"/>
      <point x="341" y="953" type="line"/>
      <point x="231" y="769" type="line"/>
    </contour>
  </outline>
</glyph>
<glyph name="Edieresis" format="1">
  <advance width="766"/>
  <unicode hex="00CB"/>
  <outline>
    <contour>
      <point x="723" y="720" type="line"/>
      <point x="58" y="720" type="line"/>
      <point x="58" y="0" type="line"/>
      <point x="723" y="0" type="line"/>
      <point x="723" y="156" type="line"/>
      <point x="215" y="156" type="line"/>
      <point x="215" y="282" type="line"/>
      <point x="624" y="282" type="line"/>
      <point x="624" y="438" type="line"/>
      <point x="215" y="438" type="line"/>
      <point x="215" y="564" type="line"/>
      <point x="723" y="564" type="line"/>
    </contour>
    <contour>
      <point x="581" y="924" type="line"/>
      <point x="427" y="924" type="line"/>
      <point x="427" y="770" type="line"/>
      <point x="581" y="770" type="line"/>
    </contour>
    <contour>
      <point x="367" y="924" type="line"/>
      <point x="214" y="924" type="line"/>
      <point x="214" y="770" type="line"/>
      <point x="367" y="770" type="line"/>
    </contour>
  </outline>
</glyph>
<glyph name="Igrave" format="1">
  <advance width="220"/>
  <unicode hex="00CC"/>
  <outline>
    <contour>
      <point x="95" y="0" type="line"/>
      <point x="251" y="0" type="line"/>
      <point x="251" y="720" type="line"/>
      <point x="95" y="720" type="line"/>
    </contour>
    <contour>
      <point x="193" y="973" type="line"/>
      <point x="36" y="973" type="line"/>
      <point x="87" y="770" type="line"/>
      <point x="244" y="770" type="line"/>
    </contour>
  </outline>
</glyph>
<glyph name="Iacute" format="1">
  <advance width="220"/>
  <unicode hex="00CD"/>
  <outline>
    <contour>
      <point x="42" y="0" type="line"/>
      <point x="198" y="0" type="line"/>
      <point x="198" y="720" type="line"/>
      <point x="42" y="720" type="line"/>
    </contour>
    <contour>
      <point x="36" y="770" type="line"/>
      <point x="193" y="770" type="line"/>
      <point x="244" y="973" type="line"/>
      <point x="87" y="973" type="line"/>
    </contour>
  </outline>
</glyph>
<glyph name="Icircumflex" format="1">
  <advance width="220"/>
  <unicode hex="00CE"/>
  <outline>
    <contour>
      <point x="62" y="0" type="line"/>
      <point x="218" y="0" type="line"/>
      <point x="218" y="720" type="line"/>
      <point x="62" y="720" type="line"/>
    </contour>
    <contour>
      <point x="121" y="769" type="line"/>
      <point x="146" y="813" type="line"/>
      <point x="174" y="769" type="line"/>
      <point x="308" y="769" type="line"/>
      <point x="198" y="953" type="line"/>
      <point x="98" y="953" type="line"/>
      <point x="-12" y="769" type="line"/>
    </contour>
  </outline>
</glyph>
<glyph name="Idieresis" format="1">
  <advance width="220"/>
  <unicode hex="00CF"/>
  <outline>
    <contour>
      <point x="74" y="0" type="line"/>
      <point x="230" y="0" type="line"/>
      <point x="230" y="720" type="line"/>
      <point x="74" y="720" type="line"/>
    </contour>
    <contour>
      <point x="338" y="924" type="line"/>
      <point x="184" y="924" type="line"/>
      <point x="184" y="770" type="line"/>
      <point x="338" y="770" type="line"/>
    </contour>
    <contour>
      <point x="124" y="924" type="line"/>
      <point x="-29" y="924" type="line"/>
      <point x="-29" y="770" type="line"/>
      <point x="124" y="770" type="line"/>
    </contour>
  </outline>
</glyph>
<glyph name="Ntilde" format="1">
  <advance width="832"/>
  <unicode hex="00D1"/>
  <outline>
    <contour>
      <point x="619" y="240" type="line"/>
      <point x="216" y="720" type="line"/>
      <point x="56" y="720" type="line"/>
      <point x="56" y="0" type="line"/>
      <point x="211" y="0" type="line"/>
      <point x="211" y="482" type="line"/>
      <point x="616" y="0" type="line"/>
      <point x="776" y="0" type="line"/>
      <point x="776" y="720" type="line"/>
      <point x="619" y="720" type="line"/>
    </contour>
    <contour>
      <point x="431" y="898"/>
      <point x="385" y="951"/>
      <point x="315" y="951" type="curve" smooth="yes"/>
      <point x="285" y="951"/>
      <point x="250" y="936"/>
      <point x="220" y="924" type="curve"/>
      <point x="220" y="800" type="line"/>
      <point x="266" y="839"/>
      <point x="288" y="836"/>
      <point x="304" y="836" type="curve" smooth="yes"/>
      <point x="315" y="836" type="line" smooth="yes"/>
      <point x="376" y="836"/>
      <point x="425" y="774"/>
      <point x="496" y="774" type="curve" smooth="yes"/>
      <point x="530" y="774"/>
      <point x="564" y="787"/>
      <point x="595" y="800" type="curve"/>
      <point x="595" y="926" type="line"/>
      <point x="550" y="897"/>
      <point x="521" y="889"/>
      <point x="499" y="889" type="curve"/>
    </contour>
  </outline>
</glyph>
<glyph name="Oacute" format="1">
  <advance width="828"/>
  <unicode hex="00D3"/>
  <outline>
    <contour>
      <point x="202" y="720" type="line" smooth="yes"/>
      <point x="120" y="720"/>
      <point x="54" y="654"/>
      <point x="54" y="572" type="curve" smooth="yes"/>
      <point x="54" y="148" type="line" smooth="yes"/>
      <point x="54" y="66"/>
      <point x="120" y="0"/>
      <point x="202" y="0" type="curve" smooth="yes"/>
      <point x="626" y="0" type="line" smooth="yes"/>
      <point x="707" y="0"/>
      <point x="774" y="66"/>
      <point x="774" y="148" type="curve" smooth="yes"/>
      <point x="774" y="572" type="line" smooth="yes"/>
      <point x="774" y="654"/>
      <point x="707" y="720"/>
      <point x="626" y="720" type="curve" smooth="yes"/>
    </contour>
    <contour>
      <point x="209" y="564" type="line"/>
      <point x="617" y="564" type="line"/>
      <point x="617" y="156" type="line"/>
      <point x="209" y="156" type="line"/>
    </contour>
    <contour>
      <point x="340" y="770" type="line"/>
      <point x="497" y="770" type="line"/>
      <point x="548" y="973" type="line"/>
      <point x="391" y="973" type="line"/>
    </contour>
  </outline>
</glyph>
<glyph name="Otilde" format="1">
  <advance width="828"/>
  <unicode hex="00D5"/>
  <outline>
    <contour>
      <point x="202" y="720" type="line" smooth="yes"/>
      <point x="120" y="720"/>
      <point x="54" y="654"/>
      <point x="54" y="572" type="curve" smooth="yes"/>
      <point x="54" y="148" type="line" smooth="yes"/>
      <point x="54" y="66"/>
      <point x="120" y="0"/>
      <point x="202" y="0" type="curve" smooth="yes"/>
      <point x="626" y="0" type="line" smooth="yes"/>
      <point x="707" y="0"/>
      <point x="774" y="66"/>
      <point x="774" y="148" type="curve" smooth="yes"/>
      <point x="774" y="572" type="line" smooth="yes"/>
      <point x="774" y="654"/>
      <point x="707" y="720"/>
      <point x="626" y="720" type="curve" smooth="yes"/>
    </contour>
    <contour>
      <point x="209" y="564" type="line"/>
      <point x="617" y="564" type="line"/>
      <point x="617" y="156" type="line"/>
      <point x="209" y="156" type="line"/>
    </contour>
    <contour>
      <point x="419" y="898"/>
      <point x="373" y="951"/>
      <point x="303" y="951" type="curve" smooth="yes"/>
      <point x="273" y="951"/>
      <point x="238" y="936"/>
      <point x="208" y="924" type="curve"/>
      <point x="208" y="800" type="line"/>
      <point x="254" y="839"/>
      <point x="276" y="836"/>
      <point x="292" y="836" type="curve" smooth="yes"/>
      <point x="303" y="836" type="line" smooth="yes"/>
      <point x="364" y="836"/>
      <point x="413" y="774"/>
      <point x="484" y="774" type="curve" smooth="yes"/>
      <point x="518" y="774"/>
      <point x="552" y="787"/>
      <point x="583" y="800" type="curve"/>
      <point x="583" y="926" type="line"/>
      <point x="538" y="897"/>
      <point x="509" y="889"/>
      <point x="487" y="889" type="curve"/>
    </contour>
  </outline>
</glyph>
<glyph name="Odieresis" format="1">
  <advance width="828"/>
  <unicode hex="00D6"/>
  <outline>
    <contour>
      <point x="202" y="720" type="line" smooth="yes"/>
      <point x="120" y="720"/>
      <point x="54" y="654"/>
      <point x="54" y="572" type="curve" smooth="yes"/>
      <point x="54" y="148" type="line" smooth="yes"/>
      <point x="54" y="66"/>
      <point x="120" y="0"/>
      <point x="202" y="0" type="curve" smooth="yes"/>
      <point x="626" y="0" type="line" smooth="yes"/>
      <point x="707" y="0"/>
      <point x="774" y="66"/>
      <point x="774" y="148" type="curve" smooth="yes"/>
      <point x="774" y="572" type="line" smooth="yes"/>
      <point x="774" y="654"/>
      <point x="707" y="720"/>
      <point x="626" y="720" type="curve" smooth="yes"/>
    </contour>
    <contour>
      <point x="209" y="564" type="line"/>
      <point x="617" y="564" type="line"/>
      <point x="617" y="156" type="line"/>
      <point x="209" y="156" type="line"/>
    </contour>
    <contour>
      <point x="602" y="924" type="line"/>
      <point x="448" y="924" type="line"/>
      <point x="448" y="770" type="line"/>
      <point x="602" y="770" type="line"/>
    </contour>
    <contour>
      <point x="388" y="924" type="line"/>
      <point x="235" y="924" type="line"/>
      <point x="235" y="770" type="line"/>
      <point x="388" y="770" type="line"/>
    </contour>
  </outline>
</glyph>
<glyph name="multiply" format="1">
  <advance width="546"/>
  <unicode hex="00D7"/>
  <outline>
    <contour>
      <point x="507" y="516" type="line"/>
      <point x="348" y="516" type="line"/>
      <point x="279" y="422" type="line"/>
      <point x="211" y="516" type="line"/>
      <point x="53" y="516" type="line"/>
      <point x="53" y="466" type="line"/>
      <point x="182" y="300" type="line"/>
      <point x="53" y="132" type="line"/>
      <point x="53" y="82" type="line"/>
      <point x="210" y="82" type="line"/>
      <point x="230" y="112"/>
      <point x="259" y="144"/>
      <point x="279" y="175" type="curve"/>
      <point x="348" y="82" type="line"/>
      <point x="507" y="82" type="line"/>
      <point x="507" y="132" type="line"/>
      <point x="377" y="300" type="line"/>
      <point x="507" y="466" type="line"/>
    </contour>
  </outline>
</glyph>
<glyph name="Ugrave" format="1">
  <advance width="828"/>
  <unicode hex="00D9"/>
  <outline>
    <contour>
      <point x="209" y="720" type="line"/>
      <point x="54" y="720" type="line"/>
      <point x="54" y="148" type="line" smooth="yes"/>
      <point x="54" y="66"/>
      <point x="120" y="0"/>
      <point x="202" y="0" type="curve" smooth="yes"/>
      <point x="626" y="0" type="line" smooth="yes"/>
      <point x="707" y="0"/>
      <point x="774" y="66"/>
      <point x="774" y="148" type="curve" smooth="yes"/>
      <point x="774" y="720" type="line"/>
      <point x="617" y="720" type="line"/>
      <point x="617" y="156" type="line"/>
      <point x="209" y="156" type="line"/>
    </contour>
    <contour>
      <point x="457" y="973" type="line"/>
      <point x="300" y="973" type="line"/>
      <point x="351" y="770" type="line"/>
      <point x="508" y="770" type="line"/>
    </contour>
  </outline>
</glyph>
<glyph name="Ucircumflex" format="1">
  <advance width="828"/>
  <unicode hex="00DB"/>
  <outline>
    <contour>
      <point x="209" y="720" type="line"/>
      <point x="54" y="720" type="line"/>
      <point x="54" y="148" type="line" smooth="yes"/>
      <point x="54" y="66"/>
      <point x="120" y="0"/>
      <point x="202" y="0" type="curve" smooth="yes"/>
      <point x="626" y="0" type="line" smooth="yes"/>
      <point x="707" y="0"/>
      <point x="774" y="66"/>
      <point x="774" y="148" type="curve" smooth="yes"/>
      <point x="774" y="720" type="line"/>
      <point x="617" y="720" type="line"/>
      <point x="617" y="156" type="line"/>
      <point x="209" y="156" type="line"/>
    </contour>
    <contour>
      <point x="395" y="769" type="line"/>
      <point x="420" y="813" type="line"/>
      <point x="448" y="769" type="line"/>
      <point x="582" y="769" type="line"/>
      <point x="472" y="953" type="line"/>
      <point x="372" y="953" type="line"/>
      <point x="262" y="769" type="line"/>
    </contour>
  </outline>
</glyph>
<glyph name="Yacute" format="1">
  <advance width="806"/>
  <unicode hex="00DD"/>
  <outline>
    <contour>
      <point x="653" y="720" type="line"/>
      <point x="581" y="628"/>
      <point x="501" y="528"/>
      <point x="428" y="436" type="curve"/>
      <point x="202" y="720" type="line"/>
      <point x="17" y="720" type="line"/>
      <point x="73" y="643"/>
      <point x="156" y="529"/>
      <point x="219" y="445" type="curve" smooth="yes"/>
      <point x="350" y="269" type="line"/>
      <point x="350" y="0" type="line"/>
      <point x="506" y="0" type="line"/>
      <point x="506" y="268" type="line"/>
      <point x="840" y="720" type="line"/>
    </contour>
    <contour>
      <point x="329" y="770" type="line"/>
      <point x="486" y="770" type="line"/>
      <point x="537" y="973" type="line"/>
      <point x="380" y="973" type="line"/>
    </contour>
  </outline>
</glyph>
<glyph name="germandbls" format="1">
  <advance width="833"/>
  <unicode hex="00DF"/>
  <outline>
    <contour>
      <point x="764" y="587" type="line"/>
      <point x="752" y="655"/>
      <point x="690" y="706"/>
      <point x="618" y="706" type="curve" smooth="yes"/>
      <point x="203" y="706" type="line" smooth="yes"/>
      <point x="123" y="706"/>
      <point x="57" y="641"/>
      <point x="57" y="561" type="curve" smooth="yes"/>
      <point x="57" y="0" type="line"/>
      <point x="210" y="0" type="line"/>
      <point x="210" y="552" type="line"/>
      <point x="611" y="552" type="line"/>
      <point x="611" y="429" type="line"/>
      <point x="273" y="429" type="line"/>
      <point x="273" y="285" type="line"/>
      <point x="611" y="285" type="line"/>
      <point x="611" y="153" type="line"/>
      <point x="273" y="153" type="line"/>
      <point x="273" y="0" type="line"/>
      <point x="618" y="0" type="line" smooth="yes"/>
      <point x="698" y="0"/>
      <point x="764" y="66"/>
      <point x="764" y="145" type="curve" smooth="yes"/>
      <point x="764" y="294" type="line" smooth="yes"/>
      <point x="764" y="318"/>
      <point x="759" y="340"/>
      <point x="747" y="362" type="curve"/>
      <point x="758" y="383"/>
      <point x="764" y="409"/>
      <point x="764" y="431" type="curve" smooth="yes"/>
    </contour>
  </outline>
</glyph>
<glyph name="agrave" format="1">
  <advance width="725"/>
  <unicode hex="00E0"/>
  <outline>
    <contour>
      <point x="52" y="580" type="line"/>
      <point x="52" y="427" type="line"/>
      <point x="487" y="427" type="line"/>
      <point x="487" y="367" type="line"/>
      <point x="52" y="367" type="line"/>
      <point x="52" y="145" type="line" smooth="yes"/>
      <point x="52" y="66"/>
      <point x="117" y="0"/>
      <point x="197" y="0" type="curve" smooth="yes"/>
      <point x="640" y="0" type="line"/>
      <point x="640" y="435" type="line" smooth="yes"/>
      <point x="640" y="514"/>
      <point x="575" y="580"/>
      <point x="495" y="580" type="curve" smooth="yes"/>
    </contour>
    <contour>
      <point x="487" y="153" type="line"/>
      <point x="205" y="153" type="line"/>
      <point x="205" y="233" type="line"/>
      <point x="487" y="233" type="line"/>
    </contour>
    <contour>
      <point x="415" y="841" type="line"/>
      <point x="258" y="841" type="line"/>
      <point x="309" y="638" type="line"/>
      <point x="466" y="638" type="line"/>
    </contour>
  </outline>
</glyph>
<glyph name="atilde" format="1">
  <advance width="725"/>
  <unicode hex="00E3"/>
  <outline>
    <contour>
      <point x="52" y="580" type="line"/>
      <point x="52" y="427" type="line"/>
      <point x="487" y="427" type="line"/>
      <point x="487" y="367" type="line"/>
      <point x="52" y="367" type="line"/>
      <point x="52" y="145" type="line" smooth="yes"/>
      <point x="52" y="66"/>
      <point x="117" y="0"/>
      <point x="197" y="0" type="curve" smooth="yes"/>
      <point x="640" y="0" type="line"/>
      <point x="640" y="435" type="line" smooth="yes"/>
      <point x="640" y="514"/>
      <point x="575" y="580"/>
      <point x="495" y="580" type="curve" smooth="yes"/>
    </contour>
    <contour>
      <point x="487" y="153" type="line"/>
      <point x="205" y="153" type="line"/>
      <point x="205" y="233" type="line"/>
      <point x="487" y="233" type="line"/>
    </contour>
    <contour>
      <point x="347" y="765"/>
      <point x="301" y="818"/>
      <point x="231" y="818" type="curve" smooth="yes"/>
      <point x="201" y="818"/>
      <point x="166" y="803"/>
      <point x="136" y="791" type="curve"/>
      <point x="136" y="667" type="line"/>
      <point x="182" y="706"/>
      <point x="204" y="703"/>
      <point x="220" y="703" type="curve" smooth="yes"/>
      <point x="231" y="703" type="line" smooth="yes"/>
      <point x="292" y="703"/>
      <point x="341" y="641"/>
      <point x="412" y="641" type="curve" smooth="yes"/>
      <point x="446" y="641"/>
      <point x="480" y="654"/>
      <point x="511" y="667" type="curve"/>
      <point x="511" y="793" type="line"/>
      <point x="466" y="764"/>
      <point x="437" y="756"/>
      <point x="415" y="756" type="curve"/>
    </contour>
  </outline>
</glyph>
<glyph name="adieresis" format="1">
  <advance width="725"/>
  <unicode hex="00E4"/>
  <outline>
    <contour>
      <point x="52" y="580" type="line"/>
      <point x="52" y="427" type="line"/>
      <point x="487" y="427" type="line"/>
      <point x="487" y="367" type="line"/>
      <point x="52" y="367" type="line"/>
      <point x="52" y="145" type="line" smooth="yes"/>
      <point x="52" y="66"/>
      <point x="117" y="0"/>
      <point x="197" y="0" type="curve" smooth="yes"/>
      <point x="640" y="0" type="line"/>
      <point x="640" y="435" type="line" smooth="yes"/>
      <point x="640" y="514"/>
      <point x="575" y="580"/>
      <point x="495" y="580" type="curve" smooth="yes"/>
    </contour>
    <contour>
      <point x="487" y="153" type="line"/>
      <point x="205" y="153" type="line"/>
      <point x="205" y="233" type="line"/>
      <point x="487" y="233" type="line"/>
    </contour>
    <contour>
      <point x="540" y="792" type="line"/>
      <point x="386" y="792" type="line"/>
      <point x="386" y="638" type="line"/>
      <point x="540" y="638" type="line"/>
    </contour>
    <contour>
      <point x="326" y="792" type="line"/>
      <point x="173" y="792" type="line"/>
      <point x="173" y="638" type="line"/>
      <point x="326" y="638" type="line"/>
    </contour>
  </outline>
</glyph>
<glyph name="aring" format="1">
  <advance width="725"/>
  <unicode hex="00E5"/>
  <outline>
    <contour>
      <point x="52" y="580" type="line"/>
      <point x="52" y="427" type="line"/>
      <point x="487" y="427" type="line"/>
      <point x="487" y="367" type="line"/>
      <point x="52" y="367" type="line"/>
      <point x="52" y="145" type="line" smooth="yes"/>
      <point x="52" y="66"/>
      <point x="117" y="0"/>
      <point x="197" y="0" type="curve" smooth="yes"/>
      <point x="640" y="0" type="line"/>
      <point x="640" y="435" type="line" smooth="yes"/>
      <point x="640" y="514"/>
      <point x="575" y="580"/>
      <point x="495" y="580" type="curve" smooth="yes"/>
    </contour>
    <contour>
      <point x="487" y="153" type="line"/>
      <point x="205" y="153" type="line"/>
      <point x="205" y="233" type="line"/>
      <point x="487" y="233" type="line"/>
    </contour>
    <contour>
      <point x="281" y="839" type="line" smooth="yes"/>
      <point x="239" y="839"/>
      <point x="204" y="804"/>
      <point x="204" y="763" type="curve" smooth="yes"/>
      <point x="204" y="714" type="line" smooth="yes"/>
      <point x="204" y="673"/>
      <point x="239" y="638"/>
      <point x="281" y="638" type="curve" smooth="yes"/>
      <point x="332" y="638" type="line" smooth="yes"/>
      <point x="374" y="638"/>
      <point x="408" y="673"/>
      <point x="408" y="714" type="curve" smooth="yes"/>
      <point x="408" y="763" type="line" smooth="yes"/>
      <point x="408" y="804"/>
      <point x="374" y="839"/>
      <point x="332" y="839" type="curve" smooth="yes"/>
    </contour>
    <contour>
      <point x="281" y="761" type="line"/>
      <point x="332" y="761" type="line"/>
      <point x="332" y="707" type="line"/>
      <point x="281" y="707" type="line"/>
    </contour>
  </outline>
</glyph>
<glyph name="ae" format="1">
  <advance width="1178"/>
  <unicode hex="00E6"/>
  <outline>
    <contour>
      <point x="53" y="580" type="line"/>
      <point x="53" y="427" type="line"/>
      <point x="489" y="427" type="line"/>
      <point x="489" y="367" type="line"/>
      <point x="53" y="367" type="line"/>
      <point x="53" y="145" type="line" smooth="yes"/>
      <point x="53" y="66"/>
      <point x="118" y="0"/>
      <point x="198" y="0" type="curve" smooth="yes"/>
      <point x="1077" y="0" type="line"/>
      <point x="1077" y="153" type="line"/>
      <point x="642" y="153" type="line"/>
      <point x="642" y="213" type="line"/>
      <point x="1077" y="213" type="line"/>
      <point x="1077" y="435" type="line" smooth="yes"/>
      <point x="1077" y="514"/>
      <point x="1013" y="580"/>
      <point x="933" y="580" type="curve" smooth="yes"/>
    </contour>
    <contour>
      <point x="489" y="153" type="line"/>
      <point x="206" y="153" type="line"/>
      <point x="206" y="233" type="line"/>
      <point x="489" y="233" type="line"/>
    </contour>
    <contour>
      <point x="642" y="347" type="line"/>
      <point x="642" y="427" type="line"/>
      <point x="924" y="427" type="line"/>
      <point x="924" y="347" type="line"/>
    </contour>
  </outline>
</glyph>
<glyph name="ccedilla" format="1">
  <advance width="693"/>
  <unicode hex="00E7"/>
  <outline>
    <contour>
      <point x="204" y="153" type="line"/>
      <point x="204" y="427" type="line"/>
      <point x="638" y="427" type="line"/>
      <point x="638" y="580" type="line"/>
      <point x="196" y="580" type="line" smooth="yes"/>
      <point x="117" y="580"/>
      <point x="51" y="514"/>
      <point x="51" y="435" type="curve" smooth="yes"/>
      <point x="51" y="145" type="line" smooth="yes"/>
      <point x="51" y="66"/>
      <point x="117" y="0"/>
      <point x="196" y="0" type="curve" smooth="yes"/>
      <point x="313" y="0" type="line"/>
      <point x="303" y="-42"/>
      <point x="284" y="-83"/>
      <point x="274" y="-128" type="curve"/>
      <point x="371" y="-128" type="line"/>
      <point x="381" y="-86"/>
      <point x="400" y="-45"/>
      <point x="410" y="0" type="curve"/>
      <point x="639" y="0" type="line"/>
      <point x="639" y="153" type="line"/>
    </contour>
  </outline>
</glyph>
<glyph name="egrave" format="1">
  <advance width="638"/>
  <unicode hex="00E8"/>
  <outline>
    <contour>
      <point x="196" y="580" type="line" smooth="yes"/>
      <point x="117" y="580"/>
      <point x="51" y="514"/>
      <point x="51" y="435" type="curve" smooth="yes"/>
      <point x="51" y="145" type="line" smooth="yes"/>
      <point x="51" y="66"/>
      <point x="117" y="0"/>
      <point x="196" y="0" type="curve" smooth="yes"/>
      <point x="639" y="0" type="line"/>
      <point x="639" y="153" type="line"/>
      <point x="204" y="153" type="line"/>
      <point x="204" y="213" type="line"/>
      <point x="639" y="213" type="line"/>
      <point x="639" y="435" type="line" smooth="yes"/>
      <point x="639" y="514"/>
      <point x="574" y="580"/>
      <point x="494" y="580" type="curve" smooth="yes"/>
    </contour>
    <contour>
      <point x="204" y="347" type="line"/>
      <point x="204" y="427" type="line"/>
      <point x="486" y="427" type="line"/>
      <point x="486" y="347" type="line"/>
    </contour>
    <contour>
      <point x="402" y="841" type="line"/>
      <point x="245" y="841" type="line"/>
      <point x="296" y="638" type="line"/>
      <point x="453" y="638" type="line"/>
    </contour>
  </outline>
</glyph>
<glyph name="eacute" format="1">
  <advance width="638"/>
  <unicode hex="00E9"/>
  <outline>
    <contour>
      <point x="196" y="580" type="line" smooth="yes"/>
      <point x="117" y="580"/>
      <point x="51" y="514"/>
      <point x="51" y="435" type="curve" smooth="yes"/>
      <point x="51" y="145" type="line" smooth="yes"/>
      <point x="51" y="66"/>
      <point x="117" y="0"/>
      <point x="196" y="0" type="curve" smooth="yes"/>
      <point x="639" y="0" type="line"/>
      <point x="639" y="153" type="line"/>
      <point x="204" y="153" type="line"/>
      <point x="204" y="213" type="line"/>
      <point x="639" y="213" type="line"/>
      <point x="639" y="435" type="line" smooth="yes"/>
      <point x="639" y="514"/>
      <point x="574" y="580"/>
      <point x="494" y="580" type="curve" smooth="yes"/>
    </contour>
    <contour>
      <point x="204" y="347" type="line"/>
      <point x="204" y="427" type="line"/>
      <point x="486" y="427" type="line"/>
      <point x="486" y="347" type="line"/>
    </contour>
    <contour>
      <point x="265" y="639" type="line"/>
      <point x="422" y="639" type="line"/>
      <point x="473" y="842" type="line"/>
      <point x="316" y="842" type="line"/>
    </contour>
  </outline>
</glyph>
<glyph name="ecircumflex" format="1">
  <advance width="638"/>
  <unicode hex="00EA"/>
  <outline>
    <contour>
      <point x="196" y="580" type="line" smooth="yes"/>
      <point x="117" y="580"/>
      <point x="51" y="514"/>
      <point x="51" y="435" type="curve" smooth="yes"/>
      <point x="51" y="145" type="line" smooth="yes"/>
      <point x="51" y="66"/>
      <point x="117" y="0"/>
      <point x="196" y="0" type="curve" smooth="yes"/>
      <point x="639" y="0" type="line"/>
      <point x="639" y="153" type="line"/>
      <point x="204" y="153" type="line"/>
      <point x="204" y="213" type="line"/>
      <point x="639" y="213" type="line"/>
      <point x="639" y="435" type="line" smooth="yes"/>
      <point x="639" y="514"/>
      <point x="574" y="580"/>
      <point x="494" y="580" type="curve" smooth="yes"/>
    </contour>
    <contour>
      <point x="204" y="347" type="line"/>
      <point x="204" y="427" type="line"/>
      <point x="486" y="427" type="line"/>
      <point x="486" y="347" type="line"/>
    </contour>
    <contour>
      <point x="330" y="638" type="line"/>
      <point x="355" y="682" type="line"/>
      <point x="383" y="638" type="line"/>
      <point x="517" y="638" type="line"/>
      <point x="407" y="822" type="line"/>
      <point x="307" y="822" type="line"/>
      <point x="197" y="638" type="line"/>
    </contour>
  </outline>
</glyph>
<glyph name="edieresis" format="1">
  <advance width="638"/>
  <unicode hex="00EB"/>
  <outline>
    <contour>
      <point x="196" y="580" type="line" smooth="yes"/>
      <point x="117" y="580"/>
      <point x="51" y="514"/>
      <point x="51" y="435" type="curve" smooth="yes"/>
      <point x="51" y="145" type="line" smooth="yes"/>
      <point x="51" y="66"/>
      <point x="117" y="0"/>
      <point x="196" y="0" type="curve" smooth="yes"/>
      <point x="639" y="0" type="line"/>
      <point x="639" y="153" type="line"/>
      <point x="204" y="153" type="line"/>
      <point x="204" y="213" type="line"/>
      <point x="639" y="213" type="line"/>
      <point x="639" y="435" type="line" smooth="yes"/>
      <point x="639" y="514"/>
      <point x="574" y="580"/>
      <point x="494" y="580" type="curve" smooth="yes"/>
    </contour>
    <contour>
      <point x="204" y="347" type="line"/>
      <point x="204" y="427" type="line"/>
      <point x="486" y="427" type="line"/>
      <point x="486" y="347" type="line"/>
    </contour>
    <contour>
      <point x="547" y="792" type="line"/>
      <point x="393" y="792" type="line"/>
      <point x="393" y="638" type="line"/>
      <point x="547" y="638" type="line"/>
    </contour>
    <contour>
      <point x="333" y="792" type="line"/>
      <point x="180" y="792" type="line"/>
      <point x="180" y="638" type="line"/>
      <point x="333" y="638" type="line"/>
    </contour>
  </outline>
</glyph>
<glyph name="igrave" format="1">
  <advance width="214"/>
  <unicode hex="00EC"/>
  <outline>
    <contour>
      <point x="56" y="0" type="line"/>
      <point x="209" y="0" type="line"/>
      <point x="209" y="580" type="line"/>
      <point x="56" y="580" type="line"/>
    </contour>
    <contour>
      <point x="173" y="842" type="line"/>
      <point x="16" y="842" type="line"/>
      <point x="67" y="639" type="line"/>
      <point x="224" y="639" type="line"/>
    </contour>
  </outline>
</glyph>
<glyph name="iacute" format="1">
  <advance width="214"/>
  <unicode hex="00ED"/>
  <outline>
    <contour>
      <point x="51" y="0" type="line"/>
      <point x="204" y="0" type="line"/>
      <point x="204" y="580" type="line"/>
      <point x="51" y="580" type="line"/>
    </contour>
    <contour>
      <point x="49" y="638" type="line"/>
      <point x="206" y="638" type="line"/>
      <point x="257" y="841" type="line"/>
      <point x="100" y="841" type="line"/>
    </contour>
  </outline>
</glyph>
<glyph name="icircumflex" format="1">
  <advance width="214"/>
  <unicode hex="00EE"/>
  <outline>
    <contour>
      <point x="51" y="0" type="line"/>
      <point x="204" y="0" type="line"/>
      <point x="204" y="580" type="line"/>
      <point x="51" y="580" type="line"/>
    </contour>
    <contour>
      <point x="118" y="638" type="line"/>
      <point x="143" y="682" type="line"/>
      <point x="171" y="638" type="line"/>
      <point x="305" y="638" type="line"/>
      <point x="195" y="822" type="line"/>
      <point x="95" y="822" type="line"/>
      <point x="-15" y="638" type="line"/>
    </contour>
  </outline>
</glyph>
<glyph name="idieresis" format="1">
  <advance width="214"/>
  <unicode hex="00EF"/>
  <outline>
    <contour>
      <point x="55" y="0" type="line"/>
      <point x="208" y="0" type="line"/>
      <point x="208" y="580" type="line"/>
      <point x="55" y="580" type="line"/>
    </contour>
    <contour>
      <point x="335" y="794" type="line"/>
      <point x="181" y="794" type="line"/>
      <point x="181" y="640" type="line"/>
      <point x="335" y="640" type="line"/>
    </contour>
    <contour>
      <point x="121" y="794" type="line"/>
      <point x="-32" y="794" type="line"/>
      <point x="-32" y="640" type="line"/>
      <point x="121" y="640" type="line"/>
    </contour>
  </outline>
</glyph>
<glyph name="ntilde" format="1">
  <advance width="708"/>
  <unicode hex="00F1"/>
  <outline>
    <contour>
      <point x="54" y="580" type="line"/>
      <point x="54" y="0" type="line"/>
      <point x="207" y="0" type="line"/>
      <point x="207" y="427" type="line"/>
      <point x="489" y="427" type="line"/>
      <point x="489" y="0" type="line"/>
      <point x="642" y="0" type="line"/>
      <point x="642" y="435" type="line" smooth="yes"/>
      <point x="642" y="514"/>
      <point x="577" y="580"/>
      <point x="497" y="580" type="curve" smooth="yes"/>
    </contour>
    <contour>
      <point x="349" y="764"/>
      <point x="303" y="817"/>
      <point x="233" y="817" type="curve" smooth="yes"/>
      <point x="203" y="817"/>
      <point x="168" y="802"/>
      <point x="138" y="790" type="curve"/>
      <point x="138" y="666" type="line"/>
      <point x="184" y="705"/>
      <point x="206" y="702"/>
      <point x="222" y="702" type="curve" smooth="yes"/>
      <point x="233" y="702" type="line" smooth="yes"/>
      <point x="294" y="702"/>
      <point x="343" y="640"/>
      <point x="414" y="640" type="curve" smooth="yes"/>
      <point x="448" y="640"/>
      <point x="482" y="653"/>
      <point x="513" y="666" type="curve"/>
      <point x="513" y="792" type="line"/>
      <point x="468" y="763"/>
      <point x="439" y="755"/>
      <point x="417" y="755" type="curve"/>
    </contour>
  </outline>
</glyph>
<glyph name="ograve" format="1">
  <advance width="692"/>
  <unicode hex="00F2"/>
  <outline>
    <contour>
      <point x="196" y="580" type="line" smooth="yes"/>
      <point x="117" y="580"/>
      <point x="51" y="514"/>
      <point x="51" y="435" type="curve" smooth="yes"/>
      <point x="51" y="145" type="line" smooth="yes"/>
      <point x="51" y="66"/>
      <point x="117" y="0"/>
      <point x="196" y="0" type="curve" smooth="yes"/>
      <point x="494" y="0" type="line" smooth="yes"/>
      <point x="574" y="0"/>
      <point x="639" y="66"/>
      <point x="639" y="145" type="curve" smooth="yes"/>
      <point x="639" y="435" type="line" smooth="yes"/>
      <point x="639" y="514"/>
      <point x="574" y="580"/>
      <point x="494" y="580" type="curve" smooth="yes"/>
    </contour>
    <contour>
      <point x="204" y="427" type="line"/>
      <point x="486" y="427" type="line"/>
      <point x="486" y="153" type="line"/>
      <point x="204" y="153" type="line"/>
    </contour>
    <contour>
      <point x="399" y="842" type="line"/>
      <point x="242" y="842" type="line"/>
      <point x="293" y="639" type="line"/>
      <point x="450" y="639" type="line"/>
    </contour>
  </outline>
</glyph>
<glyph name="ocircumflex" format="1">
  <advance width="692"/>
  <unicode hex="00F4"/>
  <outline>
    <contour>
      <point x="196" y="580" type="line" smooth="yes"/>
      <point x="117" y="580"/>
      <point x="51" y="514"/>
      <point x="51" y="435" type="curve" smooth="yes"/>
      <point x="51" y="145" type="line" smooth="yes"/>
      <point x="51" y="66"/>
      <point x="117" y="0"/>
      <point x="196" y="0" type="curve" smooth="yes"/>
      <point x="494" y="0" type="line" smooth="yes"/>
      <point x="574" y="0"/>
      <point x="639" y="66"/>
      <point x="639" y="145" type="curve" smooth="yes"/>
      <point x="639" y="435" type="line" smooth="yes"/>
      <point x="639" y="514"/>
      <point x="574" y="580"/>
      <point x="494" y="580" type="curve" smooth="yes"/>
    </contour>
    <contour>
      <point x="204" y="427" type="line"/>
      <point x="486" y="427" type="line"/>
      <point x="486" y="153" type="line"/>
      <point x="204" y="153" type="line"/>
    </contour>
    <contour>
      <point x="327" y="638" type="line"/>
      <point x="352" y="682" type="line"/>
      <point x="380" y="638" type="line"/>
      <point x="514" y="638" type="line"/>
      <point x="404" y="822" type="line"/>
      <point x="304" y="822" type="line"/>
      <point x="194" y="638" type="line"/>
    </contour>
  </outline>
</glyph>
<glyph name="otilde" format="1">
  <advance width="692"/>
  <unicode hex="00F5"/>
  <outline>
    <contour>
      <point x="196" y="580" type="line" smooth="yes"/>
      <point x="117" y="580"/>
      <point x="51" y="514"/>
      <point x="51" y="435" type="curve" smooth="yes"/>
      <point x="51" y="145" type="line" smooth="yes"/>
      <point x="51" y="66"/>
      <point x="117" y="0"/>
      <point x="196" y="0" type="curve" smooth="yes"/>
      <point x="494" y="0" type="line" smooth="yes"/>
      <point x="574" y="0"/>
      <point x="639" y="66"/>
      <point x="639" y="145" type="curve" smooth="yes"/>
      <point x="639" y="435" type="line" smooth="yes"/>
      <point x="639" y="514"/>
      <point x="574" y="580"/>
      <point x="494" y="580" type="curve" smooth="yes"/>
    </contour>
    <contour>
      <point x="204" y="427" type="line"/>
      <point x="486" y="427" type="line"/>
      <point x="486" y="153" type="line"/>
      <point x="204" y="153" type="line"/>
    </contour>
    <contour>
      <point x="351" y="764"/>
      <point x="305" y="817"/>
      <point x="235" y="817" type="curve" smooth="yes"/>
      <point x="205" y="817"/>
      <point x="170" y="802"/>
      <point x="140" y="790" type="curve"/>
      <point x="140" y="666" type="line"/>
      <point x="186" y="705"/>
      <point x="208" y="702"/>
      <point x="224" y="702" type="curve" smooth="yes"/>
      <point x="235" y="702" type="line" smooth="yes"/>
      <point x="296" y="702"/>
      <point x="345" y="640"/>
      <point x="416" y="640" type="curve" smooth="yes"/>
      <point x="450" y="640"/>
      <point x="484" y="653"/>
      <point x="515" y="666" type="curve"/>
      <point x="515" y="792" type="line"/>
      <point x="470" y="763"/>
      <point x="441" y="755"/>
      <point x="419" y="755" type="curve"/>
    </contour>
  </outline>
</glyph>
<glyph name="odieresis" format="1">
  <advance width="692"/>
  <unicode hex="00F6"/>
  <outline>
    <contour>
      <point x="196" y="580" type="line" smooth="yes"/>
      <point x="117" y="580"/>
      <point x="51" y="514"/>
      <point x="51" y="435" type="curve" smooth="yes"/>
      <point x="51" y="145" type="line" smooth="yes"/>
      <point x="51" y="66"/>
      <point x="117" y="0"/>
      <point x="196" y="0" type="curve" smooth="yes"/>
      <point x="494" y="0" type="line" smooth="yes"/>
      <point x="574" y="0"/>
      <point x="639" y="66"/>
      <point x="639" y="145" type="curve" smooth="yes"/>
      <point x="639" y="435" type="line" smooth="yes"/>
      <point x="639" y="514"/>
      <point x="574" y="580"/>
      <point x="494" y="580" type="curve" smooth="yes"/>
    </contour>
    <contour>
      <point x="204" y="427" type="line"/>
      <point x="486" y="427" type="line"/>
      <point x="486" y="153" type="line"/>
      <point x="204" y="153" type="line"/>
    </contour>
    <contour>
      <point x="534" y="794" type="line"/>
      <point x="380" y="794" type="line"/>
      <point x="380" y="640" type="line"/>
      <point x="534" y="640" type="line"/>
    </contour>
    <contour>
      <point x="320" y="794" type="line"/>
      <point x="167" y="794" type="line"/>
      <point x="167" y="640" type="line"/>
      <point x="320" y="640" type="line"/>
    </contour>
  </outline>
</glyph>
<glyph name="divide" format="1">
  <advance width="519"/>
  <unicode hex="00F7"/>
  <outline>
    <contour>
      <point x="497" y="393" type="line"/>
      <point x="7" y="393" type="line"/>
      <point x="7" y="240" type="line"/>
      <point x="497" y="240" type="line"/>
    </contour>
    <contour>
      <point x="183" y="153" type="line"/>
      <point x="183" y="0" type="line"/>
      <point x="336" y="0" type="line"/>
      <point x="336" y="153" type="line"/>
    </contour>
    <contour>
      <point x="336" y="616" type="line"/>
      <point x="183" y="616" type="line"/>
      <point x="183" y="462" type="line"/>
      <point x="336" y="462" type="line"/>
    </contour>
  </outline>
</glyph>
<glyph name="ugrave" format="1">
  <advance width="695"/>
  <unicode hex="00F9"/>
  <outline>
    <contour>
      <point x="488" y="580" type="line"/>
      <point x="488" y="153" type="line"/>
      <point x="206" y="153" type="line"/>
      <point x="206" y="580" type="line"/>
      <point x="53" y="580" type="line"/>
      <point x="53" y="145" type="line" smooth="yes"/>
      <point x="53" y="66"/>
      <point x="118" y="0"/>
      <point x="198" y="0" type="curve" smooth="yes"/>
      <point x="496" y="0" type="line" smooth="yes"/>
      <point x="576" y="0"/>
      <point x="641" y="66"/>
      <point x="641" y="145" type="curve" smooth="yes"/>
      <point x="641" y="580" type="line"/>
    </contour>
    <contour>
      <point x="390" y="842" type="line"/>
      <point x="233" y="842" type="line"/>
      <point x="284" y="639" type="line"/>
      <point x="441" y="639" type="line"/>
    </contour>
  </outline>
</glyph>
<glyph name="uacute" format="1">
  <advance width="695"/>
  <unicode hex="00FA"/>
  <outline>
    <contour>
      <point x="488" y="580" type="line"/>
      <point x="488" y="153" type="line"/>
      <point x="206" y="153" type="line"/>
      <point x="206" y="580" type="line"/>
      <point x="53" y="580" type="line"/>
      <point x="53" y="145" type="line" smooth="yes"/>
      <point x="53" y="66"/>
      <point x="118" y="0"/>
      <point x="198" y="0" type="curve" smooth="yes"/>
      <point x="496" y="0" type="line" smooth="yes"/>
      <point x="576" y="0"/>
      <point x="641" y="66"/>
      <point x="641" y="145" type="curve" smooth="yes"/>
      <point x="641" y="580" type="line"/>
    </contour>
    <contour>
      <point x="273" y="639" type="line"/>
      <point x="430" y="639" type="line"/>
      <point x="481" y="842" type="line"/>
      <point x="324" y="842" type="line"/>
    </contour>
  </outline>
</glyph>
<glyph name="ucircumflex" format="1">
  <advance width="695"/>
  <unicode hex="00FB"/>
  <outline>
    <contour>
      <point x="488" y="580" type="line"/>
      <point x="488" y="153" type="line"/>
      <point x="206" y="153" type="line"/>
      <point x="206" y="580" type="line"/>
      <point x="53" y="580" type="line"/>
      <point x="53" y="145" type="line" smooth="yes"/>
      <point x="53" y="66"/>
      <point x="118" y="0"/>
      <point x="198" y="0" type="curve" smooth="yes"/>
      <point x="496" y="0" type="line" smooth="yes"/>
      <point x="576" y="0"/>
      <point x="641" y="66"/>
      <point x="641" y="145" type="curve" smooth="yes"/>
      <point x="641" y="580" type="line"/>
    </contour>
    <contour>
      <point x="318" y="639" type="line"/>
      <point x="343" y="683" type="line"/>
      <point x="371" y="639" type="line"/>
      <point x="505" y="639" type="line"/>
      <point x="395" y="823" type="line"/>
      <point x="295" y="823" type="line"/>
      <point x="185" y="639" type="line"/>
    </contour>
  </outline>
</glyph>
<glyph name="udieresis" format="1">
  <advance width="695"/>
  <unicode hex="00FC"/>
  <outline>
    <contour>
      <point x="488" y="580" type="line"/>
      <point x="488" y="153" type="line"/>
      <point x="206" y="153" type="line"/>
      <point x="206" y="580" type="line"/>
      <point x="53" y="580" type="line"/>
      <point x="53" y="145" type="line" smooth="yes"/>
      <point x="53" y="66"/>
      <point x="118" y="0"/>
      <point x="198" y="0" type="curve" smooth="yes"/>
      <point x="496" y="0" type="line" smooth="yes"/>
      <point x="576" y="0"/>
      <point x="641" y="66"/>
      <point x="641" y="145" type="curve" smooth="yes"/>
      <point x="641" y="580" type="line"/>
    </contour>
    <contour>
      <point x="545" y="792" type="line"/>
      <point x="391" y="792" type="line"/>
      <point x="391" y="638" type="line"/>
      <point x="545" y="638" type="line"/>
    </contour>
    <contour>
      <point x="331" y="792" type="line"/>
      <point x="178" y="792" type="line"/>
      <point x="178" y="638" type="line"/>
      <point x="331" y="638" type="line"/>
    </contour>
  </outline>
</glyph>
<glyph name="yacute" format="1">
  <advance width="688"/>
  <unicode hex="00FD"/>
  <outline>
    <contour>
      <point x="631" y="578" type="line"/>
      <point x="478" y="578" type="line"/>
      <point x="478" y="153" type="line"/>
      <point x="195" y="153" type="line"/>
      <point x="195" y="578" type="line"/>
      <point x="42" y="578" type="line"/>
      <point x="42" y="145" type="line" smooth="yes"/>
      <point x="42" y="66"/>
      <point x="108" y="0"/>
      <point x="188" y="0" type="curve" smooth="yes"/>
      <point x="478" y="0" type="line"/>
      <point x="478" y="-54" type="line"/>
      <point x="134" y="-54" type="line"/>
      <point x="134" y="-208" type="line"/>
      <point x="486" y="-208" type="line" smooth="yes"/>
      <point x="566" y="-208"/>
      <point x="631" y="-143"/>
      <point x="631" y="-63" type="curve" smooth="yes"/>
    </contour>
    <contour>
      <point x="270" y="639" type="line"/>
      <point x="427" y="639" type="line"/>
      <point x="478" y="842" type="line"/>
      <point x="321" y="842" type="line"/>
    </contour>
  </outline>
</glyph>
<glyph name="ydieresis" format="1">
  <advance width="688"/>
  <unicode hex="00FF"/>
  <outline>
    <contour>
      <point x="631" y="578" type="line"/>
      <point x="478" y="578" type="line"/>
      <point x="478" y="153" type="line"/>
      <point x="195" y="153" type="line"/>
      <point x="195" y="578" type="line"/>
      <point x="42" y="578" type="line"/>
      <point x="42" y="145" type="line" smooth="yes"/>
      <point x="42" y="66"/>
      <point x="108" y="0"/>
      <point x="188" y="0" type="curve" smooth="yes"/>
      <point x="478" y="0" type="line"/>
      <point x="478" y="-54" type="line"/>
      <point x="134" y="-54" type="line"/>
      <point x="134" y="-208" type="line"/>
      <point x="486" y="-208" type="line" smooth="yes"/>
      <point x="566" y="-208"/>
      <point x="631" y="-143"/>
      <point x="631" y="-63" type="curve" smooth="yes"/>
    </contour>
    <contour>
      <point x="542" y="794" type="line"/>
      <point x="388" y="794" type="line"/>
      <point x="388" y="640" type="line"/>
      <point x="542" y="640" type="line"/>
    </contour>
    <contour>
      <point x="328" y="794" type="line"/>
      <point x="175" y="794" type="line"/>
      <point x="175" y="640" type="line"/>
      <point x="328" y="640" type="line"/>
    </contour>
  </outline>
</glyph>
<glyph name="dotlessi" format="1">
  <advance width="214"/>
  <unicode hex="0131"/>
  <outline>
    <contour>
      <point x="52" y="0" type="line"/>
      <point x="205" y="0" type="line"/>
      <point x="205" y="580" type="line"/>
      <point x="52" y="580" type="line"/>
    </contour>
  </outline>
</glyph>
<glyph name="OE" format="1">
  <advance width="1374"/>
  <unicode hex="0152"/>
  <outline>
    <contour>
      <point x="773" y="564" type="line"/>
      <point x="1282" y="564" type="line"/>
      <point x="1282" y="720" type="line"/>
      <point x="201" y="720" type="line" smooth="yes"/>
      <point x="120" y="720"/>
      <point x="53" y="654"/>
      <point x="53" y="572" type="curve" smooth="yes"/>
      <point x="53" y="148" type="line" smooth="yes"/>
      <point x="53" y="66"/>
      <point x="120" y="0"/>
      <point x="201" y="0" type="curve" smooth="yes"/>
      <point x="1282" y="0" type="line"/>
      <point x="1282" y="156" type="line"/>
      <point x="773" y="156" type="line"/>
      <point x="773" y="282" type="line"/>
      <point x="1182" y="282" type="line"/>
      <point x="1182" y="438" type="line"/>
      <point x="773" y="438" type="line"/>
    </contour>
    <contour>
      <point x="210" y="564" type="line"/>
      <point x="618" y="564" type="line"/>
      <point x="618" y="156" type="line"/>
      <point x="210" y="156" type="line"/>
    </contour>
  </outline>
</glyph>
<glyph name="oe" format="1">
  <advance width="1177"/>
  <unicode hex="0153"/>
  <outline>
    <contour>
      <point x="1076" y="213" type="line"/>
      <point x="1076" y="435" type="line" smooth="yes"/>
      <point x="1076" y="514"/>
      <point x="1012" y="580"/>
      <point x="932" y="580" type="curve" smooth="yes"/>
      <point x="198" y="580" type="line" smooth="yes"/>
      <point x="117" y="580"/>
      <point x="52" y="514"/>
      <point x="52" y="435" type="curve" smooth="yes"/>
      <point x="52" y="145" type="line" smooth="yes"/>
      <point x="52" y="66"/>
      <point x="117" y="0"/>
      <point x="198" y="0" type="curve" smooth="yes"/>
      <point x="1076" y="0" type="line"/>
      <point x="1076" y="153" type="line"/>
      <point x="641" y="153" type="line"/>
      <point x="641" y="213" type="line"/>
    </contour>
    <contour>
      <point x="641" y="347" type="line"/>
      <point x="641" y="427" type="line"/>
      <point x="923" y="427" type="line"/>
      <point x="923" y="347" type="line"/>
    </contour>
    <contour>
      <point x="205" y="427" type="line"/>
      <point x="488" y="427" type="line"/>
      <point x="488" y="153" type="line"/>
      <point x="205" y="153" type="line"/>
    </contour>
  </outline>
</glyph>
<glyph name="scaron" format="1">
  <advance width="687"/>
  <unicode hex="0161"/>
  <outline>
    <contour>
      <point x="637" y="435" type="line" smooth="yes"/>
      <point x="637" y="514"/>
      <point x="572" y="580"/>
      <point x="491" y="580" type="curve" smooth="yes"/>
      <point x="193" y="580" type="line" smooth="yes"/>
      <point x="114" y="580"/>
      <point x="48" y="514"/>
      <point x="48" y="435" type="curve" smooth="yes"/>
      <point x="48" y="358" type="line" smooth="yes"/>
      <point x="48" y="279"/>
      <point x="114" y="213"/>
      <point x="193" y="213" type="curve" smooth="yes"/>
      <point x="483" y="213" type="line"/>
      <point x="483" y="153" type="line"/>
      <point x="201" y="153" type="line"/>
      <point x="201" y="174" type="line"/>
      <point x="48" y="174" type="line"/>
      <point x="48" y="145" type="line" smooth="yes"/>
      <point x="48" y="66"/>
      <point x="114" y="0"/>
      <point x="193" y="0" type="curve" smooth="yes"/>
      <point x="491" y="0" type="line" smooth="yes"/>
      <point x="572" y="0"/>
      <point x="637" y="66"/>
      <point x="637" y="145" type="curve" smooth="yes"/>
      <point x="637" y="222" type="line" smooth="yes"/>
      <point x="637" y="301"/>
      <point x="572" y="367"/>
      <point x="491" y="367" type="curve" smooth="yes"/>
      <point x="201" y="367" type="line"/>
      <point x="201" y="427" type="line"/>
      <point x="483" y="427" type="line"/>
      <point x="483" y="406" type="line"/>
      <point x="637" y="406" type="line"/>
    </contour>
    <contour>
      <point x="191" y="822" type="line"/>
      <point x="301" y="638" type="line"/>
      <point x="401" y="638" type="line"/>
      <point x="511" y="822" type="line"/>
      <point x="376" y="822" type="line"/>
      <point x="349" y="778" type="line"/>
      <point x="322" y="822" type="line"/>
    </contour>
  </outline>
</glyph>
<glyph name="Zcaron" format="1">
  <advance width="821"/>
  <unicode hex="017D"/>
  <outline>
    <contour>
      <point x="51" y="564" type="line"/>
      <point x="533" y="564" type="line"/>
      <point x="51" y="159" type="line"/>
      <point x="51" y="0" type="line"/>
      <point x="771" y="0" type="line"/>
      <point x="771" y="156" type="line"/>
      <point x="289" y="156" type="line"/>
      <point x="771" y="561" type="line"/>
      <point x="771" y="720" type="line"/>
      <point x="51" y="720" type="line"/>
    </contour>
    <contour>
      <point x="258" y="953" type="line"/>
      <point x="368" y="769" type="line"/>
      <point x="468" y="769" type="line"/>
      <point x="578" y="953" type="line"/>
      <point x="443" y="953" type="line"/>
      <point x="416" y="909" type="line"/>
      <point x="389" y="953" type="line"/>
    </contour>
  </outline>
</glyph>
<glyph name="zcaron" format="1">
  <advance width="698"/>
  <unicode hex="017E"/>
  <outline>
    <contour>
      <point x="54" y="427" type="line"/>
      <point x="403" y="427" type="line"/>
      <point x="54" y="157" type="line"/>
      <point x="54" y="0" type="line"/>
      <point x="642" y="0" type="line"/>
      <point x="642" y="153" type="line"/>
      <point x="293" y="153" type="line"/>
      <point x="642" y="423" type="line"/>
      <point x="642" y="580" type="line"/>
      <point x="54" y="580" type="line"/>
    </contour>
    <contour>
      <point x="197" y="835" type="line"/>
      <point x="307" y="651" type="line"/>
      <point x="407" y="651" type="line"/>
      <point x="517" y="835" type="line"/>
      <point x="382" y="835" type="line"/>
      <point x="355" y="791" type="line"/>
      <point x="328" y="835" type="line"/>
    </contour>
  </outline>
</glyph>
<glyph name="circumflex" format="1">
  <advance width="300"/>
  <unicode hex="02C6"/>
  <outline>
    <contour>
      <point x="161" y="746" type="line"/>
      <point x="186" y="790" type="line"/>
      <point x="214" y="746" type="line"/>
      <point x="348" y="746" type="line"/>
      <point x="238" y="930" type="line"/>
      <point x="138" y="930" type="line"/>
      <point x="28" y="746" type="line"/>
    </contour>
  </outline>
</glyph>
<glyph name="caron" format="1">
  <advance width="297"/>
  <unicode hex="02C7"/>
  <outline>
    <contour>
      <point x="27" y="930" type="line"/>
      <point x="137" y="746" type="line"/>
      <point x="237" y="746" type="line"/>
      <point x="347" y="930" type="line"/>
      <point x="212" y="930" type="line"/>
      <point x="185" y="886" type="line"/>
      <point x="158" y="930" type="line"/>
    </contour>
  </outline>
</glyph>
<glyph name="breve" format="1">
  <advance width="287"/>
  <unicode hex="02D8"/>
  <outline>
    <contour>
      <point x="181" y="880" type="line"/>
      <point x="181" y="850" type="line"/>
      <point x="142" y="850" type="line"/>
      <point x="142" y="880" type="line"/>
      <point x="40" y="880" type="line"/>
      <point x="40" y="845" type="line" smooth="yes"/>
      <point x="40" y="792"/>
      <point x="81" y="747"/>
      <point x="138" y="747" type="curve" smooth="yes"/>
      <point x="184" y="747" type="line" smooth="yes"/>
      <point x="241" y="747"/>
      <point x="282" y="792"/>
      <point x="282" y="845" type="curve" smooth="yes"/>
      <point x="282" y="880" type="line"/>
    </contour>
  </outline>
</glyph>
<glyph name="dotaccent" format="1">
  <advance width="233"/>
  <unicode hex="02D9"/>
  <outline>
    <contour>
      <point x="122" y="931" type="line" smooth="yes"/>
      <point x="80" y="931"/>
      <point x="45" y="896"/>
      <point x="45" y="855" type="curve" smooth="yes"/>
      <point x="45" y="824" type="line" smooth="yes"/>
      <point x="45" y="783"/>
      <point x="80" y="748"/>
      <point x="122" y="748" type="curve" smooth="yes"/>
      <point x="154" y="748" type="line" smooth="yes"/>
      <point x="196" y="748"/>
      <point x="231" y="783"/>
      <point x="231" y="824" type="curve" smooth="yes"/>
      <point x="231" y="855" type="line" smooth="yes"/>
      <point x="231" y="896"/>
      <point x="196" y="931"/>
      <point x="154" y="931" type="curve" smooth="yes"/>
    </contour>
  </outline>
</glyph>
<glyph name="ring" format="1">
  <advance width="233"/>
  <unicode hex="02DA"/>
  <outline>
    <contour>
      <point x="86" y="949" type="line" smooth="yes"/>
      <point x="44" y="949"/>
      <point x="9" y="914"/>
      <point x="9" y="873" type="curve" smooth="yes"/>
      <point x="9" y="824" type="line" smooth="yes"/>
      <point x="9" y="783"/>
      <point x="44" y="748"/>
      <point x="86" y="748" type="curve" smooth="yes"/>
      <point x="137" y="748" type="line" smooth="yes"/>
      <point x="179" y="748"/>
      <point x="213" y="783"/>
      <point x="213" y="824" type="curve" smooth="yes"/>
      <point x="213" y="873" type="line" smooth="yes"/>
      <point x="213" y="914"/>
      <point x="179" y="949"/>
      <point x="137" y="949" type="curve" smooth="yes"/>
    </contour>
    <contour>
      <point x="86" y="871" type="line"/>
      <point x="137" y="871" type="line"/>
      <point x="137" y="817" type="line"/>
      <point x="86" y="817" type="line"/>
    </contour>
  </outline>
</glyph>
<glyph name="tilde" format="1">
  <advance width="403"/>
  <unicode hex="02DC"/>
  <outline>
    <contour>
      <point x="234" y="875"/>
      <point x="188" y="928"/>
      <point x="118" y="928" type="curve" smooth="yes"/>
      <point x="88" y="928"/>
      <point x="53" y="913"/>
      <point x="23" y="901" type="curve"/>
      <point x="23" y="777" type="line"/>
      <point x="69" y="816"/>
      <point x="91" y="813"/>
      <point x="107" y="813" type="curve" smooth="yes"/>
      <point x="118" y="813" type="line" smooth="yes"/>
      <point x="179" y="813"/>
      <point x="228" y="751"/>
      <point x="299" y="751" type="curve" smooth="yes"/>
      <point x="333" y="751"/>
      <point x="367" y="764"/>
      <point x="398" y="777" type="curve"/>
      <point x="398" y="903" type="line"/>
      <point x="353" y="874"/>
      <point x="324" y="866"/>
      <point x="302" y="866" type="curve"/>
    </contour>
  </outline>
</glyph>
<glyph name="endash" format="1">
  <advance width="708"/>
  <unicode hex="2013"/>
  <outline>
    <contour>
      <point x="652" y="371" type="line"/>
      <point x="54" y="371" type="line"/>
      <point x="54" y="218" type="line"/>
      <point x="652" y="218" type="line"/>
    </contour>
  </outline>
</glyph>
<glyph name="quoteleft" format="1">
  <advance width="240"/>
  <unicode hex="2018"/>
  <outline>
    <contour>
      <point x="187" y="437" type="line"/>
      <point x="187" y="712" type="line"/>
      <point x="100" y="698"/>
      <point x="34" y="637"/>
      <point x="34" y="563" type="curve" smooth="yes"/>
      <point x="34" y="437" type="line"/>
    </contour>
  </outline>
</glyph>
<glyph name="quoteright" format="1">
  <advance width="238"/>
  <unicode hex="2019"/>
  <outline>
    <contour>
      <point x="54" y="706" type="line"/>
      <point x="54" y="432" type="line"/>
      <point x="141" y="447"/>
      <point x="207" y="508"/>
      <point x="207" y="581" type="curve" smooth="yes"/>
      <point x="207" y="706" type="line"/>
    </contour>
  </outline>
</glyph>
<glyph name="quotedblleft" format="1">
  <advance width="466"/>
  <unicode hex="201C"/>
  <outline>
    <contour>
      <point x="198" y="437" type="line"/>
      <point x="198" y="712" type="line"/>
      <point x="112" y="698"/>
      <point x="45" y="637"/>
      <point x="45" y="563" type="curve" smooth="yes"/>
      <point x="45" y="437" type="line"/>
    </contour>
    <contour>
      <point x="413" y="438" type="line"/>
      <point x="413" y="713" type="line"/>
      <point x="326" y="699"/>
      <point x="260" y="638"/>
      <point x="260" y="564" type="curve" smooth="yes"/>
      <point x="260" y="438" type="line"/>
    </contour>
  </outline>
</glyph>
<glyph name="quotedblright" format="1">
  <advance width="466"/>
  <unicode hex="201D"/>
  <outline>
    <contour>
      <point x="268" y="706" type="line"/>
      <point x="268" y="432" type="line"/>
      <point x="355" y="447"/>
      <point x="422" y="508"/>
      <point x="422" y="581" type="curve" smooth="yes"/>
      <point x="422" y="706" type="line"/>
    </contour>
    <contour>
      <point x="54" y="706" type="line"/>
      <point x="54" y="432" type="line"/>
      <point x="141" y="447"/>
      <point x="207" y="508"/>
      <point x="207" y="581" type="curve" smooth="yes"/>
      <point x="207" y="706" type="line"/>
    </contour>
  </outline>
</glyph>
<glyph name="bullet" format="1">
  <advance width="371"/>
  <unicode hex="2022"/>
  <outline>
    <contour>
      <point x="174" y="428" type="line" smooth="yes"/>
      <point x="131" y="428"/>
      <point x="108" y="405"/>
      <point x="108" y="362" type="curve" smooth="yes"/>
      <point x="108" y="344" type="line" smooth="yes"/>
      <point x="108" y="301"/>
      <point x="131" y="279"/>
      <point x="174" y="279" type="curve" smooth="yes"/>
      <point x="195" y="279" type="line" smooth="yes"/>
      <point x="239" y="279"/>
      <point x="262" y="301"/>
      <point x="262" y="344" type="curve" smooth="yes"/>
      <point x="262" y="362" type="line" smooth="yes"/>
      <point x="262" y="405"/>
      <point x="239" y="428"/>
      <point x="195" y="428" type="curve" smooth="yes"/>
    </contour>
  </outline>
</glyph>
<glyph name="ellipsis" format="1">
  <advance width="574"/>
  <unicode hex="2026"/>
  <outline>
    <contour>
      <point x="400" y="153" type="line"/>
      <point x="246" y="153" type="line"/>
      <point x="246" y="0" type="line"/>
      <point x="400" y="0" type="line"/>
    </contour>
    <contour>
      <point x="591" y="153" type="line"/>
      <point x="438" y="153" type="line"/>
      <point x="438" y="0" type="line"/>
      <point x="591" y="0" type="line"/>
    </contour>
    <contour>
      <point x="208" y="153" type="line"/>
      <point x="54" y="153" type="line"/>
      <point x="54" y="0" type="line"/>
      <point x="208" y="0" type="line"/>
    </contour>
  </outline>
</glyph>
<glyph name="Euro" format="1">
  <advance width="799"/>
  <unicode hex="20AC"/>
  <outline>
    <contour>
      <point x="278" y="187" type="line"/>
      <point x="641" y="187" type="line"/>
      <point x="641" y="340" type="line"/>
      <point x="278" y="340" type="line"/>
      <point x="278" y="375" type="line"/>
      <point x="641" y="375" type="line"/>
      <point x="641" y="528" type="line"/>
      <point x="278" y="528" type="line"/>
      <point x="278" y="567" type="line"/>
      <point x="739" y="567" type="line"/>
      <point x="739" y="720" type="line"/>
      <point x="270" y="720" type="line" smooth="yes"/>
      <point x="190" y="720"/>
      <point x="125" y="655"/>
      <point x="125" y="575" type="curve" smooth="yes"/>
      <point x="125" y="528" type="line"/>
      <point x="35" y="528" type="line"/>
      <point x="35" y="375" type="line"/>
      <point x="125" y="375" type="line"/>
      <point x="125" y="340" type="line"/>
      <point x="35" y="340" type="line"/>
      <point x="35" y="187" type="line"/>
      <point x="125" y="187" type="line"/>
      <point x="125" y="145" type="line" smooth="yes"/>
      <point x="125" y="66"/>
      <point x="190" y="0"/>
      <point x="270" y="0" type="curve" smooth="yes"/>
      <point x="739" y="0" type="line"/>
      <point x="739" y="153" type="line"/>
      <point x="278" y="153" type="line"/>
    </contour>
  </outline>
</glyph>
<glyph name="minus" format="1">
  <advance width="517"/>
  <unicode hex="2212"/>
  <outline>
    <contour>
      <point x="476" y="372" type="line"/>
      <point x="59" y="372" type="line"/>
      <point x="59" y="219" type="line"/>
      <point x="476" y="219" type="line"/>
    </contour>
  </outline>
</glyph>
<glyph name="A.alt" format="1">
  <advance width="774"/>
  <outline>
    <contour>
      <point x="0" y="0" type="line"/>
      <point x="156" y="0" type="line"/>
      <point x="302" y="174" type="line"/>
      <point x="552" y="174" type="line"/>
      <point x="552" y="0" type="line"/>
      <point x="706" y="0" type="line"/>
      <point x="706" y="720" type="line"/>
      <point x="549" y="720" type="line"/>
      <point x="0" y="50" type="line"/>
    </contour>
    <contour>
      <point x="552" y="471" type="line"/>
      <point x="552" y="327" type="line"/>
      <point x="430" y="327" type="line"/>
    </contour>
  </outline>
</glyph>
<glyph name="A.alt2" format="1">
  <advance width="774"/>
  <outline>
    <contour>
      <point x="54" y="720" type="line"/>
      <point x="54" y="0" type="line"/>
      <point x="207" y="0" type="line"/>
      <point x="207" y="174" type="line"/>
      <point x="457" y="174" type="line"/>
      <point x="604" y="0" type="line"/>
      <point x="761" y="0" type="line"/>
      <point x="761" y="50" type="line"/>
      <point x="211" y="720" type="line"/>
    </contour>
    <contour>
      <point x="207" y="471" type="line"/>
      <point x="329" y="327" type="line"/>
      <point x="207" y="327" type="line"/>
    </contour>
  </outline>
</glyph>
<glyph name="A.alt3" format="1">
  <advance width="827"/>
  <outline>
    <contour>
      <point x="876" y="0" type="line"/>
      <point x="491" y="720" type="line"/>
      <point x="358" y="720" type="line"/>
      <point x="-28" y="0" type="line"/>
      <point x="150" y="0" type="line"/>
      <point x="244" y="161" type="line"/>
      <point x="606" y="161" type="line"/>
      <point x="698" y="0" type="line"/>
    </contour>
    <contour>
      <point x="424" y="512" type="line"/>
      <point x="458" y="438"/>
      <point x="485" y="386"/>
      <point x="519" y="317" type="curve"/>
      <point x="330" y="317" type="line"/>
    </contour>
  </outline>
</glyph>
<glyph name="C.alt" format="1">
  <advance width="822"/>
  <outline>
    <contour>
      <point x="773" y="599" type="line"/>
      <point x="756" y="667"/>
      <point x="696" y="720"/>
      <point x="624" y="720" type="curve" smooth="yes"/>
      <point x="200" y="720" type="line" smooth="yes"/>
      <point x="118" y="720"/>
      <point x="52" y="654"/>
      <point x="52" y="572" type="curve" smooth="yes"/>
      <point x="52" y="148" type="line" smooth="yes"/>
      <point x="52" y="66"/>
      <point x="118" y="0"/>
      <point x="200" y="0" type="curve" smooth="yes"/>
      <point x="624" y="0" type="line" smooth="yes"/>
      <point x="697" y="0"/>
      <point x="758" y="53"/>
      <point x="770" y="122" type="curve"/>
      <point x="770" y="255" type="line"/>
      <point x="616" y="255" type="line"/>
      <point x="616" y="156" type="line"/>
      <point x="207" y="156" type="line"/>
      <point x="207" y="564" type="line"/>
      <point x="616" y="564" type="line"/>
      <point x="616" y="465" type="line"/>
      <point x="773" y="465" type="line"/>
    </contour>
  </outline>
</glyph>
<glyph name="I.alt" format="1">
  <advance width="818"/>
  <outline>
    <contour>
      <point x="769" y="720" type="line"/>
      <point x="49" y="720" type="line"/>
      <point x="49" y="564" type="line"/>
      <point x="331" y="564" type="line"/>
      <point x="331" y="156" type="line"/>
      <point x="49" y="156" type="line"/>
      <point x="49" y="0" type="line"/>
      <point x="769" y="0" type="line"/>
      <point x="769" y="156" type="line"/>
      <point x="487" y="156" type="line"/>
      <point x="487" y="564" type="line"/>
      <point x="769" y="564" type="line"/>
    </contour>
  </outline>
</glyph>
<glyph name="J.alt" format="1">
  <advance width="645"/>
  <outline>
    <contour>
      <point x="3" y="0" type="line"/>
      <point x="455" y="0" type="line" smooth="yes"/>
      <point x="536" y="0"/>
      <point x="604" y="66"/>
      <point x="604" y="148" type="curve" smooth="yes"/>
      <point x="604" y="720" type="line"/>
      <point x="447" y="720" type="line"/>
      <point x="447" y="156" type="line"/>
      <point x="3" y="156" type="line"/>
    </contour>
  </outline>
</glyph>
<glyph name="K.alt" format="1">
  <advance width="829"/>
  <outline>
    <contour>
      <point x="209" y="720" type="line"/>
      <point x="54" y="720" type="line"/>
      <point x="54" y="0" type="line"/>
      <point x="209" y="0" type="line"/>
      <point x="209" y="279" type="line"/>
      <point x="617" y="279" type="line"/>
      <point x="617" y="0" type="line"/>
      <point x="774" y="0" type="line"/>
      <point x="774" y="269" type="line" smooth="yes"/>
      <point x="774" y="302"/>
      <point x="754" y="335"/>
      <point x="717" y="357" type="curve"/>
      <point x="753" y="379"/>
      <point x="775" y="413"/>
      <point x="775" y="445" type="curve" smooth="yes"/>
      <point x="775" y="720" type="line"/>
      <point x="618" y="720" type="line"/>
      <point x="618" y="435" type="line"/>
      <point x="209" y="435" type="line"/>
    </contour>
  </outline>
</glyph>
<glyph name="M.alt" format="1">
  <advance width="1155"/>
  <outline>
    <contour>
      <point x="54" y="720" type="line"/>
      <point x="54" y="0" type="line"/>
      <point x="209" y="0" type="line"/>
      <point x="209" y="564" type="line"/>
      <point x="476" y="564" type="line"/>
      <point x="476" y="0" type="line"/>
      <point x="632" y="0" type="line"/>
      <point x="632" y="564" type="line"/>
      <point x="920" y="564" type="line"/>
      <point x="920" y="0" type="line"/>
      <point x="1076" y="0" type="line"/>
      <point x="1076" y="572" type="line" smooth="yes"/>
      <point x="1076" y="654"/>
      <point x="1009" y="720"/>
      <point x="929" y="720" type="curve" smooth="yes"/>
    </contour>
  </outline>
</glyph>
<glyph name="N.alt" format="1">
  <advance width="827"/>
  <outline>
    <contour>
      <point x="209" y="0" type="line"/>
      <point x="209" y="564" type="line"/>
      <point x="617" y="564" type="line"/>
      <point x="617" y="0" type="line"/>
      <point x="774" y="0" type="line"/>
      <point x="774" y="572" type="line" smooth="yes"/>
      <point x="774" y="654"/>
      <point x="707" y="720"/>
      <point x="626" y="720" type="curve" smooth="yes"/>
      <point x="54" y="720" type="line"/>
      <point x="54" y="0" type="line"/>
    </contour>
  </outline>
</glyph>
<glyph name="O.alt" format="1">
  <advance width="824"/>
  <outline>
    <contour>
      <point x="200" y="720" type="line" smooth="yes"/>
      <point x="118" y="720"/>
      <point x="52" y="654"/>
      <point x="52" y="572" type="curve" smooth="yes"/>
      <point x="52" y="148" type="line" smooth="yes"/>
      <point x="52" y="66"/>
      <point x="118" y="0"/>
      <point x="200" y="0" type="curve" smooth="yes"/>
      <point x="624" y="0" type="line" smooth="yes"/>
      <point x="705" y="0"/>
      <point x="772" y="66"/>
      <point x="772" y="148" type="curve" smooth="yes"/>
      <point x="772" y="572" type="line" smooth="yes"/>
      <point x="772" y="654"/>
      <point x="705" y="720"/>
      <point x="624" y="720" type="curve" smooth="yes"/>
    </contour>
    <contour>
      <point x="207" y="564" type="line"/>
      <point x="615" y="564" type="line"/>
      <point x="615" y="156" type="line"/>
      <point x="207" y="156" type="line"/>
    </contour>
    <contour>
      <point x="490" y="282" type="line"/>
      <point x="490" y="438" type="line"/>
      <point x="334" y="438" type="line"/>
      <point x="334" y="282" type="line"/>
    </contour>
  </outline>
</glyph>
<glyph name="R.alt" format="1">
  <advance width="826"/>
  <outline>
    <contour>
      <point x="774" y="571" type="line" smooth="yes"/>
      <point x="774" y="652"/>
      <point x="707" y="720"/>
      <point x="626" y="720" type="curve" smooth="yes"/>
      <point x="54" y="721" type="line"/>
      <point x="54" y="0" type="line"/>
      <point x="209" y="0" type="line"/>
      <point x="209" y="237" type="line"/>
      <point x="617" y="237" type="line"/>
      <point x="617" y="0" type="line"/>
      <point x="774" y="0" type="line"/>
      <point x="774" y="245" type="line" smooth="yes"/>
      <point x="774" y="278"/>
      <point x="761" y="300"/>
      <point x="740" y="315" type="curve"/>
      <point x="760" y="330"/>
      <point x="774" y="353"/>
      <point x="774" y="385" type="curve" smooth="yes"/>
    </contour>
    <contour>
      <point x="209" y="564" type="line"/>
      <point x="617" y="564" type="line"/>
      <point x="617" y="393" type="line"/>
      <point x="209" y="393" type="line"/>
    </contour>
  </outline>
</glyph>
<glyph name="S.alt" format="1">
  <advance width="812"/>
  <outline>
    <contour>
      <point x="766" y="564" type="line"/>
      <point x="766" y="720" type="line"/>
      <point x="194" y="720" type="line" smooth="yes"/>
      <point x="112" y="720"/>
      <point x="46" y="654"/>
      <point x="46" y="572" type="curve" smooth="yes"/>
      <point x="46" y="430" type="line" smooth="yes"/>
      <point x="46" y="348"/>
      <point x="112" y="282"/>
      <point x="194" y="282" type="curve" smooth="yes"/>
      <point x="610" y="282" type="line"/>
      <point x="610" y="156" type="line"/>
      <point x="46" y="156" type="line"/>
      <point x="46" y="0" type="line"/>
      <point x="618" y="0" type="line" smooth="yes"/>
      <point x="699" y="0"/>
      <point x="766" y="66"/>
      <point x="766" y="148" type="curve" smooth="yes"/>
      <point x="766" y="290" type="line" smooth="yes"/>
      <point x="766" y="372"/>
      <point x="699" y="438"/>
      <point x="618" y="438" type="curve" smooth="yes"/>
      <point x="202" y="438" type="line"/>
      <point x="202" y="564" type="line"/>
    </contour>
  </outline>
</glyph>
<glyph name="V.alt" format="1">
  <advance width="774"/>
  <outline>
    <contour>
      <point x="54" y="720" type="line"/>
      <point x="54" y="0" type="line"/>
      <point x="211" y="0" type="line"/>
      <point x="761" y="656" type="line"/>
      <point x="761" y="720" type="line"/>
      <point x="605" y="720" type="line"/>
      <point x="207" y="234" type="line"/>
      <point x="207" y="720" type="line"/>
    </contour>
  </outline>
</glyph>
<glyph name="V.alt2" format="1">
  <advance width="774"/>
  <outline>
    <contour>
      <point x="563" y="240" type="line"/>
      <point x="160" y="720" type="line"/>
      <point x="0" y="720" type="line"/>
      <point x="0" y="668" type="line"/>
      <point x="561" y="0" type="line"/>
      <point x="720" y="0" type="line"/>
      <point x="720" y="720" type="line"/>
      <point x="563" y="720" type="line"/>
    </contour>
  </outline>
</glyph>
<glyph name="V.alt3" format="1">
  <advance width="827"/>
  <outline>
    <contour>
      <point x="616" y="720" type="line"/>
      <point x="616" y="156" type="line"/>
      <point x="208" y="156" type="line"/>
      <point x="208" y="720" type="line"/>
      <point x="53" y="720" type="line"/>
      <point x="53" y="148" type="line" smooth="yes"/>
      <point x="53" y="66"/>
      <point x="119" y="0"/>
      <point x="201" y="0" type="curve" smooth="yes"/>
      <point x="773" y="0" type="line"/>
      <point x="773" y="720" type="line"/>
    </contour>
  </outline>
</glyph>
<glyph name="W.alt" format="1">
  <advance width="1149"/>
  <outline>
    <contour>
      <point x="988" y="720" type="line"/>
      <point x="687" y="359" type="line" smooth="yes"/>
      <point x="654" y="319"/>
      <point x="618" y="277"/>
      <point x="585" y="237" type="curve"/>
      <point x="585" y="413" type="line"/>
      <point x="800" y="667" type="line"/>
      <point x="800" y="720" type="line"/>
      <point x="640" y="720" type="line"/>
      <point x="369" y="397" type="line"/>
      <point x="370" y="397" type="line"/>
      <point x="326" y="345"/>
      <point x="281" y="290"/>
      <point x="236" y="237" type="curve"/>
      <point x="236" y="720" type="line"/>
      <point x="80" y="720" type="line"/>
      <point x="80" y="0" type="line"/>
      <point x="240" y="0" type="line"/>
      <point x="429" y="225" type="line"/>
      <point x="429" y="0" type="line"/>
      <point x="588" y="0" type="line"/>
      <point x="1149" y="668" type="line"/>
      <point x="1149" y="720" type="line"/>
    </contour>
  </outline>
</glyph>
<glyph name="W.alt2" format="1">
  <advance width="1131"/>
  <outline>
    <contour>
      <point x="159" y="720" type="line"/>
      <point x="-1" y="720" type="line"/>
      <point x="-1" y="668" type="line"/>
      <point x="560" y="0" type="line"/>
      <point x="719" y="0" type="line"/>
      <point x="719" y="225" type="line"/>
      <point x="909" y="0" type="line"/>
      <point x="1068" y="0" type="line"/>
      <point x="1068" y="720" type="line"/>
      <point x="912" y="720" type="line"/>
      <point x="912" y="238" type="line"/>
      <point x="507" y="720" type="line"/>
      <point x="348" y="720" type="line"/>
      <point x="348" y="667" type="line"/>
      <point x="563" y="413" type="line"/>
      <point x="563" y="240" type="line"/>
    </contour>
  </outline>
</glyph>
<glyph name="W.alt3" format="1">
  <advance width="1028"/>
  <outline>
    <contour>
      <point x="506" y="349" type="line"/>
      <point x="799" y="0" type="line"/>
      <point x="958" y="0" type="line"/>
      <point x="958" y="720" type="line"/>
      <point x="802" y="720" type="line"/>
      <point x="802" y="240" type="line"/>
      <point x="507" y="591" type="line"/>
      <point x="209" y="239" type="line"/>
      <point x="209" y="720" type="line"/>
      <point x="54" y="720" type="line"/>
      <point x="54" y="0" type="line"/>
      <point x="213" y="0" type="line"/>
    </contour>
  </outline>
</glyph>
<glyph name="W.alt4" format="1">
  <advance width="1155"/>
  <outline>
    <contour>
      <point x="1075" y="0" type="line"/>
      <point x="1075" y="720" type="line"/>
      <point x="919" y="720" type="line"/>
      <point x="919" y="156" type="line"/>
      <point x="653" y="156" type="line"/>
      <point x="653" y="720" type="line"/>
      <point x="497" y="720" type="line"/>
      <point x="497" y="156" type="line"/>
      <point x="208" y="156" type="line"/>
      <point x="208" y="720" type="line"/>
      <point x="53" y="720" type="line"/>
      <point x="53" y="148" type="line" smooth="yes"/>
      <point x="53" y="66"/>
      <point x="119" y="0"/>
      <point x="201" y="0" type="curve" smooth="yes"/>
    </contour>
  </outline>
</glyph>
<glyph name="X.alt" format="1">
  <advance width="829"/>
  <outline>
    <contour>
      <point x="618" y="720" type="line"/>
      <point x="618" y="435" type="line"/>
      <point x="209" y="435" type="line"/>
      <point x="209" y="720" type="line"/>
      <point x="54" y="720" type="line"/>
      <point x="54" y="445" type="line" smooth="yes"/>
      <point x="54" y="411"/>
      <point x="80" y="377"/>
      <point x="109" y="357" type="curve"/>
      <point x="77" y="337"/>
      <point x="55" y="305"/>
      <point x="55" y="269" type="curve" smooth="yes"/>
      <point x="55" y="0" type="line"/>
      <point x="210" y="0" type="line"/>
      <point x="210" y="279" type="line"/>
      <point x="617" y="279" type="line"/>
      <point x="617" y="0" type="line"/>
      <point x="774" y="0" type="line"/>
      <point x="774" y="269" type="line" smooth="yes"/>
      <point x="774" y="307"/>
      <point x="755" y="337"/>
      <point x="719" y="357" type="curve"/>
      <point x="753" y="377"/>
      <point x="775" y="408"/>
      <point x="775" y="445" type="curve" smooth="yes"/>
      <point x="775" y="720" type="line"/>
    </contour>
  </outline>
</glyph>
<glyph name="Y.alt" format="1">
  <advance width="824"/>
  <outline>
    <contour>
      <point x="614" y="720" type="line"/>
      <point x="614" y="438" type="line"/>
      <point x="206" y="438" type="line"/>
      <point x="206" y="720" type="line"/>
      <point x="51" y="720" type="line"/>
      <point x="51" y="430" type="line" smooth="yes"/>
      <point x="51" y="348"/>
      <point x="117" y="282"/>
      <point x="199" y="282" type="curve" smooth="yes"/>
      <point x="614" y="282" type="line"/>
      <point x="614" y="156" type="line"/>
      <point x="51" y="156" type="line"/>
      <point x="51" y="0" type="line"/>
      <point x="623" y="0" type="line" smooth="yes"/>
      <point x="704" y="0"/>
      <point x="771" y="66"/>
      <point x="771" y="148" type="curve" smooth="yes"/>
      <point x="771" y="720" type="line"/>
    </contour>
  </outline>
</glyph>
<glyph name="Z.alt" format="1">
  <advance width="818"/>
  <outline>
    <contour>
      <point x="197" y="438" type="line" smooth="yes"/>
      <point x="115" y="438"/>
      <point x="49" y="372"/>
      <point x="49" y="290" type="curve" smooth="yes"/>
      <point x="49" y="148" type="line" smooth="yes"/>
      <point x="49" y="66"/>
      <point x="115" y="0"/>
      <point x="197" y="0" type="curve" smooth="yes"/>
      <point x="769" y="0" type="line"/>
      <point x="769" y="156" type="line"/>
      <point x="204" y="156" type="line"/>
      <point x="204" y="282" type="line"/>
      <point x="621" y="282" type="line" smooth="yes"/>
      <point x="702" y="282"/>
      <point x="769" y="348"/>
      <point x="769" y="430" type="curve" smooth="yes"/>
      <point x="769" y="572" type="line" smooth="yes"/>
      <point x="769" y="654"/>
      <point x="702" y="720"/>
      <point x="621" y="720" type="curve" smooth="yes"/>
      <point x="49" y="720" type="line"/>
      <point x="49" y="564" type="line"/>
      <point x="612" y="564" type="line"/>
      <point x="612" y="438" type="line"/>
    </contour>
  </outline>
</glyph>
<glyph name="a.sc" format="1">
  <advance width="725"/>
  <outline>
    <contour>
      <point x="199" y="580" type="line" smooth="yes"/>
      <point x="119" y="580"/>
      <point x="53" y="514"/>
      <point x="53" y="435" type="curve" smooth="yes"/>
      <point x="53" y="0" type="line"/>
      <point x="206" y="0" type="line"/>
      <point x="206" y="138" type="line"/>
      <point x="516" y="138" type="line"/>
      <point x="516" y="0" type="line"/>
      <point x="669" y="0" type="line"/>
      <point x="669" y="435" type="line" smooth="yes"/>
      <point x="669" y="514"/>
      <point x="604" y="580"/>
      <point x="524" y="580" type="curve" smooth="yes"/>
    </contour>
    <contour>
      <point x="206" y="291" type="line"/>
      <point x="206" y="427" type="line"/>
      <point x="516" y="427" type="line"/>
      <point x="516" y="291" type="line"/>
    </contour>
  </outline>
</glyph>
<glyph name="b.sc" format="1">
  <advance width="700"/>
  <outline>
    <contour>
      <point x="624" y="435" type="line" smooth="yes"/>
      <point x="624" y="515"/>
      <point x="559" y="581"/>
      <point x="479" y="581" type="curve" smooth="yes"/>
      <point x="54" y="581" type="line"/>
      <point x="54" y="0" type="line"/>
      <point x="507" y="0" type="line" smooth="yes"/>
      <point x="586" y="0"/>
      <point x="652" y="66"/>
      <point x="652" y="145" type="curve" smooth="yes"/>
      <point x="652" y="219" type="line" smooth="yes"/>
      <point x="652" y="254"/>
      <point x="640" y="286"/>
      <point x="619" y="311" type="curve"/>
      <point x="623" y="325"/>
      <point x="624" y="339"/>
      <point x="624" y="356" type="curve" smooth="yes"/>
    </contour>
    <contour>
      <point x="207" y="221" type="line"/>
      <point x="499" y="221" type="line"/>
      <point x="499" y="153" type="line"/>
      <point x="207" y="153" type="line"/>
    </contour>
    <contour>
      <point x="207" y="438" type="line"/>
      <point x="471" y="438" type="line"/>
      <point x="471" y="364" type="line"/>
      <point x="207" y="364" type="line"/>
    </contour>
  </outline>
</glyph>
<glyph name="c.sc" format="1">
  <advance width="693"/>
  <outline>
    <contour>
      <point x="638" y="428" type="line"/>
      <point x="638" y="581" type="line"/>
      <point x="196" y="581" type="line" smooth="yes"/>
      <point x="116" y="581"/>
      <point x="51" y="515"/>
      <point x="51" y="435" type="curve" smooth="yes"/>
      <point x="51" y="145" type="line" smooth="yes"/>
      <point x="51" y="66"/>
      <point x="116" y="0"/>
      <point x="196" y="0" type="curve" smooth="yes"/>
      <point x="638" y="0" type="line"/>
      <point x="638" y="153" type="line"/>
      <point x="204" y="153" type="line"/>
      <point x="204" y="428" type="line"/>
    </contour>
  </outline>
</glyph>
<glyph name="d.sc" format="1">
  <advance width="705"/>
  <outline>
    <contour>
      <point x="54" y="581" type="line"/>
      <point x="54" y="0" type="line"/>
      <point x="507" y="0" type="line" smooth="yes"/>
      <point x="586" y="0"/>
      <point x="652" y="66"/>
      <point x="652" y="145" type="curve" smooth="yes"/>
      <point x="652" y="435" type="line" smooth="yes"/>
      <point x="652" y="515"/>
      <point x="586" y="581"/>
      <point x="507" y="581" type="curve" smooth="yes"/>
    </contour>
    <contour>
      <point x="207" y="428" type="line"/>
      <point x="499" y="428" type="line"/>
      <point x="499" y="153" type="line"/>
      <point x="207" y="153" type="line"/>
    </contour>
  </outline>
</glyph>
<glyph name="e.sc" format="1">
  <advance width="638"/>
  <outline>
    <contour>
      <point x="589" y="581" type="line"/>
      <point x="54" y="581" type="line"/>
      <point x="54" y="0" type="line"/>
      <point x="589" y="0" type="line"/>
      <point x="589" y="153" type="line"/>
      <point x="207" y="153" type="line"/>
      <point x="207" y="213" type="line"/>
      <point x="492" y="213" type="line"/>
      <point x="492" y="367" type="line"/>
      <point x="207" y="367" type="line"/>
      <point x="207" y="428" type="line"/>
      <point x="589" y="428" type="line"/>
    </contour>
  </outline>
</glyph>
<glyph name="f.sc" format="1">
  <advance width="591"/>
  <outline>
    <contour>
      <point x="54" y="581" type="line"/>
      <point x="54" y="0" type="line"/>
      <point x="207" y="0" type="line"/>
      <point x="207" y="213" type="line"/>
      <point x="492" y="213" type="line"/>
      <point x="492" y="367" type="line"/>
      <point x="207" y="367" type="line"/>
      <point x="207" y="428" type="line"/>
      <point x="589" y="428" type="line"/>
      <point x="589" y="581" type="line"/>
    </contour>
  </outline>
</glyph>
<glyph name="four.alt" format="1">
  <advance width="723"/>
  <outline>
    <contour>
      <point x="593" y="331" type="line"/>
      <point x="593" y="466" type="line"/>
      <point x="440" y="466" type="line"/>
      <point x="440" y="331" type="line"/>
      <point x="217" y="331" type="line"/>
      <point x="493" y="635" type="line"/>
      <point x="493" y="718" type="line"/>
      <point x="355" y="718" type="line"/>
      <point x="9" y="312" type="line"/>
      <point x="9" y="177" type="line"/>
      <point x="440" y="177" type="line"/>
      <point x="440" y="0" type="line"/>
      <point x="593" y="0" type="line"/>
      <point x="593" y="177" type="line"/>
      <point x="689" y="177" type="line"/>
      <point x="689" y="331" type="line"/>
    </contour>
  </outline>
</glyph>
<glyph name="g.sc" format="1">
  <advance width="690"/>
  <outline>
    <contour>
      <point x="639" y="435" type="line" smooth="yes"/>
      <point x="639" y="515"/>
      <point x="574" y="581"/>
      <point x="494" y="581" type="curve" smooth="yes"/>
      <point x="196" y="581" type="line" smooth="yes"/>
      <point x="117" y="581"/>
      <point x="51" y="515"/>
      <point x="51" y="435" type="curve" smooth="yes"/>
      <point x="51" y="145" type="line" smooth="yes"/>
      <point x="51" y="66"/>
      <point x="117" y="0"/>
      <point x="196" y="0" type="curve" smooth="yes"/>
      <point x="494" y="0" type="line" smooth="yes"/>
      <point x="574" y="0"/>
      <point x="639" y="66"/>
      <point x="639" y="145" type="curve" smooth="yes"/>
      <point x="639" y="339" type="line"/>
      <point x="342" y="339" type="line"/>
      <point x="342" y="196" type="line"/>
      <point x="486" y="196" type="line"/>
      <point x="486" y="153" type="line"/>
      <point x="204" y="153" type="line"/>
      <point x="204" y="428" type="line"/>
      <point x="486" y="428" type="line"/>
      <point x="486" y="402" type="line"/>
      <point x="639" y="402" type="line"/>
    </contour>
  </outline>
</glyph>
<glyph name="h.sc" format="1">
  <advance width="715"/>
  <outline>
    <contour>
      <point x="505" y="580" type="line"/>
      <point x="505" y="367" type="line"/>
      <point x="207" y="367" type="line"/>
      <point x="207" y="580" type="line"/>
      <point x="54" y="580" type="line"/>
      <point x="54" y="0" type="line"/>
      <point x="207" y="0" type="line"/>
      <point x="207" y="213" type="line"/>
      <point x="505" y="213" type="line"/>
      <point x="505" y="0" type="line"/>
      <point x="659" y="0" type="line"/>
      <point x="659" y="580" type="line"/>
    </contour>
  </outline>
</glyph>
<glyph name="j.sc" format="1">
  <advance width="657"/>
  <outline>
    <contour>
      <point x="158" y="227" type="line"/>
      <point x="5" y="227" type="line"/>
      <point x="5" y="145" type="line" smooth="yes"/>
      <point x="5" y="66"/>
      <point x="71" y="0"/>
      <point x="151" y="0" type="curve" smooth="yes"/>
      <point x="458" y="0" type="line" smooth="yes"/>
      <point x="538" y="0"/>
      <point x="603" y="66"/>
      <point x="603" y="145" type="curve" smooth="yes"/>
      <point x="603" y="580" type="line"/>
      <point x="450" y="580" type="line"/>
      <point x="450" y="153" type="line"/>
      <point x="158" y="153" type="line"/>
    </contour>
  </outline>
</glyph>
<glyph name="k.alt" format="1">
  <advance width="669"/>
  <outline>
    <contour>
      <point x="642" y="580" type="line"/>
      <point x="489" y="580" type="line"/>
      <point x="489" y="367" type="line"/>
      <point x="207" y="367" type="line"/>
      <point x="207" y="752" type="line"/>
      <point x="54" y="752" type="line"/>
      <point x="54" y="0" type="line"/>
      <point x="207" y="0" type="line"/>
      <point x="207" y="213" type="line"/>
      <point x="489" y="213" type="line"/>
      <point x="489" y="0" type="line"/>
      <point x="642" y="0" type="line"/>
      <point x="642" y="222" type="line" smooth="yes"/>
      <point x="642" y="244"/>
      <point x="626" y="269"/>
      <point x="615" y="290" type="curve"/>
      <point x="626" y="311"/>
      <point x="642" y="335"/>
      <point x="642" y="358" type="curve" smooth="yes"/>
    </contour>
  </outline>
</glyph>
<glyph name="k.sc" format="1">
  <advance width="682"/>
  <outline>
    <contour>
      <point x="482" y="580" type="line"/>
      <point x="285" y="367" type="line"/>
      <point x="207" y="367" type="line"/>
      <point x="207" y="580" type="line"/>
      <point x="54" y="580" type="line"/>
      <point x="54" y="0" type="line"/>
      <point x="207" y="0" type="line"/>
      <point x="207" y="213" type="line"/>
      <point x="285" y="213" type="line"/>
      <point x="482" y="0" type="line"/>
      <point x="636" y="0" type="line"/>
      <point x="636" y="52" type="line"/>
      <point x="420" y="290" type="line"/>
      <point x="636" y="528" type="line"/>
      <point x="636" y="580" type="line"/>
    </contour>
  </outline>
</glyph>
<glyph name="l.sc" format="1">
  <advance width="659"/>
  <outline>
    <contour>
      <point x="54" y="0" type="line"/>
      <point x="652" y="0" type="line"/>
      <point x="652" y="153" type="line"/>
      <point x="207" y="153" type="line"/>
      <point x="207" y="580" type="line"/>
      <point x="54" y="580" type="line"/>
    </contour>
  </outline>
</glyph>
<glyph name="m.sc" format="1">
  <advance width="824"/>
  <outline>
    <contour>
      <point x="406" y="304" type="line"/>
      <point x="213" y="581" type="line"/>
      <point x="54" y="581" type="line"/>
      <point x="54" y="0" type="line"/>
      <point x="207" y="0" type="line"/>
      <point x="207" y="341" type="line"/>
      <point x="406" y="60" type="line"/>
      <point x="604" y="341" type="line"/>
      <point x="604" y="0" type="line"/>
      <point x="758" y="0" type="line"/>
      <point x="758" y="581" type="line"/>
      <point x="598" y="581" type="line"/>
    </contour>
  </outline>
</glyph>
<glyph name="n.sc" format="1">
  <advance width="708"/>
  <outline>
    <contour>
      <point x="499" y="238" type="line"/>
      <point x="212" y="580" type="line"/>
      <point x="54" y="580" type="line"/>
      <point x="54" y="0" type="line"/>
      <point x="207" y="0" type="line"/>
      <point x="207" y="344" type="line"/>
      <point x="493" y="0" type="line"/>
      <point x="652" y="0" type="line"/>
      <point x="652" y="580" type="line"/>
      <point x="499" y="580" type="line"/>
    </contour>
  </outline>
</glyph>
<glyph name="nine.alt" format="1">
  <advance width="784"/>
  <outline>
    <contour>
      <point x="158" y="719" type="line" smooth="yes"/>
      <point x="78" y="719"/>
      <point x="12" y="653"/>
      <point x="12" y="573" type="curve" smooth="yes"/>
      <point x="12" y="425" type="line" smooth="yes"/>
      <point x="12" y="345"/>
      <point x="78" y="280"/>
      <point x="158" y="280" type="curve" smooth="yes"/>
      <point x="566" y="280" type="line"/>
      <point x="566" y="0" type="line"/>
      <point x="719" y="0" type="line"/>
      <point x="719" y="573" type="line" smooth="yes"/>
      <point x="719" y="653"/>
      <point x="654" y="719"/>
      <point x="574" y="719" type="curve" smooth="yes"/>
    </contour>
    <contour>
      <point x="566" y="433" type="line"/>
      <point x="166" y="433" type="line"/>
      <point x="166" y="565" type="line"/>
      <point x="566" y="565" type="line"/>
    </contour>
  </outline>
</glyph>
<glyph name="p.sc" format="1">
  <advance width="660"/>
  <outline>
    <contour>
      <point x="54" y="580" type="line"/>
      <point x="54" y="0" type="line"/>
      <point x="207" y="0" type="line"/>
      <point x="207" y="172" type="line"/>
      <point x="208" y="171"/>
      <point x="210" y="171"/>
      <point x="210" y="171" type="curve"/>
      <point x="210" y="175"/>
      <point x="209" y="177"/>
      <point x="207" y="177" type="curve"/>
      <point x="497" y="178" type="line" smooth="yes"/>
      <point x="577" y="178"/>
      <point x="642" y="244"/>
      <point x="642" y="323" type="curve" smooth="yes"/>
      <point x="642" y="435" type="line" smooth="yes"/>
      <point x="642" y="513"/>
      <point x="577" y="580"/>
      <point x="497" y="580" type="curve" smooth="yes"/>
    </contour>
    <contour>
      <point x="207" y="427" type="line"/>
      <point x="489" y="427" type="line"/>
      <point x="489" y="332" type="line"/>
      <point x="207" y="332" type="line"/>
    </contour>
  </outline>
</glyph>
<glyph name="q.sc" format="1">
  <advance width="770"/>
  <outline>
    <contour>
      <point x="640" y="435" type="line" smooth="yes"/>
      <point x="640" y="514"/>
      <point x="576" y="580"/>
      <point x="495" y="580" type="curve" smooth="yes"/>
      <point x="197" y="580" type="line" smooth="yes"/>
      <point x="118" y="580"/>
      <point x="52" y="514"/>
      <point x="52" y="435" type="curve" smooth="yes"/>
      <point x="52" y="145" type="line" smooth="yes"/>
      <point x="52" y="66"/>
      <point x="118" y="0"/>
      <point x="197" y="0" type="curve" smooth="yes"/>
      <point x="722" y="0" type="line"/>
      <point x="722" y="153" type="line"/>
      <point x="640" y="153" type="line"/>
    </contour>
    <contour>
      <point x="205" y="427" type="line"/>
      <point x="487" y="427" type="line"/>
      <point x="487" y="153" type="line"/>
      <point x="205" y="153" type="line"/>
    </contour>
  </outline>
</glyph>
<glyph name="question.alt" format="1">
  <advance width="667"/>
  <outline>
    <contour>
      <point x="170" y="720" type="line" smooth="yes"/>
      <point x="97" y="720"/>
      <point x="37" y="667"/>
      <point x="27" y="599" type="curve"/>
      <point x="27" y="469" type="line"/>
      <point x="180" y="469" type="line"/>
      <point x="180" y="567" type="line"/>
      <point x="488" y="567" type="line"/>
      <point x="488" y="417" type="line"/>
      <point x="323" y="417" type="line" smooth="yes"/>
      <point x="244" y="417"/>
      <point x="178" y="352"/>
      <point x="178" y="272" type="curve" smooth="yes"/>
      <point x="178" y="190" type="line"/>
      <point x="332" y="190" type="line"/>
      <point x="332" y="263" type="line"/>
      <point x="496" y="263" type="line" smooth="yes"/>
      <point x="575" y="263"/>
      <point x="641" y="329"/>
      <point x="641" y="409" type="curve" smooth="yes"/>
      <point x="641" y="575" type="line" smooth="yes"/>
      <point x="641" y="655"/>
      <point x="575" y="720"/>
      <point x="496" y="720" type="curve" smooth="yes"/>
    </contour>
    <contour>
      <point x="332" y="0" type="line"/>
      <point x="332" y="153" type="line"/>
      <point x="178" y="153" type="line"/>
      <point x="178" y="0" type="line"/>
    </contour>
  </outline>
</glyph>
<glyph name="r.sc" format="1">
  <advance width="700"/>
  <outline>
    <contour>
      <point x="643" y="435" type="line" smooth="yes"/>
      <point x="643" y="513"/>
      <point x="577" y="580"/>
      <point x="497" y="580" type="curve" smooth="yes"/>
      <point x="54" y="580" type="line"/>
      <point x="54" y="0" type="line"/>
      <point x="207" y="0" type="line"/>
      <point x="207" y="178" type="line"/>
      <point x="302" y="178" type="line"/>
      <point x="497" y="0" type="line"/>
      <point x="652" y="0" type="line"/>
      <point x="652" y="54" type="line"/>
      <point x="511" y="178" type="line"/>
      <point x="585" y="185"/>
      <point x="643" y="249"/>
      <point x="643" y="323" type="curve" smooth="yes"/>
    </contour>
    <contour>
      <point x="207" y="427" type="line"/>
      <point x="489" y="427" type="line"/>
      <point x="489" y="332" type="line"/>
      <point x="207" y="332" type="line"/>
    </contour>
  </outline>
</glyph>
<glyph name="s.sc" format="1">
  <advance width="687"/>
  <outline>
    <contour>
      <point x="638" y="435" type="line" smooth="yes"/>
      <point x="638" y="514"/>
      <point x="572" y="580"/>
      <point x="492" y="580" type="curve" smooth="yes"/>
      <point x="194" y="580" type="line" smooth="yes"/>
      <point x="115" y="580"/>
      <point x="49" y="514"/>
      <point x="49" y="435" type="curve" smooth="yes"/>
      <point x="49" y="358" type="line" smooth="yes"/>
      <point x="49" y="279"/>
      <point x="115" y="213"/>
      <point x="194" y="213" type="curve" smooth="yes"/>
      <point x="484" y="213" type="line"/>
      <point x="484" y="153" type="line"/>
      <point x="202" y="153" type="line"/>
      <point x="202" y="173" type="line"/>
      <point x="49" y="173" type="line"/>
      <point x="49" y="145" type="line" smooth="yes"/>
      <point x="49" y="66"/>
      <point x="115" y="0"/>
      <point x="194" y="0" type="curve" smooth="yes"/>
      <point x="492" y="0" type="line" smooth="yes"/>
      <point x="572" y="0"/>
      <point x="638" y="66"/>
      <point x="638" y="145" type="curve" smooth="yes"/>
      <point x="638" y="222" type="line" smooth="yes"/>
      <point x="638" y="301"/>
      <point x="572" y="367"/>
      <point x="492" y="367" type="curve" smooth="yes"/>
      <point x="202" y="367" type="line"/>
      <point x="202" y="427" type="line"/>
      <point x="484" y="427" type="line"/>
      <point x="484" y="407" type="line"/>
      <point x="638" y="407" type="line"/>
    </contour>
  </outline>
</glyph>
<glyph name="seven.alt" format="1">
  <advance width="771"/>
  <outline>
    <contour>
      <point x="46" y="720" type="line"/>
      <point x="46" y="567" type="line"/>
      <point x="468" y="567" type="line"/>
      <point x="46" y="51" type="line"/>
      <point x="46" y="0" type="line"/>
      <point x="202" y="0" type="line"/>
      <point x="753" y="670" type="line"/>
      <point x="753" y="720" type="line"/>
    </contour>
  </outline>
</glyph>
<glyph name="t.sc" format="1">
  <advance width="644"/>
  <outline>
    <contour>
      <point x="22" y="580" type="line"/>
      <point x="22" y="427" type="line"/>
      <point x="243" y="427" type="line"/>
      <point x="243" y="0" type="line"/>
      <point x="397" y="0" type="line"/>
      <point x="397" y="427" type="line"/>
      <point x="620" y="427" type="line"/>
      <point x="620" y="580" type="line"/>
    </contour>
  </outline>
</glyph>
<glyph name="two.alt" format="1">
  <advance width="815"/>
  <outline>
    <contour>
      <point x="755" y="453" type="line"/>
      <point x="755" y="600" type="line"/>
      <point x="743" y="668"/>
      <point x="683" y="719"/>
      <point x="611" y="719" type="curve" smooth="yes"/>
      <point x="195" y="719" type="line" smooth="yes"/>
      <point x="115" y="719"/>
      <point x="49" y="654"/>
      <point x="49" y="574" type="curve" smooth="yes"/>
      <point x="49" y="497" type="line"/>
      <point x="203" y="497" type="line"/>
      <point x="203" y="566" type="line"/>
      <point x="601" y="566" type="line"/>
      <point x="601" y="546" type="line"/>
      <point x="49" y="247" type="line"/>
      <point x="50" y="113" type="line"/>
      <point x="66" y="49"/>
      <point x="124" y="0"/>
      <point x="193" y="0" type="curve" smooth="yes"/>
      <point x="755" y="0" type="line"/>
      <point x="755" y="153" type="line"/>
      <point x="203" y="153" type="line"/>
      <point x="642" y="395" type="line"/>
    </contour>
  </outline>
</glyph>
<glyph name="u.sc" format="1">
  <advance width="695"/>
  <outline>
    <contour>
      <point x="206" y="580" type="line"/>
      <point x="53" y="580" type="line"/>
      <point x="53" y="145" type="line" smooth="yes"/>
      <point x="53" y="66"/>
      <point x="118" y="0"/>
      <point x="198" y="0" type="curve" smooth="yes"/>
      <point x="496" y="0" type="line" smooth="yes"/>
      <point x="576" y="0"/>
      <point x="641" y="66"/>
      <point x="641" y="145" type="curve" smooth="yes"/>
      <point x="641" y="580" type="line"/>
      <point x="488" y="580" type="line"/>
      <point x="488" y="153" type="line"/>
      <point x="206" y="153" type="line"/>
    </contour>
  </outline>
</glyph>
<glyph name="v.alt" format="1">
  <advance width="697"/>
  <outline>
    <contour>
      <point x="488" y="580" type="line"/>
      <point x="488" y="153" type="line"/>
      <point x="206" y="153" type="line"/>
      <point x="206" y="580" type="line"/>
      <point x="53" y="580" type="line"/>
      <point x="53" y="145" type="line" smooth="yes"/>
      <point x="53" y="66"/>
      <point x="118" y="0"/>
      <point x="198" y="0" type="curve" smooth="yes"/>
      <point x="641" y="0" type="line"/>
      <point x="641" y="580" type="line"/>
    </contour>
  </outline>
</glyph>
<glyph name="v.sc" format="1">
  <advance width="801"/>
  <outline>
    <contour>
      <point x="410" y="194" type="line"/>
      <point x="196" y="580" type="line"/>
      <point x="21" y="580" type="line"/>
      <point x="345" y="0" type="line"/>
      <point x="476" y="0" type="line"/>
      <point x="799" y="580" type="line"/>
      <point x="624" y="580" type="line"/>
    </contour>
  </outline>
</glyph>
<glyph name="w.alt" format="1">
  <advance width="978"/>
  <outline>
    <contour>
      <point x="896" y="0" type="line"/>
      <point x="896" y="580" type="line"/>
      <point x="743" y="580" type="line"/>
      <point x="743" y="153" type="line"/>
      <point x="551" y="153" type="line"/>
      <point x="551" y="580" type="line"/>
      <point x="397" y="580" type="line"/>
      <point x="397" y="153" type="line"/>
      <point x="205" y="153" type="line"/>
      <point x="205" y="580" type="line"/>
      <point x="53" y="580" type="line"/>
      <point x="53" y="145" type="line" smooth="yes"/>
      <point x="53" y="66"/>
      <point x="119" y="0"/>
      <point x="199" y="0" type="curve" smooth="yes"/>
    </contour>
  </outline>
</glyph>
<glyph name="w.sc" format="1">
  <advance width="1078"/>
  <outline>
    <contour>
      <point x="864" y="580" type="line"/>
      <point x="825" y="481"/>
      <point x="784" y="375"/>
      <point x="744" y="275" type="curve"/>
      <point x="600" y="580" type="line"/>
      <point x="460" y="580" type="line"/>
      <point x="325" y="276" type="line"/>
      <point x="196" y="580" type="line"/>
      <point x="34" y="580" type="line"/>
      <point x="266" y="0" type="line"/>
      <point x="381" y="0" type="line"/>
      <point x="407" y="57"/>
      <point x="438" y="129"/>
      <point x="464" y="188" type="curve" smooth="yes"/>
      <point x="531" y="339" type="line"/>
      <point x="688" y="0" type="line"/>
      <point x="804" y="0" type="line"/>
      <point x="1027" y="580" type="line"/>
    </contour>
  </outline>
</glyph>
<glyph name="x.alt" format="1">
  <advance width="698"/>
  <outline>
    <contour>
      <point x="642" y="580" type="line"/>
      <point x="489" y="580" type="line"/>
      <point x="489" y="367" type="line"/>
      <point x="207" y="367" type="line"/>
      <point x="207" y="580" type="line"/>
      <point x="54" y="580" type="line"/>
      <point x="54" y="358" type="line" smooth="yes"/>
      <point x="54" y="335"/>
      <point x="70" y="311"/>
      <point x="81" y="290" type="curve"/>
      <point x="70" y="269"/>
      <point x="54" y="244"/>
      <point x="54" y="222" type="curve" smooth="yes"/>
      <point x="54" y="0" type="line"/>
      <point x="207" y="0" type="line"/>
      <point x="207" y="213" type="line"/>
      <point x="489" y="213" type="line"/>
      <point x="489" y="0" type="line"/>
      <point x="642" y="0" type="line"/>
      <point x="642" y="222" type="line" smooth="yes"/>
      <point x="642" y="244"/>
      <point x="626" y="269"/>
      <point x="615" y="290" type="curve"/>
      <point x="626" y="311"/>
      <point x="642" y="335"/>
      <point x="642" y="358" type="curve" smooth="yes"/>
    </contour>
  </outline>
</glyph>
<glyph name="x.sc" format="1">
  <advance width="692"/>
  <outline>
    <contour>
      <point x="487" y="580" type="line"/>
      <point x="345" y="412" type="line"/>
      <point x="203" y="580" type="line"/>
      <point x="46" y="580" type="line"/>
      <point x="46" y="530" type="line"/>
      <point x="102" y="462" type="line"/>
      <point x="244" y="296" type="line"/>
      <point x="46" y="50" type="line"/>
      <point x="46" y="0" type="line"/>
      <point x="203" y="0" type="line"/>
      <point x="345" y="175" type="line"/>
      <point x="487" y="0" type="line"/>
      <point x="644" y="0" type="line"/>
      <point x="644" y="50" type="line"/>
      <point x="444" y="296" type="line"/>
      <point x="644" y="530" type="line"/>
      <point x="644" y="580" type="line"/>
    </contour>
  </outline>
</glyph>
<glyph name="y.sc" format="1">
  <advance width="688"/>
  <outline>
    <contour>
      <point x="532" y="580" type="line"/>
      <point x="367" y="364" type="line"/>
      <point x="199" y="580" type="line"/>
      <point x="18" y="580" type="line"/>
      <point x="290" y="200" type="line"/>
      <point x="290" y="0" type="line"/>
      <point x="443" y="0" type="line"/>
      <point x="443" y="200" type="line"/>
      <point x="715" y="580" type="line"/>
    </contour>
  </outline>
</glyph>
<glyph name="z.alt" format="1">
  <advance width="692"/>
  <outline>
    <contour>
      <point x="494" y="213" type="line" smooth="yes"/>
      <point x="574" y="213"/>
      <point x="639" y="279"/>
      <point x="639" y="358" type="curve" smooth="yes"/>
      <point x="639" y="435" type="line" smooth="yes"/>
      <point x="639" y="514"/>
      <point x="574" y="580"/>
      <point x="494" y="580" type="curve" smooth="yes"/>
      <point x="51" y="580" type="line"/>
      <point x="51" y="427" type="line"/>
      <point x="486" y="427" type="line"/>
      <point x="486" y="367" type="line"/>
      <point x="196" y="367" type="line" smooth="yes"/>
      <point x="117" y="367"/>
      <point x="51" y="301"/>
      <point x="51" y="222" type="curve" smooth="yes"/>
      <point x="51" y="145" type="line" smooth="yes"/>
      <point x="51" y="66"/>
      <point x="117" y="0"/>
      <point x="196" y="0" type="curve" smooth="yes"/>
      <point x="639" y="0" type="line"/>
      <point x="639" y="153" type="line"/>
      <point x="204" y="153" type="line"/>
      <point x="204" y="213" type="line"/>
    </contour>
  </outline>
</glyph>
<glyph name="z.sc" format="1">
  <advance width="698"/>
  <outline>
    <contour>
      <point x="54" y="427" type="line"/>
      <point x="403" y="427" type="line"/>
      <point x="54" y="157" type="line"/>
      <point x="54" y="0" type="line"/>
      <point x="642" y="0" type="line"/>
      <point x="642" y="153" type="line"/>
      <point x="293" y="153" type="line"/>
      <point x="642" y="423" type="line"/>
      <point x="642" y="580" type="line"/>
      <point x="54" y="580" type="line"/>
    </contour>
  </outline>
</glyph>
